<?xml version="1.0" encoding="UTF-8"?>
<!DOCTYPE svg PUBLIC "-//W3C//DTD SVG 1.1//EN" "http://www.w3.org/Graphics/SVG/1.1/DTD/svg11.dtd">
<!-- Creator: CorelDRAW 2020 (64 Bit) -->
<svg xmlns="http://www.w3.org/2000/svg" xml:space="preserve" width="160.188mm" height="180.282mm" version="1.1" style="shape-rendering:geometricPrecision; text-rendering:geometricPrecision; image-rendering:optimizeQuality; fill-rule:evenodd; clip-rule:evenodd"
viewBox="0 0 2514.14 2829.51"
 xmlns:xlink="http://www.w3.org/1999/xlink"
 xmlns:xodm="http://www.corel.com/coreldraw/odm/2003">
 <defs>
  <style type="text/css">
   <![CDATA[
    .fil0 {fill:#616A5E}
   ]]>
  </style>
 </defs>
 <g id="Camada_x0020_1">
  <metadata id="CorelCorpID_0Corel-Layer"/>
  <g id="_3022013687424">
   <path class="fil0" d="M259.37 182.37c0,127.1 26.53,261.81 60.03,354.45 71.21,196.93 230.26,206.14 158.07,261.55 -57.76,44.33 -110.95,137.93 -99.31,215.31 8.48,56.4 24.96,93.8 56.55,126.26 80.82,83.06 138.75,96.87 5.85,185.21 -62.76,41.73 -118.67,96.26 -171.6,148.93 -75.27,74.89 -157.09,185.72 -203.02,277.78 -81.73,163.81 -85.29,368.92 -22.81,542.3 56.64,157.15 167.82,284.23 208.57,449.07 8.13,32.87 8.25,80.75 51.88,80.75 78.95,0 19.57,-152.55 7.19,-184.04 -26.1,-66.38 -58.83,-121.63 -90.09,-180.7 60.43,-90.24 281.26,-221.25 384.44,-262.15 28.09,-11.13 46.52,-19.02 76.35,-28.65 30.22,-9.76 58.69,-14.32 58.69,-51.84 0,-77.84 -110.13,-22.42 -146.11,-7.95 -133.51,53.71 -247.62,128.3 -357.61,217.14 -11.75,9.49 -16.22,15.86 -29.11,26.15 -13.85,11.05 -20.23,20.09 -36.39,24.4 -70.5,-133.23 -110.46,-340.23 -62.84,-499.43 31.06,-103.84 95.65,-193.6 161.48,-275.1l104.37 -111.16c48.51,-48.75 107.82,-82.94 160.12,-127.25 16.02,-13.57 23.34,-25.73 40.29,-37.08 28.38,15.02 51.34,31.3 78.43,48.68 97.49,62.55 364.96,223.69 479.71,282.94 68.43,35.33 133.39,78 202.71,112.29 126.27,62.48 247.07,137.72 371.99,202.75 57.26,29.81 114.17,58.07 171.39,88.35 -10.29,38.53 -45.64,63.71 -55.26,105 -92.24,-44.26 -233.56,-83.33 -330.43,-106.16 -154.83,-36.49 -370.42,-58.21 -543.74,-38.53 -46.07,5.23 -115.06,2.85 -115.06,50.73 0,74.14 114.34,27.63 232.11,27.63 283.11,0 487.64,53.56 730.29,148.4 43.73,17.09 49.12,23.29 62.03,70.6 37.48,137.29 5.24,307.85 -19.63,443.46 -6.4,34.87 -3.61,67.02 39.68,67.02 45.76,0 44.54,-44.69 51.37,-86.79 24.54,-151.07 58.54,-339.43 -2.3,-487.29 -21.09,-51.24 -37.55,-40.17 -8.61,-92.8 34.34,-62.46 71.77,-107.66 138.19,-138.17 33.64,-15.45 63.25,-25.96 95.89,-42.26 239.53,-119.65 360.99,-313.77 360.99,-611.65 0,-196.9 -57.88,-374.94 -161.35,-534.98l-133.67 -214.5c-19.41,-31.6 -63.18,-41.44 -80.61,-1.42 -15.08,34.61 41.74,104.65 59.54,133.02l54.1 84.06c19.81,30.16 34.73,55.43 52.27,85.89 86.95,151.02 121.29,286.28 121.29,492.14 0,40.02 -5.53,55.35 -5.53,93.95 -140.41,-32.71 -188.95,110.53 -99.47,110.53 52.14,0 13.53,-42.51 77.37,-27.63 -19.14,82.16 -77.85,157.68 -134,214.16 -51.96,52.26 -145.64,111.22 -219.69,128.48 0.67,-29.99 33.97,-116.05 -27.63,-116.05 -31.03,0 -40.93,19.51 -47.52,46.43 -9.22,37.66 -20.16,79.93 -2.22,113.84 -12.32,6.52 -16.64,9.22 -27.63,16.58 -38.47,-8.96 -206.25,-106.99 -250.5,-130.82l-549.76 -301.3c-129.34,-77.75 -264,-145.86 -390.15,-228.8 -33.22,-21.84 -62.08,-37.68 -95.05,-59.68 -87.03,-58.08 -11.26,-48.57 -136.19,-173.28 -27.32,-27.28 -53.88,-48.1 -53.88,-100.86 0,-162.64 244.3,-168.95 45.55,-343.98l-52.62 -46.85c-87.74,-90.12 -108.98,-311.67 -108.98,-449.18 0,-38.48 30.21,-160.27 -33.16,-160.27 -38.92,0 -45.85,33.22 -49.04,67.01 -3.85,40.68 -6.22,73.99 -6.22,115.36z"/>
   <path class="fil0" d="M1955.97 44.21c0,166.88 36.53,287.42 94.44,430.57 24.54,60.67 78.37,28.1 84.86,-2.42 3.43,-16.16 -48.57,-140.14 -63.3,-195.97 -11.72,-44.41 -21.47,-95.22 -26.78,-144.54 -7.9,-73.42 19.26,-131.84 -56.05,-131.84 -17.91,0 -33.16,24.01 -33.16,44.21z"/>
   <path class="fil0" d="M1834.39 121.58c0,46.29 54.47,55.79 75.48,25.77 0.18,-0.26 71.98,-147.35 -14.69,-147.35 -45.18,0 -60.79,84.97 -60.79,121.58z"/>
   <path class="fil0" d="M1862.02 950.54c0,0.04 18.27,127.11 66.32,127.11 84.78,0 17.85,-138.18 12.99,-145.62 -30.77,-47.1 -79.31,-0.86 -79.31,18.52z"/>
   <path class="fil0" d="M1839.92 624.48c58.11,0 44.21,-58.44 44.21,-121.58 0,-56.28 -75.96,-65.26 -87.42,-9.91 -0.94,4.54 -10.73,131.49 43.21,131.49z"/>
   <path class="fil0" d="M1933.86 1171.6c0,16.53 13.89,127.11 60.79,127.11 71.55,0 34.62,-88.82 27.82,-116.24 -20.6,-83.16 -88.61,-45.5 -88.61,-10.86z"/>
   <path class="fil0" d="M1817.81 718.43c0,59.09 4.59,132.63 55.26,132.63 50.05,0 43.23,-40.54 36.37,-80.5 -6.28,-36.53 -8.34,-85.29 -47.42,-85.29 -20.2,0 -44.21,15.25 -44.21,33.16z"/>
   <path class="fil0" d="M1801.23 353.69c0,35.35 61.13,61.89 81.89,10.05 7.4,-18.49 5,-35.31 6.99,-59.4 3.21,-38.71 11.45,-77.75 -39.14,-77.75 -30.59,0 -40.69,18.25 -43.62,44.8 -3.4,30.8 -6.12,50.82 -6.12,82.3z"/>
   <path class="fil0" d="M2033.34 1757.39c55.97,0 44.21,-79.2 44.21,-127.11 0,-51.85 -71.05,-50.31 -81.58,-9.74 -3.43,13.21 -1.02,39.72 -3.73,57.21 -6.47,41.89 -1.59,79.63 41.1,79.63z"/>
   <path class="fil0" d="M1983.6 1392.65c0,36.48 3.06,51.51 5.39,83.03 4.98,67.25 68.82,60.56 83.82,22.33 0.22,-0.55 16.9,-138.51 -50.53,-138.51 -23.62,0 -38.68,22 -38.68,33.16z"/>
   <path class="fil0" d="M613.06 182.37c0,30.16 9.15,94.17 23.08,109.63 25.5,28.3 70.74,12.01 75.07,-22.02 2.04,-16.04 -14.82,-96.75 -22.94,-107.58 -21.42,-28.56 -75.2,-19.43 -75.2,19.97z"/>
   <path class="fil0" d="M729.11 862.12c0,-48.62 -73.52,-75.27 -86.33,13.14 -5.04,34.83 -13,71.59 4.4,90.89 20.29,22.52 53.25,19.94 69.15,-6.28 9.09,-14.99 12.78,-72.92 12.78,-97.76z"/>
   <path class="fil0" d="M695.95 1077.65c0,-14.18 -15.35,-33.16 -44.21,-33.16 -37.96,0 -39.67,30.92 -47.57,62.96 -8.16,33.08 -21.99,63.28 4.54,85.2 62.37,51.53 87.24,-74.26 87.24,-115z"/>
   <path class="fil0" d="M646.21 403.43c0,67.35 -4.23,127.11 55.27,127.11 54.7,0 40.06,-160.27 -5.53,-160.27 -21.41,0 -49.74,7.3 -49.74,33.16z"/>
   <path class="fil0" d="M657.27 635.53c0,50.83 -12.99,121.58 38.68,121.58 56.64,0 44.21,-62.48 44.21,-121.58 0,-53.05 -82.89,-53.05 -82.89,0z"/>
   <path class="fil0" d="M574.37 33.16c0,81.04 82.9,64.25 82.9,11.05 0,-63.55 -82.9,-48.52 -82.9,-11.05z"/>
  </g>
 </g>
</svg>
