<?xml version="1.0" encoding="UTF-8"?>
<!DOCTYPE svg PUBLIC "-//W3C//DTD SVG 1.1//EN" "http://www.w3.org/Graphics/SVG/1.1/DTD/svg11.dtd">
<!-- Creator: CorelDRAW 2020 (64 Bit) -->
<svg xmlns="http://www.w3.org/2000/svg" xml:space="preserve" width="46.5791mm" height="46.6095mm" version="1.1" style="shape-rendering:geometricPrecision; text-rendering:geometricPrecision; image-rendering:optimizeQuality; fill-rule:evenodd; clip-rule:evenodd"
viewBox="0 0 177.03 177.14"
 xmlns:xlink="http://www.w3.org/1999/xlink"
 xmlns:xodm="http://www.corel.com/coreldraw/odm/2003">
 <defs>
  <style type="text/css">
   <![CDATA[
    .fil0 {fill:#616A5E}
   ]]>
  </style>
 </defs>
 <g id="Camada_x0020_1">
  <metadata id="CorelCorpID_0Corel-Layer"/>
  <path class="fil0" d="M12.11 62.62c6.83,-3.61 19.71,-11.11 26.99,-12.8 0,15.24 3.08,24.07 11.81,34.9 7.78,9.64 22.2,17.35 35.59,17.35 9.9,0 15.66,-0.89 23.99,-5.07 3.04,-1.53 5.14,-2.78 7.75,-4.71 7.12,-5.28 12.98,-12.84 16.26,-21.11 2.84,-7.15 3.56,-11.51 3.56,-21.36 7.46,1.74 20,9.1 26.99,12.8 -0.17,2.06 -4.33,8.41 -5.47,10.1 -1.1,1.64 -2.06,2.93 -3.18,4.43l-11.34 12.19c-2.01,2.01 -6.32,5.23 -8.73,6.84 -9.88,6.59 -20.93,11.45 -33.21,13.5 -14.46,2.41 -27.53,1.49 -41.22,-3.07 -12.55,-4.18 -24.36,-11.47 -33.6,-20.72l-7.23 -8.34c-1.86,-2.48 -8.55,-11.86 -8.95,-14.93zm127.67 69.2c0.66,0 13.74,-3.52 11.28,-10.57 -0.98,-2.8 -4.78,-4.47 -8.24,-2.3l-4.89 2.72c-5.13,2.73 -3.09,7.8 -0.92,9.12 0.4,0.24 2.19,1.03 2.77,1.03zm-88.23 1.73c0,3.02 1.43,4.9 4.02,5.67 1.06,0.32 7.15,1.94 7.75,1.94 6.01,0 7.94,-8.59 1.52,-10.52 -0.97,-0.29 -7.32,-1.94 -7.75,-1.94 -2.67,0 -5.54,2.27 -5.54,4.84zm-26.29 -10.73c0,3.23 1.76,4.25 4.61,5.77 3.78,2.01 4.74,3.23 8.19,3.23 1.79,0 3.85,-1.81 4.36,-3.27 0.73,-2.08 0.19,-4.17 -1.13,-5.49 -1.6,-1.59 -8.67,-5.43 -10.84,-5.43 -3.08,0 -5.19,2.11 -5.19,5.19zm82.34 12.8c0,2.88 2.36,5.54 5.19,5.54 1.83,0 13.15,-1.57 13.15,-6.57 0,-8.97 -9.41,-4.97 -13.08,-4.09 -1.36,0.33 -2.64,0.58 -3.63,1.56 -0.56,0.57 -1.63,2.66 -1.63,3.56zm-28.72 2.08c0,7.3 6.31,5.88 13.49,5.88 6.01,0 6.91,-7.73 2.34,-9.95 -1.63,-0.79 -4.64,-0.43 -6.84,-0.42 -2.88,0.01 -3.61,-0.68 -5.88,0.32 -1.39,0.61 -3.1,2.24 -3.1,4.17zm78.88 -27.33c0,6.51 6.04,7.34 9.26,4.07 2.27,-2.3 2.18,-1.68 4.04,-3.92l1.15 -1.28c3.37,-3.45 2.27,-9.26 -4.07,-9.26 -2.4,0 -10.38,7.98 -10.38,10.38zm-154.65 -5.88c0,2.33 -0.06,2.89 1.81,4.76 2.06,2.05 6.02,7 8.57,7 4.12,0 5.88,-1.76 5.88,-5.88 0,-2.33 -3.04,-4.6 -4.41,-5.97 -3.16,-3.16 -3.34,-4.41 -7.35,-4.41 -2.12,0 -4.5,2.38 -4.5,4.5zm27.68 54.32c-1.99,-0.46 -0.24,-0.69 -3.81,-0.69 -2.75,0 -7.44,4.59 -2.16,9.78l6.4 6.75c1.39,1.4 2.69,2.26 3.99,2.51l1.61 0c1.2,-0.23 2.43,-1 3.75,-2.33l6.4 -6.75c2.35,-2.33 2.51,-2.44 2.51,-5.45 0,-2.81 -2.52,-4.5 -5.88,-4.5 -1.26,0 -1.21,0.41 -2.42,0.69 0,-3.57 -0.02,-7.16 0,-10.73 0.04,-4.48 -1.3,-6.57 -5.89,-6.57 -3.36,0 -4.53,3.23 -4.51,6.22 0.03,3.69 0.01,7.39 0.01,11.08zm105.18 0c-1.99,-0.46 -0.24,-0.69 -3.81,-0.69 -2.75,0 -7.44,4.59 -2.16,9.78 2.6,2.56 7.64,9.25 10.47,9.25 4.21,0 5.07,-2.08 8.57,-5.62l3.11 -3.47c2.36,-2.32 2.51,-2.47 2.51,-5.45 0,-2.81 -2.52,-4.5 -5.88,-4.5 -1.26,0 -1.21,0.41 -2.42,0.69 0,-3.57 -0.02,-7.16 0,-10.73 0.04,-4.48 -1.3,-6.57 -5.89,-6.57 -1.38,0 -2.7,0.99 -3.38,1.81 -1.87,2.24 -1.12,11.05 -1.12,15.49zm-49.94 -158.81l5.88 0c10.53,0.31 20.97,2.28 30.37,6.08 15.19,6.13 28.14,14.8 38.71,27.37l2.96 3.61c2.52,3.15 5.38,7.26 7.42,10.92 7.51,13.5 7.62,12.5 -0.12,26.04 -4.36,7.63 -9.82,14.18 -15.98,20.34 -3.08,3.08 -6.17,5.64 -9.7,8.29 -6.96,5.23 -14.76,9.61 -23.48,12.85 -13.06,4.86 -21.81,5.93 -36.62,5.93 -27.11,0 -56.41,-15.54 -72.26,-36.72 -3.69,-4.93 -13.2,-18.47 -13.2,-24.52 0,-1.77 4.91,-10.7 5.9,-12.44 2.11,-3.69 8.27,-12.52 11.65,-16.03 4.43,-4.61 9.02,-9 14.13,-12.86 10.66,-8.04 24.02,-14.31 37.66,-17.01 5.45,-1.08 11.06,-1.71 16.69,-1.87zm-14.41 52.59c0,-3.11 1.45,-7.05 2.69,-9.07 1.19,-1.95 1.02,-1.89 3.87,-2.01 9.34,-0.4 11.45,-0.4 20.79,0 2.85,0.12 2.68,0.06 3.87,2.01 10.46,17.1 -12.01,35.04 -26.12,20.93 -3.06,-3.06 -5.1,-7.33 -5.1,-11.85zm-10.38 -1.38c0,8.86 1.95,14.41 7.99,20.72l0.71 0.67c18.3,16.74 45.96,2.56 45.96,-18.63 0,-8.72 -1.12,-7.51 -1.38,-10.73 0.44,0.21 11.71,2.75 12.46,2.77 0.16,1.95 0.69,4.46 0.69,6.57 0,6.08 -1.72,11.47 -3.5,15.87 -1.09,2.68 -3.59,6.73 -5.58,8.95 -4.27,4.77 -7.19,7.59 -13.86,10.7 -7.66,3.57 -16.44,4.41 -24.73,2.47 -7.25,-1.69 -13.61,-4.99 -18.84,-10.22 -6.95,-6.95 -11.67,-17.39 -11.67,-27.42 0,-2.39 0.51,-4.78 0.69,-6.92 0.75,-0.02 12.02,-2.56 12.46,-2.77 -0.16,1.91 -1.38,3.61 -1.38,7.96zm-41.86 -4.5c0.27,-0.99 0.5,-1.04 1.18,-1.93 3.52,-4.6 6.59,-8.09 11.01,-12.17 11.69,-10.82 28.69,-18.98 44.57,-21.17 9.89,-1.36 14.68,-1.41 24.57,-0.04 4.12,0.57 7.08,1.36 10.85,2.3 7.11,1.77 12.43,4.6 18.54,7.75 6.24,3.22 17.36,11.99 21.85,17.6l4.5 5.53c0.58,0.76 1.08,1.17 1.33,2.13 -31.73,-16.79 -72.48,-20.2 -107.32,-11.49 -5.71,1.43 -10.95,3.02 -16.14,4.96 -5.05,1.88 -10.33,4.09 -14.93,6.52z"/>
 </g>
</svg>
