<?xml version="1.0" encoding="UTF-8"?>
<!DOCTYPE svg PUBLIC "-//W3C//DTD SVG 1.1//EN" "http://www.w3.org/Graphics/SVG/1.1/DTD/svg11.dtd">
<!-- Creator: CorelDRAW 2020 (64 Bit) -->
<svg xmlns="http://www.w3.org/2000/svg" xml:space="preserve" width="150.442mm" height="174.857mm" version="1.1" style="shape-rendering:geometricPrecision; text-rendering:geometricPrecision; image-rendering:optimizeQuality; fill-rule:evenodd; clip-rule:evenodd"
viewBox="0 0 3636.39 4226.54"
 xmlns:xlink="http://www.w3.org/1999/xlink"
 xmlns:xodm="http://www.corel.com/coreldraw/odm/2003">
 <defs>
  <style type="text/css">
   <![CDATA[
    .fil0 {fill:#616A5E}
   ]]>
  </style>
 </defs>
 <g id="Camada_x0020_1">
  <metadata id="CorelCorpID_0Corel-Layer"/>
  <g id="_3022316815440">
   <path class="fil0" d="M1400.65 1560.37c0,45.89 64.8,109.61 113.09,181.8 39.99,59.8 70.52,110.74 104.15,178.44 169.71,341.69 208.15,790.52 -103.64,1067.99 -97,86.32 -238.53,145.35 -372.79,155.55 -142.57,10.83 -129.73,36.76 -109.39,124.03 169.19,39.43 337.15,-26.6 455.33,-97.55 63.97,-38.4 83.98,-58.58 141.77,-103.96l115.51 -130.23 0 1019.78c0,100.85 -28.04,270.31 73.72,270.31 99.84,0 73.73,-158.98 73.72,-258.02l0 -1019.78c27.71,18.56 30.49,30.63 52.88,57.7 54.72,66.2 121.43,116.92 195.02,161.28 149.57,90.13 477,168.18 477,63.6 0,-159.83 -251.72,-13.89 -488.59,-236.29 -65.38,-61.38 -117.81,-115.96 -162.39,-193.93 -19.5,-34.14 -39.75,-86.79 -52.15,-132.14 -93.86,-343.2 43.32,-694.31 231.23,-966.17 20.66,-29.91 68.65,-83.8 79.7,-106.23 24.26,-49.28 -43.07,-307.96 -341.04,287.2 -32.53,65 -44.61,131.56 -77.66,155.78 -8.63,-103.87 -241.62,-540.6 -344.01,-540.6 -28.65,0 -61.44,32.78 -61.44,61.43z"/>
   <path class="fil0" d="M786.33 61.43c0,51.44 295.18,462.06 -268.68,1168.82 -309.23,387.59 -517.64,836.87 -517.64,1362.19 0,136.44 49.76,589.75 147.44,589.75 171.06,0 -12.29,-172.9 -12.29,-602.04 0,-519.33 261.4,-1009.06 506.51,-1287.31 70.77,-80.35 166.88,-237.6 217.69,-335.2l96.57 -247.44c46.51,-171.69 46.95,-220.95 39.38,-390.54 -16.11,-361.3 -208.98,-365.08 -208.98,-258.23z"/>
   <path class="fil0" d="M3464.78 2039.55c0,250.82 117.5,403.51 -53.74,916.89 -111.5,334.29 -268.42,506.28 -459.84,793.38 -49.34,73.98 -248.18,347.54 -248.18,415.3 0,9.98 17.38,52.79 49.09,61.43l23.09 0c19.95,-5.12 43.68,-23.83 70.74,-65.94 434.07,-675.34 893.41,-1137.74 770.09,-1989.72 -11.23,-77.61 -8.08,-180.48 -89.83,-180.48 -25.5,0 -61.43,35.95 -61.43,49.15z"/>
   <path class="fil0" d="M3440.2 1990.4c49.64,0 71.89,-33.58 70.39,-71.73 -1.89,-48.13 -111.43,-256.46 -135.77,-305.19 -62.05,-124.22 -97.56,-164.51 -165.62,-264.4 -227.6,-334.03 -432.46,-479.67 -432.46,-1005.05 0,-178.44 73.72,-212.62 73.72,-282.6 0,-21.17 -24.16,-56.25 -57.16,-61.43l-16.53 0c-41.53,6.53 -91.87,63.75 -126.48,242.14 -71.73,369.74 127.63,802.88 362.66,1069.75 131.23,149 265.6,387.5 344.53,576.94 16.43,39.41 33.86,101.57 82.72,101.57z"/>
   <path class="fil0" d="M208.86 3231.33c0,91.84 398.61,647.71 476.75,764.2 51.39,76.59 123.35,231.01 186.72,231.01 48.76,0 61.43,-47.79 61.43,-86.01 0,-36.44 -433.2,-656 -489.04,-739.6 -109.78,-164.39 -89.48,-208.37 -186.71,-231.03l-20.69 16.17c-24.86,24.81 -28.46,16.3 -28.46,45.26z"/>
   <path class="fil0" d="M712.61 2518.72c0,81.92 -6.31,28.51 16.35,57.38l25.71 23.44c1.37,1.13 4.88,3.27 7.08,5.19 24.8,-5.79 31.62,-6.91 53.02,-20.71 37.31,-24.06 6.78,-12.52 45.26,-40.73l0 221.16c43.59,29.18 19.34,36.86 86.01,36.86 73.56,0 49.15,-141.05 49.15,-258.02 38.79,25.99 37.25,35.64 85.99,61.44 57.64,-30.5 43.23,-16.09 73.72,-73.72 -34.23,-64.69 -49.92,-81.57 -101.39,-132.06 -96.12,-94.31 -98.14,-173.59 -245.61,-6.08 -19.2,21.83 -95.31,103.24 -95.31,125.85z"/>
   <path class="fil0" d="M2481.86 2531.01c30.49,57.62 16.08,43.22 73.72,73.72 48.74,-25.8 47.21,-35.45 86,-61.44 0,202.26 -26.64,258.02 73.72,258.02 29.54,0 36.12,-19.91 61.44,-36.86l0 -221.16c31.06,22.75 27.33,44.9 98.29,61.44l14 -10.56c78.55,-71.89 21.61,-103.67 -54.49,-194.69 -151.41,-181.11 -162.59,-87.53 -251.28,-0.52 -51.47,50.48 -67.16,67.36 -101.39,132.06z"/>
   <path class="fil0" d="M2899.59 3034.76c0,37.38 39.46,59.16 71.61,57.98 8.65,-0.32 165,-35 180.32,-101.47 8.08,-35.02 -9.52,-79.38 -67.64,-79.38 -37.21,0 -73.28,24.13 -109.23,38.21 -42.9,16.79 -75.07,21.01 -75.07,84.66z"/>
   <path class="fil0" d="M3206.76 2862.73c0,38.27 39.08,59.51 70.15,56.52 41.46,-4.01 63.55,-33.87 84.62,-61.47 17.78,-23.29 56.81,-63.94 61.84,-86.16 10.82,-47.98 -19.95,-80.9 -81.46,-80.9 -29.08,0 -135.15,116.48 -135.15,172.01z"/>
   <path class="fil0" d="M1191.78 3096.18c35.64,0 196.59,-48.4 196.59,-122.87 0,-111.33 -184.44,-32.13 -223.62,-1.8 -55.81,43.19 -13.19,124.67 27.04,124.67z"/>
   <path class="fil0" d="M810.91 3010.17c-23.99,102.93 -28.25,115.63 97.46,124.76 77.61,5.63 58.87,3.79 135.97,-14.18 30.04,-128.92 -13.74,-122.86 -172.01,-122.86 -19.36,0 -46.55,6.51 -61.43,12.28z"/>
   <path class="fil0" d="M675.75 3083.89c22.44,0 148.15,-71.15 -27.77,-144.23 -41.81,-17.36 -97.43,-58.58 -139.72,-23.76 -90.68,74.72 66.65,167.99 167.49,167.99z"/>
   <path class="fil0" d="M2580.15 3059.32c0,33.19 5.86,33.87 12.29,61.43 327.99,76.42 273.88,-122.86 159.71,-122.86 -49.83,0 -172.01,-18.81 -172.01,61.43z"/>
   <path class="fil0" d="M1990.4 2739.88c0,43.88 81.88,137.31 147.44,172.01 57.64,-30.49 43.23,-16.08 73.72,-73.72 -106.25,-200.81 -221.16,-202.57 -221.16,-98.29z"/>
   <path class="fil0" d="M221.16 2727.59c0,58.82 36.14,95.95 86.98,147.06 8.58,8.62 -0.93,7.29 27.15,22.3 23.02,12.31 21.93,10.55 40.11,7.66 130.04,-20.65 6.6,-185.85 -92.82,-238.45 -26.56,14.05 -61.43,21.4 -61.43,61.43z"/>
   <path class="fil0" d="M2248.42 2961.04c0,54.43 4.86,57.96 71.86,87.85 70.7,31.56 173.86,79.6 173.86,-38.72 0,-55.86 -184.26,-110.58 -184.3,-110.58 -28.65,0 -61.43,32.78 -61.43,61.44z"/>
   <path class="fil0" d="M1437.51 2838.17c0,64.95 7.56,57.49 61.44,86.01 247.09,-130.75 129.41,-343.36 -0.13,-172.15 -18.58,24.55 -61.31,58.63 -61.31,86.14z"/>
  </g>
 </g>
</svg>
