<?xml version="1.0" encoding="UTF-8"?>
<!DOCTYPE svg PUBLIC "-//W3C//DTD SVG 1.1//EN" "http://www.w3.org/Graphics/SVG/1.1/DTD/svg11.dtd">
<!-- Creator: CorelDRAW 2020 (64 Bit) -->
<svg xmlns="http://www.w3.org/2000/svg" xml:space="preserve" width="46.8497mm" height="54.7992mm" version="1.1" style="shape-rendering:geometricPrecision; text-rendering:geometricPrecision; image-rendering:optimizeQuality; fill-rule:evenodd; clip-rule:evenodd"
viewBox="0 0 179.05 209.43"
 xmlns:xlink="http://www.w3.org/1999/xlink"
 xmlns:xodm="http://www.corel.com/coreldraw/odm/2003">
 <defs>
  <style type="text/css">
   <![CDATA[
    .fil0 {fill:#616A5E}
   ]]>
  </style>
 </defs>
 <g id="Camada_x0020_1">
  <metadata id="CorelCorpID_0Corel-Layer"/>
  <path class="fil0" d="M89.08 109.22c3.35,0 1.87,-1.21 6.38,-5.22 2.08,-1.85 4.35,-3.01 6.61,-4.53 1.53,6.58 7.79,13.43 12.8,16.89 5.06,3.49 14.97,8.48 21.53,8.63 -10.53,15.72 -20.23,4.91 -10.15,35.2 4.17,12.52 12.48,30.04 20.93,40.31 0.85,1.04 2.03,2.39 2.68,3.35l-79.33 0c8.26,-12.33 -0.22,-30.68 -6.86,-41.39 -1.71,-2.76 -6.46,-7.7 -9.71,-8.86 -3.7,-1.33 -11.04,0.61 -16.37,0.61 -6.34,0 -15.38,1.19 -18.72,-5.41 -3.15,-6.21 6.49,-13.95 -4.01,-16.4 1.02,-3.82 8.34,-2.31 9.08,-6.18 0.76,-4.01 -4.67,-2.17 -10.47,-4.96 0.97,-4.17 6.89,-10.65 -2.04,-12.8 -3.05,-0.73 -4.88,-1.76 -6.31,-3.9l1.46 -1.79c3.43,-4.53 6.02,-6.74 10.28,-12.45 5.08,-6.82 4.84,-12.25 4.94,-21.04 0.07,-5.93 1.8,-16.97 3.43,-22.55 1.19,-4.11 4.95,-15.62 8.19,-17.79 1.04,0.69 1.6,2.07 4.71,4.57 0.74,0.6 0.97,0.93 1.68,1.57 1.14,1.02 2.42,1.85 3.69,2.81 11.63,8.73 30.65,21.6 38.91,32.54 1.45,1.92 4.15,5.93 4.37,8.62 2.23,-0.19 2.7,-1.21 4.4,-2.09 10.49,-5.43 16.86,2.28 11.23,14.48 -2.67,5.8 -7.09,4.05 -12.58,11.08 -0.77,0.99 -2.31,2.34 -2.69,3.34 -0.45,1.19 0.23,3.35 1.96,3.35zm-49.18 29.23c0,4.87 6.03,2.85 6.03,-0.46 0,-3.5 -6.03,-2.18 -6.03,0.46zm27.84 -65.42c0,1.99 1.71,3.08 3.71,3.25 4,-3.8 0.49,-6.5 -0.93,-6.5 -1.31,0 -2.78,1.93 -2.78,3.25zm-19.49 60.31c0,1.25 0.22,1.28 0.46,2.32 2.58,0.6 2.36,1.04 4.61,-0.96 3.41,-3.03 -0.21,-5.07 -0.43,-5.07 -1.91,0 -4.64,2.27 -4.64,3.71zm19.49 -50.57c0,5.93 5.57,5.3 5.57,0.46 0,-4.62 -5.57,-4.01 -5.57,-0.46zm-12.06 43.15c0,4.13 6.5,2.07 6.5,-1.86 0,-1.54 -1.74,-2.23 -2.78,-2.78 -1.54,0.81 -3.71,2.44 -3.71,4.64zm9.28 -19.95c0,3.92 5.57,4.25 5.57,-2.78 0,-1.64 -5.57,-3.86 -5.57,2.78zm-3.71 10.67c0,3.41 6.03,3.41 6.03,-2.78 0,-2.44 -6.03,-3.23 -6.03,2.78zm5.57 -21.34c0,3.58 5.57,4.15 5.57,-1.39 0,-4.36 -5.57,-4.75 -5.57,1.39zm-40.83 -17.17c4.38,-0.36 4.61,-1.39 10.36,1.23 1.74,0.79 4.01,1.58 5.87,2.01 -0.18,-8.23 -15.49,-12.22 -16.24,-3.25zm0 -9.28c4.34,-2.3 4.7,-3.61 10.83,-0.62 1.68,0.82 2.66,1.5 4.95,1.55 -2.09,-8.95 -15.77,-12.65 -15.77,-0.93zm15.77 26.91c0,3.09 1.82,3.33 4.18,2.78 -0.21,2.55 -2.5,7.93 -3.62,9.84 -0.83,1.43 -1.52,2.87 -2.41,4.09 -0.97,1.34 -5.95,6.03 -0.01,7.41 3.03,-2.03 5.06,-5.44 6.81,-8.97 1.51,-3.05 4.01,-7.59 4.33,-11.44 1.52,1.01 1.31,1.86 3.25,1.86 1.37,0 2.28,-1.53 2.19,-2.7 -0.06,-0.77 -1.08,-2.52 -1.57,-3.48 -2.92,-5.76 -1.33,-2.56 -3.87,-6.34 -3.19,0.74 -9.28,6.18 -9.28,6.96zm116.91 -39.9c5.03,0 7.78,-0.2 11.96,4.28 6.3,6.75 2.82,17.37 -3.59,20.32 -3.42,1.58 -4.78,1.38 -8.36,1.38 0.11,-5.06 0.93,-8.23 0.93,-17.17 0,-3.67 -0.84,-5.79 -0.93,-8.82zm-122.02 -31.55c1.61,-2.4 5.51,-5.52 7.95,-7.36 8.89,-6.71 23.36,-11.66 35.66,-11.66 12.4,0 22.24,0.79 33.25,5.72 6.11,2.74 9.92,4.62 15.14,8.52 1.54,1.15 3.29,2.43 4.63,3.72 12.1,11.66 21.22,24.69 21.22,43.27 0,11.63 -1.62,20.44 -3.98,29.88l-4.52 12.64c-2.53,5.65 -3.19,6.21 -5.87,11.29 -11.45,0 -29.02,-9.45 -33.13,-22.09 -1.98,-6.1 2.51,-3.38 2.51,-16.41 0,-5.36 -2.88,-8.83 -6.46,-10.7 -4.21,-2.19 -9.79,-1 -13.49,0.96 -4.06,-7.68 -11.31,-14.08 -18.03,-19.55 -8.86,-7.22 -19.24,-14.13 -28.64,-21.47 -2.38,-1.86 -4.84,-4.16 -6.22,-6.77zm-36.65 80.26c0,6.06 7.7,7.85 10.67,9.28 -0.47,2.02 -6.67,10.54 1.86,12.53 -1.41,2.11 -3.25,2.56 -3.25,6.03 0,3.01 2.59,4.52 5.1,5.1 -0.23,2.71 -6.35,16.97 10.65,21.37 8.57,2.22 18.68,-0.49 26.47,-0.49 5.99,0 17.17,21.57 17.17,31.55 0,4.43 0.33,7.63 -2.91,11.47 -1.21,1.44 -4.98,3.6 -4.98,5.23 0,1.5 2.02,2.78 3.71,2.78l90.93 0c1.7,0 3.71,-1.28 3.71,-2.78 0,-1.3 -5.43,-5.93 -8.36,-9.74 -0.9,-1.17 -1.58,-2.14 -2.5,-3.53 -2.88,-4.34 -6.71,-10.37 -8.94,-15.19 -3.4,-7.36 -12.21,-27.16 -12.21,-36.5 0,-2.67 6.26,-4.68 11,-10.34 3.61,-4.32 5.94,-7.41 8.81,-12.53 3.92,-7.02 10.81,-24.1 10.81,-31.87 2.63,0.06 2.98,1.04 8.37,-0.44 16.82,-4.64 19.13,-33.12 -4.46,-35.97 -2.3,-0.28 -1.92,0.23 -4.37,0.23 -1.1,-4.73 -3.86,-9.75 -6.01,-13.48 -8.29,-14.41 -21.32,-25.24 -36.81,-31.39 -25.05,-9.96 -56.8,-7.62 -76.07,9.5 -14.07,12.51 -19.57,28.15 -21.24,47.42 -1.61,18.58 1.5,17.27 -8.87,30.1l-4.45 5.29c-1.36,1.39 -3.83,3.93 -3.83,6.37z"/>
 </g>
</svg>
