<?xml version="1.0" encoding="UTF-8"?>
<!DOCTYPE svg PUBLIC "-//W3C//DTD SVG 1.1//EN" "http://www.w3.org/Graphics/SVG/1.1/DTD/svg11.dtd">
<!-- Creator: CorelDRAW 2020 (64 Bit) -->
<svg xmlns="http://www.w3.org/2000/svg" xml:space="preserve" width="116.918mm" height="135.45mm" version="1.1" style="shape-rendering:geometricPrecision; text-rendering:geometricPrecision; image-rendering:optimizeQuality; fill-rule:evenodd; clip-rule:evenodd"
viewBox="0 0 2366.97 2742.13"
 xmlns:xlink="http://www.w3.org/1999/xlink"
 xmlns:xodm="http://www.corel.com/coreldraw/odm/2003">
 <defs>
  <style type="text/css">
   <![CDATA[
    .fil0 {fill:#616A5E}
   ]]>
  </style>
 </defs>
 <g id="Camada_x0020_1">
  <metadata id="CorelCorpID_0Corel-Layer"/>
  <g id="_3022310720208">
   <path class="fil0" d="M101.49 637.33c-23.43,-0.52 -20.11,-5.36 -58.91,-5.36 -43.46,0 -84.37,85.69 42.85,85.69 0,126.22 -2.3,205.35 57.09,323.17 24.51,48.61 48.18,90.69 83.35,130.88 15.57,17.8 15.77,24.93 36.3,38.68l-47.43 123.95c-44.2,117.89 -83.4,300.03 -96.34,428.52 -5.6,55.65 -1.65,108.13 -6.48,164.91 -9.15,107.63 10.06,281.32 32.68,390.98 17.72,85.89 85.43,39.22 85.43,16.33 0,-27.48 -7.72,-50.68 -12.29,-78.75 -13.58,-83.36 -25.19,-177.2 -25.19,-264.01l16.14 32.06c31.39,35.3 71.83,5.16 72.62,-26.44l-29.5 -139.86c-7.85,-29.15 -17.72,-37.14 -53.91,-37.14 0,-28.52 4.83,-29.96 5.36,-53.56 67.41,0 226.91,32.24 288.49,54.28 83.91,30.04 162.66,67.73 233.17,114.95 71.74,48.04 136.56,92.85 207.79,140.33 37.04,24.69 143.6,102.56 181.34,118.58 34.82,14.78 26.47,-5.81 26.47,123.49 0,200.84 -80.33,365.53 -80.33,374.9 0,25.91 16.94,42.85 42.85,42.85 34.74,0 39.65,-25.49 49.82,-51.94 7.76,-20.16 23.41,-61.01 25.16,-81.96l10.71 0c1.69,20.36 16.03,57.97 23.66,78.1 10.47,27.62 15.4,55.79 51.32,55.79 78.37,0 22.56,-93.05 5.99,-145.24 -47.36,-149.1 -43.48,-238.66 -43.48,-390.33 39.41,-3.28 265.56,-166.92 313.8,-200.35 30.99,-21.48 93.23,-52.07 93.23,-83.51 0,-22.92 -16.51,-42.85 -37.49,-42.85 -29.47,0 -118.4,70.18 -149.94,91.07 -45.14,29.9 -223.77,160.65 -257.09,160.65 -60.46,0 -127.64,-63.92 -176.72,-96.42 -18.43,-12.21 -35.3,-23.51 -54.64,-36.4 -72.06,-48.04 -137.79,-94.35 -210.93,-142.54 -112.63,-74.22 -245.58,-119.28 -378.44,-146.42 -49.83,-10.18 -107.2,-11.83 -154,-22.73 5.39,-64.79 54.01,-253.79 77.24,-313.73l35.23 -98.66c76.7,51.36 134.33,83.38 239.88,108.24l220.01 37.58c27.21,3.91 48.24,2.57 59.5,-23.29 9.47,-21.74 -2.48,-43.75 -21.19,-53.02 -26.25,-13.02 -224.54,-22.72 -353.54,-80.28 -26.26,-11.72 -92.59,-49.66 -107.17,-69.57 5.23,-22.43 37.05,-65.02 13.51,-93.84l-29.57 -13.27c-32.76,0 -37.01,21.7 -48.2,42.85 -35.3,-23.64 -76.71,-105.31 -94.15,-146.86 -36.97,-88.1 -39.74,-149.49 -39.74,-249.46 33.99,0.76 68.5,10.71 107.11,10.71 -12.65,18.89 -26.78,19.72 -26.78,42.85 0,27.81 29.59,70.16 84.35,20.08 13.01,-11.89 19.7,-15.23 32.12,-26.79 62.39,-58.02 78.26,-44.83 7.46,-138.65 -16.88,-22.37 -30.72,-58.16 -65.02,-58.16 -22.5,0 -34.21,11.21 -39.71,30.3 -7.03,24.39 8.44,35.34 18.28,50.03 -32.43,-2.7 -65,-10.71 -101.76,-10.71 6.59,-13.73 26.01,-79.01 58.91,-144.61 73.38,-146.31 155.32,-280.96 155.32,-460.59 0,-21.46 -15.5,-38.11 -33.33,-42.85l-20.06 0c-17.49,4.97 -32.51,24.07 -32.48,64.1 0.2,209.71 -197.92,443.61 -208.71,573.23z"/>
   <path class="fil0" d="M1965.28 37.49c0,135.77 40.29,236.19 85.69,326.7 31.67,63.14 90.69,176.17 115.65,243.18 5.83,15.66 6.98,28.34 12.89,40.67 -32.43,0 -66.98,8.26 -96.4,10.71 8.9,-13.29 23.38,-23.98 19.31,-46.11 -6.39,-34.71 -49.85,-51.16 -78.52,-13.11 -96.63,128.22 -91.93,112.22 -22.31,172.88 13.16,11.46 18.69,14.07 31.97,26.95 52.03,50.46 87.05,18.91 87.05,-22.78 0,-13.63 -18.21,-24.69 -26.78,-37.49 36.76,0 69.33,-8.01 101.76,-10.71 0,95.12 -6.82,161.67 -32.07,230.36 -11.5,31.28 -64.78,150.71 -101.83,160.6 -13.04,-55.97 -80.33,-45.43 -80.33,0 0,34.44 15.14,42.68 21.42,69.62 -128,85.71 -153.92,97.13 -328.99,126.25 -257.16,42.77 -351.66,39.78 -602.9,39.78 -47.23,0 -133.89,-21.51 -133.89,32.13 0,44.85 35.66,48.42 80.44,48.1l128.43 5.46c213.73,0 531.25,-21.05 723.74,-84.97 43.31,-14.38 93.04,-38.16 130.04,-62.77 14.88,-9.89 23.44,-19.06 40.62,-23.64 4.78,20.53 10.02,28.89 16.74,47.53l48.66 149.5c13.26,52.64 42.74,163.34 47.07,215.36 -38.61,3.21 -86.92,11.09 -127.71,16.9 -65.59,9.34 -170.8,37.79 -231.96,62.61 -38.42,15.59 -84.86,25.6 -84.86,65.1 0,29.96 25.33,37.49 48.2,37.49l188.51 -63.21c36.9,-9.17 60.94,-13.98 103.02,-20.16 37.91,-5.57 76.77,-13.03 115.51,-13.03l6.34 53.42c-62.57,0.24 -52.08,32.56 -68.47,104.03 -3.87,16.89 -41.58,115.69 24.64,115.69 12.98,0 25.67,-8.95 32.06,-16.14l16.14 -32.06c0,62.58 -8.21,145.47 -16.36,203.23 -21.37,151.47 -60.62,297.24 -110.13,441.54 -10.25,29.87 -22.35,57.94 11.07,76.36 58.74,32.38 75.77,-76.79 87.96,-116.61 96.2,-314.31 107.79,-375.5 107.79,-716.98 0,-205.2 -53.98,-407.6 -119.83,-592.48 -5.78,-16.22 -8.7,-24.14 -14.78,-38.78 -5.67,-13.65 -11.61,-22.13 -15.35,-38.2 18,-26.89 38.13,-43.43 61.07,-78.18 100.34,-151.95 110.31,-228.16 110.31,-414.55 137.23,0 89.52,-85.69 48.2,-85.69 -35.96,0 -37.22,5.36 -64.27,5.36 -10.78,-129.48 -209.67,-369.88 -208.84,-567.74 0.19,-44.9 -14.27,-64.56 -31.36,-69.59l-19.84 0c-18.32,4.78 -34.52,21.4 -34.52,37.49z"/>
   <path class="fil0" d="M235.39 2452.92c-79.49,0 -29.73,100.9 -20.7,127.82 18.48,55.09 28.11,133.03 70.35,137.73 25.86,2.88 48.66,-21.59 44.65,-49.22l-49.17 -154.33c-7.66,-27.49 -13.04,-62 -45.12,-62z"/>
   <path class="fil0" d="M572.8 455.24c56.01,0 42.85,-64.17 42.85,-128.54 0,-69.07 -1.21,-101.76 -53.56,-101.76 -52.24,0 -28.13,106.91 -31.03,151.78 -0.83,12.92 -2.47,26.76 -0.02,39.8 3.83,20.41 14.71,38.72 41.76,38.72z"/>
   <path class="fil0" d="M1847.46 749.8c72.43,0 23.72,-100.19 6.06,-182.79 -15.93,-74.49 -84.31,-44.58 -85.41,-4.99 -0.28,10.06 11.89,62.47 15.01,75.38 14.69,60.8 22.41,112.4 64.34,112.4z"/>
   <path class="fil0" d="M513.89 749.8c32.87,0 40.76,-9.82 49.53,-41.52 17.45,-63.11 66.5,-178.87 -2.77,-186.54 -50.86,-5.63 -50.35,68.68 -62.14,110.92 -10.99,39.38 -30.4,72.27 -13.67,97.6 5.86,8.88 17.53,19.54 29.04,19.54z"/>
   <path class="fil0" d="M1751.05 326.7c0,64.36 -13.17,128.54 42.85,128.54 58.73,0 40.17,-78.95 40.2,-91.05 0.15,-68.35 26.11,-139.25 -45.55,-139.25 -39.43,0 -37.49,74.53 -37.49,101.76z"/>
   <path class="fil0" d="M2002.77 990.81c0,-25.26 -38.67,-106.05 -51.64,-135.81 -39.41,-90.46 -88.18,-36.83 -90.6,-12.84 -0.32,3.18 49.65,168.92 87.86,182.25 31.05,10.84 54.38,-18.89 54.38,-33.6z"/>
   <path class="fil0" d="M363.93 985.45c0,30.56 30.63,45.08 50.39,40.21 27.61,-6.8 31.29,-28.53 40.83,-50.75 9.33,-21.73 51.08,-111.95 51.16,-128.91 0.13,-24.72 -46.65,-82.48 -88.96,5.43 -8.48,17.61 -53.42,118.05 -53.42,134.03z"/>
   <path class="fil0" d="M2002.77 2260.11c0,30.24 19.49,42.85 48.2,42.85 29.64,0 40.7,-52.81 50.46,-78.08 8.94,-23.15 29.87,-72.89 29.87,-98.66 0,-17.71 -24.94,-37.49 -42.85,-37.49 -35.07,0 -44.87,46.04 -54.24,74.3 -4.96,14.96 -31.45,85.55 -31.45,97.09z"/>
   <path class="fil0" d="M235.39 2126.22c0,11.2 41.66,176.74 80.33,176.74 84.55,0 32.27,-93.14 16.75,-139.93 -9.37,-28.26 -19.17,-74.3 -54.24,-74.3 -17.91,0 -42.85,19.78 -42.85,37.49z"/>
   <path class="fil0" d="M1927.79 2554.68c37.4,0 46.4,-39.24 60.7,-67.84 13.84,-27.68 41.06,-70.22 41.06,-98.19 0,-34 -33.1,-47.33 -56.86,-35.94 -25.47,12.21 -32.2,43.47 -43.35,69.62l-37.32 70.24c-13.16,29.71 1.07,62.1 35.77,62.1z"/>
   <path class="fil0" d="M337.15 2388.65c0,27.82 25.63,67.32 39.27,94.62 14.6,29.21 24.65,71.41 62.49,71.41 33.49,0 47.82,-30.85 37.42,-58.26l-38.97 -74.09c-10.73,-25.17 -17.11,-54.18 -39.84,-67.77 -24.6,-14.71 -60.37,-0.97 -60.37,34.09z"/>
   <path class="fil0" d="M1820.68 160.67c39.44,0 43.92,-51.26 52.94,-80.99 10.26,-33.82 20.9,-79.68 -31.51,-79.68 -57.77,0 -63.23,124.32 -61.06,130.27 4.85,13.31 24.28,30.41 39.64,30.41z"/>
   <path class="fil0" d="M546.02 160.67c14.99,0 32.79,-16.12 37.98,-26.75 5.4,-11.05 -2.44,-133.93 -59.4,-133.93 -52.42,0 -41.78,45.86 -31.52,79.68 9.02,29.73 13.49,80.99 52.94,80.99z"/>
   <path class="fil0" d="M1815.32 2742.13c32.62,0 33.51,-13.97 54.6,-47.16 10.53,-16.58 31.1,-38.04 31.1,-59.95 0,-22.92 -16.51,-42.85 -37.49,-42.85 -35.76,0 -54.96,44.58 -69.99,69.27 -28.1,46.15 -20.81,80.69 21.79,80.69z"/>
   <path class="fil0" d="M465.68 2635.01c0,16.9 52.46,107.11 74.98,107.11 113.68,0 -0.26,-149.96 -32.13,-149.96 -25.91,0 -42.85,16.94 -42.85,42.85z"/>
   <path class="fil0" d="M1140.5 996.16c0,32.96 -3.01,74.98 42.85,74.98 60.51,0 57.57,-123.18 0,-123.18 -27.64,0 -42.85,22.3 -42.85,48.2z"/>
  </g>
 </g>
</svg>
