<?xml version="1.0" encoding="UTF-8"?>
<!DOCTYPE svg PUBLIC "-//W3C//DTD SVG 1.1//EN" "http://www.w3.org/Graphics/SVG/1.1/DTD/svg11.dtd">
<!-- Creator: CorelDRAW 2020 (64 Bit) -->
<svg xmlns="http://www.w3.org/2000/svg" xml:space="preserve" width="144.51mm" height="135.809mm" version="1.1" style="shape-rendering:geometricPrecision; text-rendering:geometricPrecision; image-rendering:optimizeQuality; fill-rule:evenodd; clip-rule:evenodd"
viewBox="0 0 2078.03 1952.9"
 xmlns:xlink="http://www.w3.org/1999/xlink"
 xmlns:xodm="http://www.corel.com/coreldraw/odm/2003">
 <defs>
  <style type="text/css">
   <![CDATA[
    .fil0 {fill:#616A5E}
   ]]>
  </style>
 </defs>
 <g id="Camada_x0020_1">
  <metadata id="CorelCorpID_0Corel-Layer"/>
  <g id="_3022306319952">
   <path class="fil0" d="M405.86 602.25c0,21.96 5.55,38.47 10.58,58.42 5.01,19.89 7.44,32.65 10.92,54.02 47.84,293.86 -80.71,301.73 -92.37,425.51l-1.83 212.81c0.98,18.46 1.21,8.52 0.27,25.01 -8.56,149.93 -52.66,174.76 -76.66,304.9 -7.05,38.25 -9.78,69.77 -15.62,110.2 -2.96,20.49 -0.23,38.77 -1.9,58.98 -1.98,24.01 -16.44,87.01 19.75,98.64 13.73,4.41 33.89,-2.59 39.51,-19.08 1.54,-4.53 5.67,-112.63 5.75,-124.13 1.2,-172.35 93.48,-277.25 93.48,-417.91 0,-31.36 -4.35,-86.87 -0.89,-114.26 9.47,-75.04 -8.88,-121.31 11.62,-163.18 13.12,-26.8 39.9,-61.24 46.1,-87.84 12.89,9.44 14.89,26.58 20.77,44.17 83.54,249.82 -0.48,279.02 -0.48,398.22 0,54.76 4.58,92.55 21.83,144.6 6.57,19.81 11.62,26.79 5.03,44.29 -12.46,33.03 -2.49,77.48 -7.53,114.55 -6.87,50.54 -66.28,191.77 3.64,182.26 33.83,-4.6 41.92,-91.15 48.05,-122.45 3.69,-18.8 -2.47,-18.71 14.21,-22.32 49.16,-10.64 172.32,24.06 180.1,-26.18 2.62,-16.92 -8.41,-34.7 -29.93,-34.7l-154.23 0c0,-16.67 -9.61,-73.06 16.23,-73.06l929.43 0c21.52,0 12.18,56.99 12.18,73.06l-641.27 0c-31.32,0 -31.21,49.42 -6.18,58.95 18.53,7.05 630.03,1.93 655.57,1.93 15.03,31.32 20.21,123.81 50.58,140.57 25.59,14.13 46.94,-9.04 43.95,-32.17 -3.38,-26.21 -13.38,-51.79 -19.83,-77.57 -6.07,-24.25 -16.77,-50.21 -17.95,-75.4 -1.49,-31.79 3.26,-68.76 -3.19,-94.42 -7.31,-29.08 3.84,-49.15 11.38,-76.12 23.19,-82.9 20.07,-130.67 -0.82,-214.29 -5.94,-23.79 -10.59,-69.82 -39.77,-69.82 -69.63,0 -4.06,113.52 -4.06,182.64 0,44.69 -20.88,75.94 -24.35,117.7l-957.84 0c-1.74,-20.94 -9.54,-35.14 -14.5,-54.5 -17.56,-68.47 -2.85,-115.35 12.93,-178.42 61.36,-245.25 -55.25,-297.41 -55.25,-517.93 78.19,82.43 138.42,54.41 236.51,37.64l217.11 -42.64c34.45,-7.14 64.75,-21.84 82.11,-47.77 13.32,8.92 20.55,20.91 35.8,29.14 49.57,26.75 203.16,49.1 266.91,61.84 77.47,15.49 141.01,36.11 208.18,-14.37 9.6,-7.21 16.05,-13.9 24.85,-19.79 0,161.7 -60.88,222.71 -60.88,296.28 0,29.87 47,62.38 67.4,-21.89 5.7,-23.57 26.08,-100.24 42.19,-112.04 6.06,26.02 32.47,60.49 44.75,85.13 22.33,44.83 3.84,91.05 12.51,162.2 8.25,67.62 -15.86,128.36 18.29,233.15 8.73,26.8 19.68,83.67 50.26,83.67 60.97,0 15.13,-82.82 8.07,-109.53 -15.65,-59.2 -12.28,-129.08 -12.03,-190.9 0.1,-23.56 -3.15,-29.74 -4.17,-48.59 -7.74,-143.25 27.38,-73.2 -47.35,-212.4 -62.64,-116.69 -63.57,-186.78 -43.12,-312.38 6.3,-38.7 21.49,-72.99 21.49,-112.44 0,-13.68 -49.42,-67.17 -72.06,41.58l-16.91 96.73c-3.24,15.72 -10.5,21.59 -21.86,34.96 -9.6,11.3 -16.43,19.79 -26.11,30.71 -27.24,30.7 -38.29,43.6 -86.28,43.6 -40.04,0 -230.22,-42.41 -273.62,-51.07 -46.19,-9.22 -93.31,-16.92 -99.44,-62.9 -7.43,-55.68 20.37,-133.6 -40.92,-133.6 -39.96,0 -20.23,106.57 -27.23,135.12 -5.36,21.84 -19.77,34.35 -36.68,44.49 -28.56,17.11 -163.95,36.02 -200.24,43.28 -163.17,32.63 -169.18,57.14 -266.86,-65.27 -15.04,-18.84 -11.63,-40.19 -15.69,-65.48 -3.23,-20.12 -5.93,-29.05 -9.65,-47.17 -23.25,-113.17 -72.73,-58.36 -72.73,-44.97z"/>
   <path class="fil0" d="M1286.59 29.99c0,26.73 22.16,31.46 40.58,40.59 18.97,9.41 37.86,18.97 56.83,28.4 52.25,25.98 108.52,57.39 154.22,93.36 62.83,49.45 95.3,47.94 174.01,77.63 74.05,27.93 125.42,101.92 144.26,188.55 18.23,83.84 2.69,147.45 28.24,223.39 26.33,78.27 37.58,114.47 47.19,204.45 19.29,180.63 60.99,176.79 82.38,335.68 4.33,32.15 -1.47,42.99 -1.27,78.25 0.31,54.07 -2.12,111.13 -7.47,158.93 -1.49,13.27 -0.1,26.77 -0.47,40.12l-8.48 117.33c-5.46,71.28 -32.23,261.25 -32.23,304.64 0,30.1 39.16,42.94 55.47,18.96 11.5,-16.91 30.29,-235.72 36.18,-276.36 9.7,-66.99 22,-375.44 22,-444.75 0,-29.79 -12.93,-80.6 -20.76,-105.05 -10.48,-32.73 -22.12,-62.08 -33.53,-96.35 -12.93,-38.83 -17.95,-55.4 -23.55,-102.27 -17.85,-149.36 -22.5,-139.56 -58.53,-262.1 -24.53,-83.45 4.2,-166.45 -44.86,-275.77 -94.83,-211.28 -221.39,-147.71 -329.21,-243.06 -10.8,-9.55 -25.73,-18.68 -38.22,-26.72l-122.35 -68.4c-15.89,-7.88 -28.61,-14.27 -43.3,-21.64 -23.77,-11.93 -77.12,-38.51 -77.12,12.18z"/>
   <path class="fil0" d="M-0 1219.17l4.65 198.28c6.38,56.82 10.32,193.98 16.75,243 3.65,27.85 26.42,262.3 35.39,277.16 13.97,23.14 56.85,17.97 56.85,-16.29 0,-43.81 -8.07,-85.74 -13.96,-128.1l-23.17 -265c-7.81,-71.37 -7.25,-201.72 -15.18,-273.26 -10.6,-95.56 80.72,-237.08 80.72,-352.37 0,-28.86 -53.7,-43.51 -63.38,5.62 -11.99,60.9 2.62,28.49 -23.38,106.49 -11.59,34.76 -22.03,61.39 -33.52,96.36 -8.43,25.66 -21.77,77.64 -21.77,108.11z"/>
   <path class="fil0" d="M142.05 764.6c28.72,0 31.55,-23.27 39.06,-46.17 45.87,-139.75 19.62,-83.32 34.67,-225.08 9.91,-93.38 60.06,-179.53 130.43,-214.55 35.52,-17.67 86.57,-30.83 124.59,-45.87 62.87,-24.88 58.97,-38.03 106.29,-68.23 47.47,-30.3 117.28,-65.94 168.34,-91.42 20.62,-10.29 46,-15.73 46,-43.29 0,-65.8 -92.52,-4.44 -115,6.76 -61.12,30.47 -123.85,64.05 -176.62,107.49 -19.76,16.26 -33.89,22.77 -60.27,33.08 -87.54,34.22 -169.92,46.07 -230.89,146.57 -80.51,132.7 -52.98,254 -68.15,313.36 -12.28,48.03 -56.97,127.36 1.54,127.36z"/>
   <path class="fil0" d="M763.03 1064.94c-27.04,0 -36.37,-22.08 -43.61,-29.44 -29.52,-30.01 -72.24,6.34 -44.8,44.8 4.11,5.76 9.81,13.23 14.74,17.73 53.58,48.89 105.48,26.05 155.69,12.39 41.15,-11.19 172.31,-35.32 185.86,-86.07 49.13,13.12 -32.35,26.78 190.73,85.25 48.78,12.79 107.57,37.49 157.41,-9.04 62.86,-58.69 2.16,-76.21 -3.16,-76.21 -26.07,0 -31.07,40.59 -69,40.59 -20.11,0 -69.4,-16.75 -90.7,-22.94 -29.97,-8.71 -62.31,-15.57 -88.57,-25.07 -26.6,-9.62 -44.77,-31.81 -54.42,-59.22 -13.16,-37.37 8.89,-79.46 -42.3,-79.46 -33.92,0 -26.68,63.91 -32.79,80.85 -23.18,64.18 -75.08,63.76 -144.07,83.21 -22.59,6.37 -68.58,22.64 -91,22.64z"/>
   <path class="fil0" d="M836.08 1259.76c-19.82,0 -25.71,-23.16 -43.97,-29.38 -17.44,-5.94 -41.26,9.61 -41.26,29.38 0,28.85 39.62,60.88 93.35,60.88 16.44,0 138.8,-35.49 155.41,-43.46 19.32,-9.28 24.6,-19.68 39.4,-29.59 24.95,37.26 85.43,47.05 138.02,60.86 41.77,10.96 74.94,24.54 115.59,-6.12 56.33,-42.48 12.06,-91.83 -21.73,-66.58 -8.28,6.19 -0.64,0.1 -8.02,8.41 -17.57,19.78 -25.5,16.66 -53.89,8 -52.81,-16.1 -110.21,-21.54 -131.28,-55.45 -22.11,-35.58 8.04,-83.06 -46.81,-83.06 -46.2,0 -6.36,83.93 -62.39,108.07 -8.59,3.7 -129.37,38.04 -132.42,38.04z"/>
   <path class="fil0" d="M888.84 1426.16c-10.99,-7.36 -21.81,-24.35 -36.53,-24.35 -31.65,0 -51.15,49.32 2.47,78.71 22.51,12.33 41.05,8.94 63.35,3.4 21.07,-5.24 41.29,-11.76 62.59,-18.64 10.84,-3.5 21.49,-6.65 29.98,-10.6 13.09,-6.08 13.81,-9.34 24.25,-16.34 18.03,4.81 15.53,14.98 51.23,25.89 22.63,6.92 42.74,12.01 62.83,18.36 103.59,32.75 130.14,-84.75 69.1,-79.64 -19.75,1.65 -24.85,23.23 -32.99,23.23 -10.04,0 -96.64,-26.85 -102.43,-31.5 -28.86,-23.2 3.1,-85.55 -44.26,-87.99 -49.18,-2.54 -25.11,63.17 -46.81,84.28 -11.79,11.47 -81.68,30.3 -102.78,35.22z"/>
   <path class="fil0" d="M1797.98 1702.15c-35.46,0 -33.39,29.05 -29.72,53.95 3.91,26.52 2.88,47.95 6.48,74.81 6.67,49.69 -13.28,126.79 38.43,121.14 43.14,-4.72 25.54,-72.96 25.53,-128.28 -0,-24.6 -5.03,-52.35 -7.47,-73.7 -3.17,-27.76 -4.01,-47.92 -33.25,-47.92z"/>
   <path class="fil0" d="M1030.9 1560.1c51.97,0 32.82,-56.82 8.12,-56.82 -44.94,0 -33.94,56.82 -8.12,56.82z"/>
  </g>
 </g>
</svg>
