<?xml version="1.0" encoding="UTF-8"?>
<!DOCTYPE svg PUBLIC "-//W3C//DTD SVG 1.1//EN" "http://www.w3.org/Graphics/SVG/1.1/DTD/svg11.dtd">
<!-- Creator: CorelDRAW 2020 (64 Bit) -->
<svg xmlns="http://www.w3.org/2000/svg" xml:space="preserve" width="135.467mm" height="135.467mm" version="1.1" style="shape-rendering:geometricPrecision; text-rendering:geometricPrecision; image-rendering:optimizeQuality; fill-rule:evenodd; clip-rule:evenodd"
viewBox="0 0 1842.66 1842.66"
 xmlns:xlink="http://www.w3.org/1999/xlink"
 xmlns:xodm="http://www.corel.com/coreldraw/odm/2003">
 <defs>
  <style type="text/css">
   <![CDATA[
    .fil0 {fill:#616A5E}
   ]]>
  </style>
 </defs>
 <g id="Camada_x0020_1">
  <metadata id="CorelCorpID_0Corel-Layer"/>
  <path class="fil0" d="M118.62 661.05c0,7.68 -0.01,15.36 0,23.03 0.01,8.91 -1.11,14.51 -1.2,21.84 -0.14,11.38 0.9,23.2 0.01,34.56 -0.8,10.25 -3.55,13.5 -3.43,32.27l-2.17 20.86c-2.16,10.96 0.56,11.09 -3.73,30.82 -0.73,3.33 -0.97,7.01 -0.98,11.69 -0.02,10 -3.29,10.24 -3.49,19.54 -0.18,8.16 -2.84,12.11 -3.4,19.64 -0.96,12.93 -2.65,11.01 -3.54,19.49l-6.49 31.51c-0.27,0.86 -0.54,1.85 -0.73,2.73 -0.38,1.78 -0.36,2.36 -0.71,5.05 -0.82,6.25 -1.03,4.11 -2.57,8.95 -1.56,4.89 -0.99,7.08 -3.42,13.85 -1.52,4.23 -0.72,6.23 -3.45,13.82 -1.42,3.94 -0.4,5.76 -1.54,9.98l-5.82 18.36c-1.17,4.27 -0.6,5.04 -2.2,9.32 -1.79,4.78 -1.22,3.57 -2.3,9.22l-9.68 36.39c-2.13,5.17 -0.62,5.53 -1.67,11 -0.51,2.67 -2.37,5.55 -2.86,8.65 -0.84,5.28 0.29,5.46 -1.4,10.12l-5.81 28.74c-0.43,7.99 -2.89,10.61 -3.52,19.51 -0.28,3.92 -1.24,7.23 -2.26,10.41 -1.84,5.78 -1.34,13.92 -2.44,20.59l-8.03 62.22c-3.46,12.25 -0.28,31.18 -2.99,44.23 -3.73,17.97 -4.39,128.89 -0.84,147.61 2.75,14.52 0.47,29.64 3.13,45.24 2.33,13.7 1.65,16.72 3.04,29.21 1.19,10.73 2.68,14.32 3.58,28.67l11.64 68.97c1.65,4.45 1.64,8.75 2.43,13.69 0.9,5.63 2.64,4.76 3.22,12.91 0.5,7 2.21,7.38 3.1,11.87l8.94 39.42c0.93,3.14 1.06,2.37 2,6.06l4.91 19.28c0.83,2.86 1.6,2.92 2.35,5.71 0.96,3.57 0.55,5.86 2.18,9.34 1.69,3.61 0.48,-0.01 1.42,3.18l2.81 8.7c0.11,0.24 0.26,0.54 0.37,0.78 0.56,1.27 8.87,20.04 14.43,29.33 8.97,15 20.03,28.11 32.22,40.34l1.15 1.15c7.27,7.33 16.04,14.46 24.89,20.03l17.36 10.27c1.48,0.73 1.72,0.68 3.2,1.41 0.94,0.46 1.85,1.03 2.22,1.23l25.94 10.91c4.18,1.64 8.1,2.05 12.55,3.58l19.6 4.3 9.19 0c203.55,-1 407.14,0 610.69,0l2 0c40.36,-0.01 80.88,-0.34 121.23,0l8.89 0c6.42,-0.26 2.24,-1.47 9.55,-2.3l39.97 -11.85c2.39,-0.96 0.43,-0.13 3.14,-1.47 2.3,-1.13 3.33,-1.47 5.55,-2.51l25.86 -15.6c0.2,-0.14 0.48,-0.33 0.67,-0.48l19.72 -15.99 28.32 -32.72 10.88 -17.92c1.03,-1.88 1.78,-3.61 2.68,-5.38l7.46 -16.72c6.76,-17.97 12.41,-40.94 12.36,-60.19l-0 -290.22c1.63,-0.13 9.2,-1.26 10.87,-1.8l10.69 -3.13c4.08,-0.97 3.95,-2.02 9.54,-3.13 5.73,-1.14 5.39,-2.02 10.47,-3.35 10.37,-2.72 18.68,-6.45 28.59,-10.57l9.81 -4.01c2.71,-0.88 2.07,-0.52 4.25,-1.51l84.59 -47.85c0.19,-0.14 0.46,-0.36 0.65,-0.5l8.17 -5.65c1.68,-1.3 1.83,-1.55 3.84,-3.07l21.35 -16.65c0.17,-0.16 0.42,-0.4 0.6,-0.55l14.42 -12.07c2.81,-2.34 4.33,-4.3 7.03,-6.79l5.59 -4.77c0.17,-0.16 0.41,-0.41 0.58,-0.57 0.17,-0.17 0.4,-0.41 0.57,-0.58 0.81,-0.81 0.78,-0.8 1.71,-1.74 0.17,-0.17 0.41,-0.41 0.58,-0.58l2.89 -2.87c0.17,-0.17 0.41,-0.4 0.58,-0.57l1.15 -1.16c1.38,-1.43 1.32,-1.46 2.74,-3.02 1.08,-1.19 0.76,-0.86 1.66,-1.79l4.62 -4.59c0.17,-0.17 0.41,-0.41 0.58,-0.57 0.5,-0.5 1.55,-1.54 1.73,-1.72l26.58 -31.01c1.07,-1.4 1.47,-1.79 2.56,-3.2 1.46,-1.9 1.57,-2.33 2.86,-4.05l17.78 -24.83c0.14,-0.21 0.33,-0.48 0.46,-0.69l15.14 -24.02c0.13,-0.21 0.31,-0.5 0.44,-0.71 0.13,-0.22 0.3,-0.51 0.43,-0.72 0.13,-0.22 0.29,-0.51 0.42,-0.73l2.62 -4.29c1.71,-2.83 2.97,-5.53 4.36,-8.31l42.77 -104.64 6.9 -26.5c0.84,-2.52 0.88,-2.93 1.07,-5.84 0.69,-10.32 3.31,-12.81 3.49,-23 0.11,-6.46 1.26,-5.95 2.64,-11.18 1.58,-5.97 0.59,-18.8 1.65,-24.84 4.77,-27.26 2.66,-57.07 2.66,-84.87 0,-8.29 -2.87,-10.67 -3.42,-18.47 -0.44,-6.25 -2.91,-11.99 -5.52,-17.51l-5.4 -11.88c-0.12,-0.23 -0.27,-0.53 -0.4,-0.75l-26.84 -33.05 -32.83 -23.6c-4.9,-3.25 -7.92,-6.19 -12.56,-9.32l-85.51 -72.27 -46.25 -48.19c-7.43,-7.29 -13.56,-16.53 -20.73,-24.19l-1.13 -1.17c-7.72,-8.44 -13.96,-18.37 -21.01,-27.36l-79.19 -124.65c-0.59,-1.12 -1.29,-2.47 -2.04,-3.72 -1.02,-1.69 -0.73,-0.75 -2.15,-3.6l-33.34 -72.61c-0.95,-2.36 -1.19,-2.43 -1.86,-3.9l-9.32 -24.07c-0.92,-2.31 -0.87,-1.63 -1.74,-4.02l-21.84 -62.24c-3.79,-12.06 -5.65,-22.94 -10.1,-34.82l-5.06 -17.97c-1.23,-7.93 -0.62,-3.26 -2.64,-8.88 -1.41,-3.94 -0.42,-4.67 -1.32,-9.05 -0.77,-3.79 -2.29,-3.99 -2.98,-8.53l-6.42 -26.98c-1.27,-3.99 -0.36,-5.34 -2,-9.51 -0.99,-2.51 -0.87,-1.32 -1.73,-4.03l-17.73 -41.01c-0.13,-0.21 -0.3,-0.5 -0.43,-0.72l-34.51 -42.65c-0.17,-0.17 -0.4,-0.41 -0.57,-0.58l-5.36 -5c-0.17,-0.16 -0.42,-0.4 -0.59,-0.56l-8.48 -6.5c-0.2,-0.14 -0.47,-0.34 -0.66,-0.49 -0.19,-0.14 -0.46,-0.35 -0.66,-0.5l-2.62 -1.99c-0.19,-0.15 -0.46,-0.36 -0.65,-0.5l-17.58 -11.22c-2.71,-1.65 -0.62,-0.55 -3.68,-2.08 -2.78,-1.39 -4.36,-2.17 -7.7,-3.82 -1.46,-0.72 -2.93,-1.55 -3.81,-1.95 -2.2,-1 -1.59,-0.62 -4.26,-1.49 -1.67,-0.55 -3.02,-1.12 -4.16,-1.6l-21.68 -7.11c-3.51,-1.18 -4.96,-1.74 -9.32,-2.2 -4.07,-0.43 -6.49,-2.41 -9.1,-2.41l-845.32 0 -0.22 0c-4.42,0.01 0.25,0.39 -3.89,1.65l-11.05 2.77c-16.82,6.63 -33.14,15.63 -46.05,28.81l-3.4 3.51c-6.01,6.21 -11.12,14.04 -15.1,21.75 -4.47,8.64 -9.14,17.57 -11.12,26.88 -0.33,1.54 -0.22,1.32 -0.69,2.77 -0.09,0.28 -0.23,0.56 -0.32,0.83 -0.72,2.06 -1.18,6.52 -1.45,11.94l0 33.25c0.07,1.37 0.15,2.3 0.23,2.66 0.67,3.18 0.62,1.76 0.9,2.56l4 13.27c0.83,2.08 1.14,3.92 1.55,5.36l3.92 9.9c1.11,2.45 1.1,1.7 2.34,4.57 0.7,1.62 0.38,1.15 0.92,2.54 0.1,0.27 0.2,0.58 0.3,0.85 0.1,0.26 0.22,0.57 0.33,0.82l16.28 39c0.78,2.04 0.83,3.09 1.69,5.22l20.11 51.29c0.09,0.31 0.14,0.62 0.22,0.93 0.3,1.19 0.18,1.57 0.53,2.93l17.91 55.8c0.79,4.03 2.85,6.33 3.47,10.34l3.77 16.96c0.9,6.03 2.45,5 3.22,10.6l7.44 32.86c0.8,5.42 2,6.85 2.86,10.96 2.26,10.8 4.06,24.27 7.08,34.38 1.23,4.12 0.66,7.37 1.24,12.58 0.44,3.92 2.05,5.94 2.87,9.8 0.94,4.44 0.1,8.11 1.09,12.73 1.03,4.8 2.43,6.33 2.8,11.02 0.37,4.66 -0.31,8.59 0.45,13.37 0.7,4.39 2.26,8.19 2.75,11.07 1.44,8.46 -0.08,16.62 2.17,25.47 1.41,5.58 1.64,5.03 1.59,12.23 -0.07,9.24 0.28,16.45 1.41,25.07l2.01 25.63c-0,18.84 1.15,34.6 1.15,54.13zm1338.23 -310.34c0,-10.99 2.08,-19.24 7.56,-26.99l3.19 -3.72c3.74,-4.12 8.6,-7.68 13.32,-9.71 0.25,-0.11 0.56,-0.23 0.81,-0.34l2.29 -1.17c5.41,-2.63 18.13,-3 23.94,-1.11l24.81 17.8c0.17,0.17 0.41,0.41 0.57,0.58l13.81 13.83c0.16,0.17 0.39,0.42 0.55,0.6l13.85 13.79c0.17,0.17 0.41,0.41 0.58,0.58l25.34 25.33c0.17,0.17 0.41,0.41 0.58,0.58l2.3 2.3c0.17,0.17 0.41,0.41 0.58,0.58 0.17,0.17 0.41,0.41 0.58,0.58l19.67 19.48c0,-17.49 -1.38,-363.49 0.23,-372.9 0.77,-4.46 4.14,-10.41 6.58,-14.15 0.72,-1.09 0.61,-1 1.42,-2.04 0.15,-0.19 0.37,-0.45 0.52,-0.63 4.73,-5.76 -3.81,4.29 1.08,-1.22 2.48,-2.8 4.22,-4.69 7.3,-6.52 11.2,-6.65 21.57,-7.47 33.88,-4.81 4.88,1.05 8.11,2.76 11.68,5.6l5.55 4.82c5.12,5.49 8.12,10.33 9.63,18.01 3.66,18.61 1.6,130.69 1.6,151.57l-0.05 208.5c-0.05,6.73 -0.5,8.53 3.5,11.47 0.94,-3.53 4.13,-5.67 6.78,-8.19l15.58 -15.51c0.86,-0.86 1.06,-1.06 1.73,-1.73 0.17,-0.17 0.41,-0.41 0.58,-0.58l16.12 -16.12c0.86,-0.86 1.06,-1.06 1.73,-1.73l25.91 -25.91c0.86,-0.87 1.06,-1.06 1.73,-1.73l8.05 -8.08c14.43,-14.45 31.86,-20.17 51.03,-10.5 2.34,1.18 1.08,0.61 2.12,1.34l16.14 19.56c0.44,1.12 0.79,2.66 1.07,4.46l0 19.16c-0.42,2.78 -1.04,5.19 -1.9,6.81l-30.63 35.01 -131.16 131.42c-2.4,2.17 -4.15,3.66 -7.23,5.44 -2.82,1.64 -5.37,3.45 -8.76,3.91l-0.21 0.02 -21.5 0c-2.22,-0.08 -3.88,-0.19 -4.44,-0.32 -11.62,-2.69 -20.77,-16.11 -28.82,-24.16l-104.8 -104.8c-10.47,-10.47 -46.35,-40.88 -46.35,-58.45zm-379.94 1032.76c0,0 -279.28,16.56 -436.19,-197.94 -156.91,-214.5 -100.77,-385.09 -89.98,-404.52 10.8,-19.43 66.94,-20.16 64.78,32.39 -2.16,52.55 4.32,203.7 86.38,331.82 82.05,128.12 522.57,352.7 739.94,-145.4 0,0 -212.33,-48.95 -98.6,-260.57 0,0 -175.63,-144.65 -287.92,-441.95 0,0 -18.71,-83.5 -35.99,-138.2 -17.27,-54.7 -38.87,-84.93 -174.19,-82.06 -135.32,2.88 -734.19,0 -734.19,0 0,0 -45.45,3.6 -31.7,54.91 13.75,51.31 72.01,129.36 105.12,362.57 33.11,233.21 -1.44,421.8 -61.9,634.85 -60.46,213.06 15.83,503.85 21.59,532.65 5.76,28.79 31.67,102.93 138.2,107.97l699.64 0c0,0 88.54,-11.51 91.41,-120.2 2.88,-108.69 3.6,-266.32 3.6,-266.32zm380.05 -460.68c0,0 -111.21,-26.27 -50.03,-133.52 0,0 28.43,23.03 35.99,26.99 7.56,3.96 18.35,15.12 18.35,46.07 0,30.95 -4.32,60.46 -4.32,60.46z"/>
 </g>
</svg>
