<?xml version="1.0" encoding="UTF-8"?>
<!DOCTYPE svg PUBLIC "-//W3C//DTD SVG 1.1//EN" "http://www.w3.org/Graphics/SVG/1.1/DTD/svg11.dtd">
<!-- Creator: CorelDRAW 2020 (64 Bit) -->
<svg xmlns="http://www.w3.org/2000/svg" xml:space="preserve" width="45.1529mm" height="46.6095mm" version="1.1" style="shape-rendering:geometricPrecision; text-rendering:geometricPrecision; image-rendering:optimizeQuality; fill-rule:evenodd; clip-rule:evenodd"
viewBox="0 0 152.05 156.95"
 xmlns:xlink="http://www.w3.org/1999/xlink"
 xmlns:xodm="http://www.corel.com/coreldraw/odm/2003">
 <defs>
  <style type="text/css">
   <![CDATA[
    .fil0 {fill:#616A5E}
   ]]>
  </style>
 </defs>
 <g id="Camada_x0020_1">
  <metadata id="CorelCorpID_0Corel-Layer"/>
  <path class="fil0" d="M6.44 57.63c0,-12.39 1.08,-20.59 7.6,-31.02 2.02,-3.23 3.09,-3.94 4.84,-6.2 2.52,-3.26 8.77,-7.56 12.39,-9.38 8.82,-4.42 18.54,-5.39 28.52,-2.76 2.78,0.73 6.47,2.14 8.76,3.5 7.13,4.26 8.48,5.52 13.69,11.14 6.74,7.25 14.02,21.42 14.02,35.33 0,9.43 -0.82,15.51 -5.95,23.18 -1.09,1.62 -2.37,3.59 -3.63,4.95l-5.04 5.38c-0.08,0.09 -0.42,0.48 -0.43,0.49l-0.31 0.31c-0.06,0.06 -0.26,0.23 -0.32,0.29 -10.53,9.55 -18.67,20.62 -19.87,35.62 -1.24,15.52 -14.41,24.79 -27.89,21.74 -8.98,-2.03 -15.04,-7.59 -17.19,-16.53l-7.6 -60.45c-0.61,-5 -1.59,-10.3 -1.59,-15.58zm91.35 -42.61c0.53,0 1.74,-0.68 2.08,-0.98 4.2,-3.77 -7.55,-14.04 -11.28,-14.04 -2.4,0 -4.61,3.63 -1.06,5.96 2.28,1.5 4.58,3.01 6.21,5.44 1.04,1.54 1.76,3.62 4.04,3.62zm14.41 42.92l0 6.44c0,2.51 -2.1,7.36 3.07,7.36 3.78,0 3.37,-7.82 3.37,-11.34 0,-10.59 -5.36,-7.2 -6.14,-5.83 -0.91,1.62 -0.3,1.6 -0.3,3.37zm-12.87 38.01c0,1.87 1.28,3.37 3.37,3.37 3.3,0 10.12,-11.93 10.12,-13.49 0,-3.02 -4,-4.15 -5.7,-2.02 -0.12,0.15 -2.43,4.77 -5.47,8.63 -0.7,0.89 -2.32,2.19 -2.32,3.5zm5.52 -68.97l3.23 7.81c0.54,1.6 0.65,2.82 1.12,4.4 1.11,3.76 6.08,3.16 6.08,-0.56 0,-2.89 -1.37,-6.5 -2.27,-8.76 -1.22,-3.04 -2.2,-6.26 -5.08,-6.26 -1.75,0 -3.07,1.61 -3.07,3.37zm25.14 -8.89c0,-2.36 1.57,-13.41 -4.44,-10.9 -1.39,0.58 -2,1.74 -2,3.55l0 14.41c0,2.62 1.37,3.99 3.98,3.99 3.14,0 14.83,0.47 16.6,-0.57 1.66,-0.98 1.49,-1.92 1.49,-3.11 0,-3.97 -7.12,-2.76 -11.04,-2.76l8.97 -9.12c1.61,-1.61 2.99,-2.99 4.6,-4.6 1.21,-1.21 3.91,-3.22 3.91,-5.29 0,-1.56 -1.4,-3.07 -3.37,-3.07 -1.75,0 -3.89,2.82 -4.98,3.91l-13.72 13.56zm-106.68 36.48c0,-8.06 0.38,-14.48 5.9,-20.47 6.99,-7.58 19.98,-8.08 29.06,-4.07 9.1,4.02 16.6,11.21 19.18,21.59 1.24,4.96 0.84,4.8 1.27,8.86 0.14,1.35 -0.18,1.45 -0.23,2.97 -0.34,10.49 -9.28,17.1 -16.48,24.29 -2.26,2.26 -4.27,4.67 -6.09,7.4 -5.12,7.71 -8.1,14.52 -9.8,23.92 -0.83,4.58 -0.8,13.19 -6.95,13.52 -3.73,0.2 -6.48,-3.13 -6.97,-6.6 -0.54,-3.88 -1.07,-8.23 -1.48,-12 -0.45,-4.08 -1.28,-8.39 -1.28,-12.51 0,-1.07 1.09,-1.33 2.01,-1.67 8.11,-3.07 14.24,-5.42 14.24,-15.49 0,-3.44 -2.21,-7.11 -4.05,-8.82 -3.8,-3.51 -10.33,-3.68 -14.16,-5.46 -1.77,-0.82 -2,-1.88 -2.41,-4.03 -0.63,-3.25 -1.76,-7.51 -1.76,-11.42zm-6.44 -3.98c0,5.44 0.1,7.24 1.14,12.65 0.3,1.55 0.66,2.92 0.92,4.29 2.82,14.53 19.86,6.05 20.53,17.45 0.19,3.22 -1.79,5.25 -4.41,6.48 -4.27,2.02 -12.06,3.49 -12.06,9.7 0,3.36 2.15,19.16 2.7,23.66 0.57,4.61 1.18,6.73 3.6,9.58 4.97,5.87 14.5,6.52 19.58,-1.24 5.18,-7.91 0.57,-23.97 18.49,-41.89 11.49,-11.49 17.55,-15.62 17.55,-31.5 0,-5.48 -1.75,-11.95 -3.57,-15.74 -1.46,-3.03 -3.35,-6.4 -5.55,-8.86 -2.39,-2.66 -1.93,-2.34 -4.76,-4.74 -2.36,-2.01 -6.22,-4.5 -9.02,-5.7 -12.67,-5.43 -27.12,-5.37 -37.11,4.76 -5.08,5.15 -8.04,13.38 -8.04,21.08zm23.18 106.37l-4.84 0c-2.14,-0.18 -4.27,-0.59 -6.35,-1.26l-4.58 -1.86c-15.5,-7.38 -15.34,-21.6 -17.17,-36.48l-5.63 -45.87c-0.78,-6.36 -1.48,-9.81 -1.48,-16.92 0,-17.06 6.87,-31.62 16.47,-40.85 14.49,-13.95 38.53,-17.62 56.12,-6.91 3.48,2.12 7.33,4.71 10.25,7.53l3.29 3.45c0.6,0.79 0.94,1.02 1.61,1.77 9.02,10.06 14.95,26.48 14.95,40.54 0,13.53 -4.53,21.95 -10.55,29.61 -6.29,8.01 -13.72,12.32 -18.9,20.95 -6.33,10.57 -5.12,14.5 -7.05,23.3 -1.49,6.8 -5.88,14.11 -11.75,17.99 -4.37,2.88 -9.33,4.61 -14.4,5.03z"/>
 </g>
</svg>
