<?xml version="1.0" encoding="UTF-8"?>
<!DOCTYPE svg PUBLIC "-//W3C//DTD SVG 1.1//EN" "http://www.w3.org/Graphics/SVG/1.1/DTD/svg11.dtd">
<!-- Creator: CorelDRAW 2020 (64 Bit) -->
<svg xmlns="http://www.w3.org/2000/svg" xml:space="preserve" width="42.78mm" height="46.5895mm" version="1.1" style="shape-rendering:geometricPrecision; text-rendering:geometricPrecision; image-rendering:optimizeQuality; fill-rule:evenodd; clip-rule:evenodd"
viewBox="0 0 135.24 147.28"
 xmlns:xlink="http://www.w3.org/1999/xlink"
 xmlns:xodm="http://www.corel.com/coreldraw/odm/2003">
 <defs>
  <style type="text/css">
   <![CDATA[
    .fil0 {fill:#616A5E}
   ]]>
  </style>
 </defs>
 <g id="Camada_x0020_1">
  <metadata id="CorelCorpID_0Corel-Layer"/>
  <path class="fil0" d="M13.52 137.85l-3.88 -4.04 6.18 -6.33 4.03 3.89 -6.33 6.47zm57.2 -135.04c0,3.73 6.04,3.73 6.04,0 0,-3.79 -6.04,-3.72 -6.04,0zm-23.6 68.2c0,2.16 0.47,2.73 3.68,4.67 6.94,4.19 17.04,-0.19 17.04,-4.38 0,-1.62 -1.26,-2.88 -2.88,-2.88 -2.18,0 -5.78,5.62 -11.51,2.01 -0.97,-0.61 -1.94,-2.01 -3.45,-2.01 -1.45,0 -2.88,1.04 -2.88,2.59zm32.52 0.29c0,3.4 6.39,6.04 9.21,6.04 4.24,0 6.36,-0.21 9.88,-3.07 1.01,-0.82 2.07,-1.76 1.75,-3.4 -0.28,-1.46 -1.38,-2.46 -3,-2.46 -2.35,0 -4.83,5.54 -11.42,1.93 -1.43,-0.78 -1.61,-1.93 -3.54,-1.93 -1.45,0 -2.88,1.43 -2.88,2.88zm-15.25 29.07c0,2.09 1.65,3.53 3.16,4.61 3.63,2.6 8.3,2.68 12.05,0.23 2.13,-1.39 3.5,-2.77 3.5,-5.13 0,-1.29 -2.61,-2.91 -3.62,-3.58 -2.09,-1.39 -3.36,-0.9 -5.84,-0.94 -3.01,-0.05 -3.9,-0.31 -5.8,1.06 -1.28,0.92 -3.45,2.23 -3.45,3.75zm42.57 46.91l-1.23 0c-3.24,-0.4 -7.54,-3.6 -9.44,-5.13 -0.79,-0.64 -2.06,-1.92 -2.71,-2.76 -1.67,-2.14 -3.11,-4.04 -4.24,-6.7 -1.07,-2.52 -1.93,-5.54 -1.93,-9.01 -1.04,0.24 -2.08,0.81 -3.13,1.19 -3.17,1.15 -7.1,2.28 -10.69,2.29 -3.55,0 -11.07,-2.3 -13.53,-3.48 0,8.71 -5.11,16.79 -12.38,21 -9.15,5.29 -10.43,0.7 -9.22,-1.73 1.4,-2.79 15.84,-3 15.84,-22.43 -1.87,-0.44 -5.48,-3.75 -7.12,-4.82l-17.34 17.2c0.62,0.93 1.66,1.42 1.71,2.9 0.04,1.23 -0.79,2.37 -1.83,2.76 -2.86,1.06 -3.92,-1.63 -5.7,-2.85l-6.26 6.11c1.99,2.98 0.79,5.11 -1.04,5.47l-1.13 0c-0.66,-0.13 -1.34,-0.47 -1.94,-1.07 -2.18,-2.19 -4.14,-4.16 -6.32,-6.34 -3.06,-3.06 -9.9,-7.9 -6.32,-10.79 1.57,-1.27 3.06,-0.36 4.45,0.43l6.26 -6.4c-3.95,-2.64 -4.43,-7.23 -0.29,-7.23 1.8,0 1.82,0.76 2.95,1.54l19.79 -19.93c-0.2,-2.34 -1.58,-3.14 -3.08,-4.4 -2.19,-1.84 -4.09,-3.97 -6.06,-6.03 -1.45,-1.52 -3.07,-3.7 -4.28,-5.51 -11.67,-17.51 -11.28,-41.5 2.57,-58.51 3.4,-4.18 4,-4.34 7.18,-7.5 0.79,-0.79 1.74,-1.5 2.68,-2.21 5.83,-4.4 11.79,-7.64 19.01,-10.06 2.36,-0.79 5.13,-1.6 7.71,-2.09 3.32,-0.64 5.05,2.88 3.13,4.88 -1.24,1.3 -5.58,1.85 -7.41,2.38 -7.18,2.06 -13.63,5.58 -19.33,10.03 -11.73,9.16 -19.89,24.63 -17.89,40.09 0.76,5.89 2.27,10.51 4.53,15.04 1.24,2.48 5.56,9.55 8.06,11.22 0,-2.89 -0.29,-4.77 -0.29,-7.77 0,-4.42 -0.43,-11.26 0.16,-15.38 0.43,-2.96 1.02,-4.06 -0.7,-6.25 -1.56,-1.99 -5.49,-8.29 -3.72,-10.82 1.28,-1.82 4.03,-1.69 5.04,0.29 0.42,0.83 0.73,1.97 1.1,2.93 0.45,1.15 0.47,1.88 1.57,2.17 0.68,-2.94 3.55,-5.7 5.54,-7.7 1.61,-1.61 5.32,-4.7 7.7,-5.25 -0.12,-1.46 -5.37,-12.16 -0.97,-13.93 3.38,-1.35 4.31,1.78 4.43,4.42 0.12,2.69 1.47,4.59 2.01,6.91l4.14 -1.33c4.32,-1.41 9.07,-2.02 13.71,-2.41 0,-2.3 -0.56,-10.08 0.56,-11.82 1.4,-2.18 5.53,-2.45 5.49,3.75 -0.02,2.69 -0,5.38 -0,8.06 5.65,0.47 12.54,1.33 17.55,3.74 2.94,-5.55 1.83,-9.09 3.17,-10.65 1.99,-2.33 5.11,-0.46 5.2,2.3 0.12,3.65 -1.39,7.78 -2.9,10.65 0.75,0.4 1.56,0.73 2.29,1.16 3.79,2.19 10.29,8.01 11.23,12.08l0.58 0c0.19,-0.83 1.96,-5.29 2.5,-5.85 1.67,-1.71 4.85,-0.73 5,1.83 0.17,2.97 -3.83,9.82 -5.48,10.93 1.27,5.45 0.58,20.52 0.58,27.63 1.66,-1.11 3.92,-4.29 5.12,-6.1l3.9 -7.04c1.16,-2.41 2.18,-5.65 2.76,-8.47 4.28,-20.8 -7.56,-40.67 -25.59,-50.06 -3.85,-2.01 -7.72,-3.56 -11.93,-4.76 -1.59,-0.45 -2.76,-0.65 -4.37,-1.1 -4.38,-1.22 -2.76,-5.68 -0.09,-5.92 1.36,-0.12 7.4,1.64 8.79,2.11 5.55,1.85 10.53,4.27 15.02,7.14 3.44,2.2 6.21,4.78 9.26,7.43 2.86,2.49 5.42,5.98 7.54,9.15 4.98,7.44 7.47,15.1 8.27,24.82 0.26,3.2 -0.22,7.76 -0.73,10.47 -2.01,10.73 -6.3,17.91 -12.99,25.86 -1.64,1.95 -3.56,3.86 -5.55,5.39 -0.25,0.19 -1.39,1.04 -1.6,1.27 -0.55,0.59 -0.51,0.9 -0.83,1.76 -1.41,3.88 -3.44,7.7 -5.83,10.86 -2.4,3.17 -4.84,6.19 -8.02,8.67 -1.75,1.37 -4.27,3.9 -6.45,4.48 0,9.44 3.89,17.12 12.78,20.6 1.44,0.56 2.76,0.67 3.23,2.25 0.53,1.8 -0.36,3.28 -1.52,3.73 -0.22,0.09 -0.45,0.14 -0.69,0.18zm-81.35 -18.35l-7.05 -7.2 26.61 -26.76 7.19 7.05 -26.76 26.91zm90.87 -44.39l-0.16 0.62 0.16 -0.62zm-42.59 36.55c-5.35,0 -13.51,-3.33 -17.73,-6.16l-4.72 -3.34c2.39,-3.57 8.06,-6.36 8.06,-9.78 0,-1.94 -3.33,-3.99 -4.32,-5.47 2.48,-3.7 11.39,-8.7 7.37,-11.97 -3.65,-2.97 -8.04,5.22 -11.68,7.66 -1.37,-0.92 -3.72,-4.32 -5.47,-4.32 -2.98,0 -4.26,4.26 -6.62,4.89 -0.09,-1.02 -0.41,-1.66 -0.69,-2.76 -2.06,-8.06 -1.32,-18.02 -1.32,-26.88 0,-9.01 5.31,-16.1 10.99,-19.52 8.46,-5.1 17.13,-6.67 28.15,-6.67 8.26,0 18.99,3.49 24.01,6.79 12.93,8.49 10.82,20.62 10.82,34.94 0,10.21 -2.82,18.6 -8.43,26.11 -5.48,7.34 -11.62,11.47 -20.14,14.68 -1.89,0.71 -5.87,1.81 -8.26,1.81z"/>
 </g>
</svg>
