<?xml version="1.0" encoding="UTF-8"?>
<!DOCTYPE svg PUBLIC "-//W3C//DTD SVG 1.1//EN" "http://www.w3.org/Graphics/SVG/1.1/DTD/svg11.dtd">
<!-- Creator: CorelDRAW 2020 (64 Bit) -->
<svg xmlns="http://www.w3.org/2000/svg" xml:space="preserve" width="135.467mm" height="135.467mm" version="1.1" style="shape-rendering:geometricPrecision; text-rendering:geometricPrecision; image-rendering:optimizeQuality; fill-rule:evenodd; clip-rule:evenodd"
viewBox="0 0 3078.66 3078.66"
 xmlns:xlink="http://www.w3.org/1999/xlink"
 xmlns:xodm="http://www.corel.com/coreldraw/odm/2003">
 <defs>
  <style type="text/css">
   <![CDATA[
    .fil0 {fill:#616A5E}
   ]]>
  </style>
 </defs>
 <g id="Camada_x0020_1">
  <metadata id="CorelCorpID_0Corel-Layer"/>
  <path class="fil0" d="M198.19 1104.47c0,12.83 -0.02,25.66 0,38.48 0.02,14.89 -1.85,24.24 -2,36.48 -0.23,19.01 1.5,38.76 0.02,57.75 -1.33,17.12 -5.93,22.56 -5.73,53.92l-3.62 34.86c-3.6,18.31 0.94,18.52 -6.23,51.49 -1.21,5.57 -1.62,11.7 -1.63,19.53 -0.03,16.71 -5.5,17.12 -5.84,32.65 -0.29,13.63 -4.74,20.23 -5.67,32.81 -1.6,21.6 -4.43,18.4 -5.92,32.56l-10.85 52.65c-0.45,1.43 -0.9,3.09 -1.22,4.56 -0.63,2.98 -0.6,3.94 -1.19,8.43 -1.37,10.45 -1.72,6.87 -4.29,14.95 -2.6,8.16 -1.66,11.82 -5.72,23.14 -2.53,7.06 -1.2,10.42 -5.77,23.09 -2.37,6.59 -0.67,9.63 -2.57,16.68l-9.72 30.68c-1.95,7.14 -1,8.42 -3.67,15.57 -2.99,7.98 -2.03,5.96 -3.84,15.4l-16.17 60.8c-3.56,8.65 -1.04,9.25 -2.79,18.38 -0.85,4.47 -3.96,9.28 -4.78,14.46 -1.41,8.82 0.48,9.12 -2.34,16.91l-9.71 48.01c-0.72,13.35 -4.84,17.72 -5.88,32.6 -0.46,6.54 -2.08,12.07 -3.77,17.4 -3.07,9.66 -2.24,23.26 -4.08,34.41l-13.42 103.96c-5.78,20.47 -0.47,52.1 -4.99,73.9 -6.23,30.02 -7.34,215.35 -1.41,246.63 4.6,24.26 0.79,49.51 5.23,75.59 3.9,22.89 2.76,27.94 5.07,48.8 1.99,17.92 4.48,23.93 5.98,47.89l19.46 115.24c2.76,7.43 2.75,14.63 4.06,22.88 1.5,9.41 4.41,7.95 5.38,21.56 0.83,11.69 3.7,12.32 5.18,19.83l14.94 65.87c1.56,5.24 1.77,3.97 3.34,10.13l8.2 32.21c1.39,4.78 2.67,4.87 3.93,9.54 1.61,5.96 0.92,9.79 3.64,15.6 2.82,6.04 0.8,-0.02 2.38,5.32l4.7 14.54c0.19,0.4 0.43,0.9 0.61,1.31 0.93,2.13 14.82,33.48 24.11,49.01 14.99,25.05 33.46,46.96 53.83,67.4l1.92 1.93c12.14,12.24 26.81,24.16 41.58,33.46l29.01 17.17c2.47,1.23 2.87,1.13 5.35,2.35 1.57,0.77 3.09,1.73 3.71,2.06l43.34 18.23c6.99,2.74 13.53,3.43 20.96,5.98l32.74 7.18 15.35 0c340.09,-1.67 680.23,0 1020.33,0l3.33 0c67.44,-0.02 135.12,-0.57 202.54,0l14.85 0c10.73,-0.43 3.75,-2.46 15.95,-3.84l66.78 -19.8c4,-1.61 0.72,-0.22 5.25,-2.45 3.84,-1.89 5.57,-2.45 9.28,-4.19l43.21 -26.06c0.33,-0.24 0.8,-0.56 1.13,-0.8l32.94 -26.71 47.31 -54.67 18.17 -29.93c1.72,-3.15 2.97,-6.03 4.48,-8.98l12.47 -27.94c11.29,-30.03 20.73,-68.4 20.65,-100.57l-0 -484.89c2.72,-0.22 15.38,-2.11 18.16,-3.01l17.85 -5.23c6.81,-1.62 6.61,-3.38 15.94,-5.23 9.57,-1.9 9,-3.37 17.49,-5.6 17.33,-4.55 31.21,-10.77 47.76,-17.66l16.38 -6.71c4.52,-1.48 3.47,-0.87 7.1,-2.52l141.34 -79.94c0.32,-0.24 0.76,-0.6 1.08,-0.84l13.65 -9.44c2.8,-2.18 3.07,-2.59 6.41,-5.13l35.67 -27.83c0.29,-0.27 0.7,-0.66 1,-0.92l24.09 -20.17c4.69,-3.91 7.23,-7.18 11.74,-11.35l9.34 -7.97c0.29,-0.27 0.68,-0.68 0.96,-0.96 0.28,-0.28 0.67,-0.69 0.95,-0.97 1.35,-1.36 1.3,-1.34 2.86,-2.91 0.28,-0.28 0.68,-0.68 0.96,-0.96l4.82 -4.8c0.28,-0.28 0.69,-0.67 0.97,-0.95l1.92 -1.93c2.3,-2.4 2.21,-2.44 4.57,-5.05 1.8,-1.99 1.27,-1.43 2.78,-3l7.72 -7.68c0.28,-0.28 0.69,-0.68 0.97,-0.96 0.84,-0.83 2.58,-2.57 2.89,-2.88l44.4 -51.81c1.78,-2.34 2.46,-2.99 4.28,-5.34 2.45,-3.17 2.63,-3.9 4.78,-6.77l29.71 -41.48c0.23,-0.34 0.55,-0.81 0.77,-1.15l25.29 -40.13c0.22,-0.36 0.52,-0.83 0.74,-1.19 0.22,-0.36 0.5,-0.85 0.72,-1.21 0.22,-0.36 0.49,-0.85 0.7,-1.22l4.37 -7.17c2.85,-4.73 4.96,-9.24 7.28,-13.88l71.46 -174.83 11.53 -44.27c1.4,-4.21 1.46,-4.89 1.79,-9.75 1.15,-17.24 5.54,-21.41 5.83,-38.42 0.19,-10.79 2.1,-9.94 4.41,-18.68 2.64,-9.97 0.99,-31.41 2.76,-41.5 7.97,-45.55 4.44,-95.35 4.44,-141.8 0,-13.85 -4.79,-17.82 -5.71,-30.85 -0.73,-10.44 -4.86,-20.03 -9.22,-29.26l-9.02 -19.84c-0.2,-0.38 -0.45,-0.88 -0.66,-1.26l-44.84 -55.22 -54.86 -39.42c-8.2,-5.44 -13.23,-10.34 -20.98,-15.58l-142.86 -120.75 -77.27 -80.51c-12.41,-12.18 -22.66,-27.62 -34.63,-40.41l-1.89 -1.95c-12.89,-14.1 -23.32,-30.69 -35.1,-45.72l-132.32 -208.26c-0.99,-1.87 -2.16,-4.13 -3.41,-6.21 -1.7,-2.82 -1.22,-1.25 -3.6,-6.02l-55.7 -121.32c-1.59,-3.94 -1.99,-4.05 -3.11,-6.52l-15.58 -40.22c-1.53,-3.86 -1.46,-2.72 -2.91,-6.72l-36.48 -103.98c-6.33,-20.15 -9.45,-38.33 -16.87,-58.17l-8.45 -30.03c-2.05,-13.25 -1.04,-5.44 -4.41,-14.84 -2.36,-6.59 -0.71,-7.8 -2.2,-15.11 -1.29,-6.32 -3.83,-6.66 -4.98,-14.26l-10.72 -45.08c-2.11,-6.67 -0.59,-8.92 -3.35,-15.89 -1.66,-4.2 -1.46,-2.21 -2.89,-6.73l-29.62 -68.51c-0.22,-0.36 -0.51,-0.84 -0.72,-1.2l-57.66 -71.25c-0.28,-0.28 -0.67,-0.69 -0.95,-0.97l-8.96 -8.36c-0.29,-0.27 -0.7,-0.67 -0.98,-0.94l-14.16 -10.85c-0.33,-0.24 -0.78,-0.57 -1.11,-0.82 -0.32,-0.24 -0.77,-0.58 -1.1,-0.83l-4.37 -3.32c-0.32,-0.24 -0.77,-0.6 -1.09,-0.84l-29.36 -18.74c-4.53,-2.76 -1.04,-0.93 -6.14,-3.48 -4.64,-2.32 -7.29,-3.63 -12.87,-6.37 -2.44,-1.2 -4.89,-2.59 -6.36,-3.26 -3.68,-1.67 -2.65,-1.03 -7.12,-2.5 -2.79,-0.92 -5.04,-1.87 -6.94,-2.68l-36.23 -11.87c-5.87,-1.97 -8.28,-2.9 -15.57,-3.67 -6.8,-0.72 -10.84,-4.03 -15.21,-4.03l-1412.34 0 -0.36 0c-7.38,0.02 0.42,0.65 -6.49,2.76l-18.47 4.62c-28.1,11.07 -55.37,26.12 -76.93,48.14l-5.68 5.87c-10.04,10.37 -18.57,23.46 -25.23,36.34 -7.46,14.44 -15.27,29.36 -18.58,44.92 -0.55,2.58 -0.37,2.21 -1.15,4.63 -0.15,0.46 -0.38,0.93 -0.54,1.39 -1.2,3.44 -1.97,10.9 -2.43,19.94l0 55.55c0.12,2.28 0.25,3.85 0.38,4.45 1.12,5.32 1.04,2.95 1.5,4.27l6.69 22.17c1.39,3.47 1.9,6.56 2.59,8.95l6.55 16.54c1.85,4.09 1.84,2.83 3.91,7.64 1.17,2.7 0.64,1.92 1.53,4.24 0.17,0.45 0.33,0.97 0.51,1.41 0.17,0.43 0.37,0.95 0.55,1.37l27.21 65.15c1.31,3.41 1.39,5.16 2.83,8.71l33.6 85.7c0.15,0.51 0.23,1.03 0.36,1.56 0.5,2 0.3,2.62 0.88,4.89l29.92 93.23c1.33,6.73 4.76,10.58 5.8,17.28l6.3 28.33c1.51,10.08 4.09,8.36 5.37,17.72l12.44 54.91c1.33,9.05 3.34,11.44 4.78,18.31 3.78,18.04 6.79,40.55 11.84,57.44 2.06,6.88 1.1,12.31 2.08,21.01 0.74,6.55 3.42,9.92 4.79,16.37 1.57,7.42 0.17,13.54 1.82,21.27 1.72,8.02 4.06,10.57 4.68,18.41 0.62,7.79 -0.52,14.36 0.76,22.33 1.17,7.33 3.77,13.69 4.59,18.5 2.4,14.14 -0.13,27.76 3.62,42.56 2.36,9.32 2.75,8.4 2.65,20.43 -0.12,15.44 0.47,27.49 2.36,41.89l3.36 42.82c-0,31.47 1.92,57.81 1.92,90.44zm2235.88 -790.83c0,18.36 3.47,32.14 12.63,45.09l5.33 6.22c6.26,6.88 14.36,12.82 22.25,16.23 0.42,0.18 0.94,0.39 1.35,0.57l3.82 1.95c9.04,4.4 30.28,5.01 40,1.85l41.46 -29.74c0.28,-0.28 0.68,-0.69 0.96,-0.97l23.08 -23.1c0.27,-0.29 0.66,-0.71 0.92,-1l23.14 -23.04c0.28,-0.28 0.68,-0.68 0.96,-0.96l42.33 -42.33c0.28,-0.28 0.68,-0.68 0.96,-0.97l3.85 -3.85c0.28,-0.28 0.68,-0.68 0.96,-0.96 0.28,-0.28 0.68,-0.68 0.96,-0.96l32.87 -32.55c0,29.22 -2.31,607.31 0.39,623.04 1.28,7.45 6.91,17.39 10.99,23.64 1.2,1.83 1.01,1.66 2.37,3.41 0.25,0.32 0.61,0.75 0.87,1.06 7.91,9.63 -6.36,-7.16 1.81,2.04 4.15,4.67 7.05,7.83 12.2,10.89 18.72,11.11 36.04,12.47 56.61,8.03 8.15,-1.76 13.54,-4.62 19.51,-9.35l9.27 -8.05c8.56,-9.17 13.56,-17.25 16.09,-30.09 6.12,-31.09 2.67,-218.36 2.67,-253.24l-0.08 -348.36c-0.08,-11.25 -0.84,-14.25 5.85,-19.16 1.58,5.9 6.9,9.48 11.32,13.69l26.04 25.91c1.43,1.43 1.78,1.78 2.89,2.89 0.28,0.28 0.68,0.68 0.96,0.96l26.94 26.94c1.44,1.44 1.78,1.78 2.89,2.89l43.3 43.29c1.44,1.45 1.77,1.77 2.88,2.89l13.44 13.5c24.1,24.14 53.23,33.69 85.26,17.54 3.9,-1.97 1.8,-1.02 3.54,-2.23l26.97 -32.68c0.73,-1.87 1.33,-4.44 1.79,-7.45l0 -32.01c-0.7,-4.64 -1.74,-8.66 -3.18,-11.38l-51.18 -58.5 -219.14 -219.58c-4.01,-3.62 -6.94,-6.11 -12.08,-9.09 -4.72,-2.73 -8.97,-5.76 -14.64,-6.52l-0.36 -0.04 -35.91 0c-3.71,0.14 -6.47,0.31 -7.41,0.53 -19.41,4.5 -34.7,26.91 -48.15,40.36l-175.1 175.1c-17.49,17.49 -77.45,68.31 -77.45,97.65zm-634.8 1997.83c0,0 -466.61,27.66 -728.78,-330.72 -262.17,-358.38 -168.37,-643.39 -150.33,-675.87 18.04,-32.47 111.84,-33.68 108.23,54.12 -3.61,87.79 7.22,340.34 144.32,554.4 137.09,214.06 873.09,589.28 1236.28,-242.93 0,0 -354.76,-81.79 -164.75,-435.35 0,0 -293.44,-241.68 -481.05,-738.4 0,0 -31.26,-139.5 -60.13,-230.9 -28.86,-91.4 -64.94,-141.91 -291.03,-137.1 -226.09,4.81 -1226.66,0 -1226.66,0 0,0 -75.94,6.01 -52.97,91.74 22.97,85.73 120.31,216.13 175.63,605.77 55.32,389.64 -2.41,704.72 -103.43,1060.7 -101.02,355.97 26.46,841.83 36.08,889.93 9.62,48.1 52.92,171.97 230.9,180.39l1168.94 0c0,0 147.92,-19.24 152.73,-200.83 4.81,-181.6 6.01,-444.95 6.01,-444.95zm634.97 -769.69c0,0 -185.8,-43.9 -83.58,-223.08 0,0 47.5,38.48 60.13,45.1 12.63,6.61 30.67,25.26 30.67,76.97 0,51.71 -7.22,101.02 -7.22,101.02z"/>
 </g>
</svg>
