<svg xmlns="http://www.w3.org/2000/svg" xml:space="preserve" width="43.5143mm" height="46.6094mm" version="1.1" style="shape-rendering:geometricPrecision; text-rendering:geometricPrecision; image-rendering:optimizeQuality; fill-rule:evenodd; clip-rule:evenodd"
viewBox="0 0 139.84 149.79"
 xmlns:xlink="http://www.w3.org/1999/xlink"
 class="active"
>
 <g class="active" fill="">
  <path d="M30.43 116.44c0,8.31 7.8,1.94 13,9.53 0.75,1.09 1.88,3.76 1.92,5.4 -11.43,0 -21.62,1.43 -27.6,-10.43 -4.46,-8.86 -0.79,-15.35 3.82,-21.54 9.13,-12.24 15.11,-25 19.94,-39.45 3.21,-9.62 5.18,-21.7 7.28,-32.22 0.69,-3.45 1.02,-4.87 2.41,-7.54 8.76,-16.8 35.36,-15.16 39.72,6.81 1.74,8.79 4.6,24.55 7.2,32.29 3.98,11.82 5.82,16.18 11.99,27.51 0.63,1.16 1.18,1.99 1.86,3.12 3.08,5.17 8.22,11.67 10.03,14.84 5.68,9.91 -0.63,26.62 -17.55,26.62l-9.95 0c0.04,-1.75 1.06,-4.08 1.8,-5.22 2.6,-3.99 5.75,-4.25 9.57,-4.76 5.21,-0.7 4.32,-8.74 -0.26,-8.74 -9.45,0 -16.32,5.09 -19.13,13.64 -1.81,5.49 -3.1,10.53 -10.08,13.33 -0.9,0.36 -1.62,0.68 -2.89,0.92 -3.81,0.71 -6.17,0.62 -9.87,-0.83 -2.05,-0.8 -3.35,-1.78 -4.8,-3.1l-0.88 -0.88c-3.54,-3.88 -3.16,-4.97 -4.54,-9.21 -1.33,-4.1 -3.19,-6.9 -6.12,-9.38 -3.7,-3.13 -7.61,-4.47 -13.08,-4.47 -1.79,0 -3.8,2.01 -3.8,3.8zm2.34 -18.72c0,3.49 1.49,4.97 4.97,4.97 1.85,0 10.96,-7.26 6.47,-11.73 -3.99,-3.97 -7.57,1.6 -9.47,3.47 -0.82,0.81 -1.97,1.79 -1.97,3.29zm69.34 4.97c3.49,0 4.97,-1.49 4.97,-4.97 0,-1.9 -2.55,-3.71 -4.47,-6.06 -3.89,-4.74 -11.75,-0.19 -6.4,6.4 1.01,1.25 4,4.63 5.9,4.63zm-46.52 -70.51c0,4.22 7.55,5.83 8.71,0.22l0.65 -7.25c0,-4.27 -7.73,-5.87 -8.79,-0.02 -0.37,2.02 -0.57,4.65 -0.57,7.04zm-3.8 22.53c0,5.03 7.32,6.53 8.79,0.59 0.36,-1.45 1.16,-4.87 1.16,-6.45 0,-4.67 -7.27,-6.46 -8.79,-0.89 -0.41,1.5 -1.16,4.99 -1.16,6.74zm23.11 -29.55c0,3.36 -0.01,10.82 4.39,10.82 6.17,0 5.37,-5.51 4.41,-10.84 -1.06,-5.86 -8.79,-4.26 -8.79,0.02zm3.22 23.7c0,2.19 0.91,10.24 4.97,10.24 6.81,0 5.08,-6.47 3.82,-11.13 -1.51,-5.57 -8.79,-3.78 -8.79,0.89zm5.56 22.82c0,1.27 2.42,8.59 3.42,9.74 3.09,3.53 7.99,1.01 7.99,-2.72 0,-1.21 -1.66,-5.46 -2.15,-6.92 -2.64,-7.87 -9.26,-3.91 -9.26,-0.11zm-38.91 6.73c0,4.17 4.78,6.41 7.84,3.16 1.09,-1.16 3.57,-8.34 3.57,-9.6 0,-4.49 -6.67,-7.72 -9.18,-0.41 -0.39,1.14 -2.22,6.16 -2.22,6.84zm80.75 -28.38c-1.08,-4.62 -8.48,-3.41 -8.48,0.88l0 10.53c0,1.79 2.01,3.8 3.8,3.8l10.53 0c4.29,0 5.5,-7.41 0.88,-8.48 0.56,-2.11 7.61,-6.46 7.61,-9.36 0,-3.49 -1.49,-4.97 -4.97,-4.97 -1.95,0 -3.76,2.45 -4.9,3.58 -0.97,0.97 -3.33,3.72 -4.46,4.02zm-4.68 -30.43c-1.08,-4.62 -8.48,-3.41 -8.48,0.88l0 10.53c0,1.79 2.01,3.8 3.8,3.8l10.53 0c4.29,0 5.5,-7.41 0.88,-8.48 0.29,-1.08 1.09,-1.53 1.83,-2.27 3.62,-3.6 5.78,-4.62 5.78,-8.26 0,-2.38 -2.13,-3.8 -4.97,-3.8 -1.95,0 -3.76,2.45 -4.9,3.58 -0.97,0.97 -3.33,3.72 -4.46,4.02zm-116.15 -3.8c0,3.65 2.07,4.56 5.63,8.12 0.77,0.77 1.67,1.28 1.97,2.41 -4.62,1.08 -3.41,8.48 0.88,8.48l10.53 0c1.79,0 3.8,-2.01 3.8,-3.8l0 -10.53c0,-4.29 -7.41,-5.5 -8.48,-0.88 -1.09,-0.29 -1.53,-1.09 -2.27,-1.83 -0.8,-0.8 -1.39,-1.39 -2.19,-2.19 -2.62,-2.62 -2.71,-3.58 -6.07,-3.58 -1.79,0 -3.8,2.01 -3.8,3.8zm-4.68 30.43c0,3.65 2.07,4.56 5.63,8.12 0.77,0.77 1.67,1.28 1.97,2.41 -4.62,1.08 -3.41,8.48 0.88,8.48l10.53 0c1.79,0 3.8,-2.01 3.8,-3.8l0 -10.53c0,-4.29 -7.41,-5.5 -8.48,-0.88 -1.09,-0.29 -1.53,-1.09 -2.27,-1.83 -3.6,-3.62 -4.62,-5.78 -8.26,-5.78 -1.79,0 -3.8,2.01 -3.8,3.8zm71.59 -46.22l0.11 0c12.11,0.01 23.65,9.72 27.16,21.68 0.43,1.46 0.66,2.65 0.98,4.28 1.52,7.62 3.71,19.87 5.61,26.57 4.57,16.16 11.45,30.18 21.49,43.46 6.25,8.27 7.78,18.51 3.64,28.13 -3.44,7.98 -11.7,14.51 -20.54,15.73 -3.32,0.46 -13.71,0.3 -18.17,0.26 -3.61,-0.04 -1.2,0.57 -7.04,4.95 -3.81,2.86 -8.26,4.41 -12.82,4.72l-3.41 0c-4.78,-0.32 -9.54,-1.96 -13.69,-4.85 -5.93,-4.12 -2.76,-4.87 -7.18,-4.81 -4.27,0.05 -14.74,0.17 -17.88,-0.26 -3.33,-0.46 -6.71,-1.74 -9.11,-3.18 -1.35,-0.81 -2.48,-1.47 -3.66,-2.49 -0.65,-0.56 -0.9,-0.85 -1.56,-1.37l-4.15 -4.92c-0.81,-1.29 -1.53,-2.48 -2.16,-3.99 -2.03,-4.87 -2.17,-7.09 -2.17,-12.46 0,-5.79 2.85,-11.43 6.02,-15.63 3.64,-4.83 5.57,-7.81 8.67,-12.98l7.22 -14.43c9.43,-23.18 8.8,-39.33 13.66,-51 1.9,-4.58 6.09,-9.2 9.78,-11.87 6.07,-4.39 11.37,-5.55 19.22,-5.56z"/>
 </g>
</svg>
