<svg version="1.1" id="Layer_1" xmlns="http://www.w3.org/2000/svg" xmlns:xlink="http://www.w3.org/1999/xlink" x="0px" y="0px"
	 width="100%" viewBox="0 0 432 736" enable-background="new 0 0 432 736" xml:space="preserve">
<path  opacity="1.000000" stroke="none" 
	d="
M433.000000,288.531342 
	C429.934784,291.912415 431.265717,295.997955 430.685577,299.404388 
	C427.835846,316.137482 423.051849,332.198975 416.610931,347.879608 
	C412.881805,356.958160 405.923859,361.060608 396.897430,362.522125 
	C393.644226,363.048889 392.394897,364.484070 392.308319,367.749054 
	C391.583862,395.066559 384.103760,420.582916 371.445557,444.668610 
	C360.366638,465.749237 345.983795,484.392853 328.611511,500.581848 
	C320.001007,508.605896 310.194092,515.300049 299.898407,521.096497 
	C297.007996,522.723816 295.968750,524.665527 295.989777,527.855286 
	C296.075439,540.852905 296.042755,553.852417 295.900055,566.849487 
	C295.868164,569.754761 297.065063,571.000061 299.757080,571.652649 
	C317.194458,575.879333 334.616211,580.171631 352.023956,584.518860 
	C358.451752,586.124084 364.742096,588.216492 370.627808,591.292542 
	C376.486877,594.354736 378.725433,600.411438 376.316559,606.012512 
	C373.794464,611.876953 367.802277,614.914124 362.028961,612.653381 
	C341.312866,604.541077 319.280060,601.390442 298.024048,595.343811 
	C291.727417,593.552490 284.860413,593.328125 279.471527,588.734009 
	C274.890076,584.828247 272.479004,580.245850 272.582428,574.068298 
	C272.796875,561.259705 272.647156,548.445007 272.647156,534.995422 
	C265.576355,536.997253 258.995758,538.866089 252.411850,540.723206 
	C224.778229,548.517578 197.626770,546.050659 170.805984,536.841248 
	C163.979660,534.497253 163.455627,534.807373 163.524460,542.096802 
	C163.603088,550.424011 163.706451,558.751770 163.903458,567.076782 
	C164.254745,581.919800 160.026367,590.752136 142.269287,594.566101 
	C123.597496,598.576599 104.954460,603.016724 86.688637,608.554688 
	C56.782848,617.621826 38.213692,638.126465 30.508936,668.335754 
	C27.887312,678.614807 28.011425,689.269104 27.459238,699.789307 
	C27.120119,706.250305 25.867258,712.641418 26.308084,719.179321 
	C26.520399,722.328186 27.421707,723.770142 30.693096,723.642273 
	C34.520218,723.492615 38.357666,723.606750 42.190636,723.607056 
	C162.346756,723.615540 282.502869,723.624451 402.658997,723.632202 
	C410.943787,723.632751 411.046936,723.065796 409.980316,714.600037 
	C409.028564,707.046387 409.051483,699.369507 408.654114,691.746460 
	C407.867004,676.647400 406.173584,661.734558 398.644226,648.215027 
	C396.303864,644.012634 393.455170,640.095398 390.887939,636.016907 
	C386.979065,629.807007 387.850372,623.946655 393.268799,619.657349 
	C397.904602,615.987610 404.063904,616.487732 408.758148,621.757751 
	C418.792664,633.023132 424.526520,646.578003 428.429199,660.978088 
	C431.741608,673.200073 431.400787,685.814636 432.322815,698.292114 
	C432.469330,700.275085 432.573761,702.261230 432.848816,704.622925 
	C433.000000,715.655212 433.000000,726.310486 433.000000,737.000000 
	C289.998199,737.000000 146.996399,737.002014 3.994594,736.967529 
	C2.725906,736.967224 0.387821,738.077881 1.000000,734.500000 
	C3.883964,725.297913 2.634034,716.181396 3.461838,707.281616 
	C4.805099,692.840149 4.474171,678.253540 7.470850,663.945129 
	C10.796031,648.068237 17.527109,633.819031 27.502106,621.065002 
	C45.098660,598.565979 68.974686,587.157410 96.342133,581.547546 
	C108.785568,578.996887 121.008179,575.385132 133.402618,572.570251 
	C137.508606,571.637634 139.389664,569.711182 139.342697,565.533264 
	C139.192871,552.206482 139.115082,538.878662 139.085114,525.551086 
	C139.078293,522.517273 137.121475,521.244080 134.868057,519.951477 
	C118.593086,510.615692 104.269432,498.711273 91.748566,484.904175 
	C74.613556,466.008911 61.778294,444.372925 53.764957,420.017731 
	C51.652134,413.596130 49.914841,407.083405 48.572704,400.462402 
	C47.999458,397.634521 46.557106,396.182831 43.558502,395.172943 
	C32.122803,391.321625 22.192545,384.929871 15.634352,374.589233 
	C10.866871,367.072052 10.301974,358.016083 8.641181,349.492401 
	C3.313970,322.151825 0.914816,294.479889 1.693913,266.659637 
	C2.767674,228.317383 9.424532,191.015610 24.387514,155.427063 
	C31.121485,139.410706 38.975735,124.038757 48.821278,109.708717 
	C52.893185,103.782104 60.095734,101.672974 65.219887,105.222641 
	C69.877937,108.449394 73.787407,114.541252 68.446541,122.551605 
	C49.865341,150.420135 37.426395,180.841934 31.056047,213.713715 
	C27.785402,230.590668 25.404705,247.573334 25.315268,264.833740 
	C25.222235,282.788452 25.047365,300.754791 27.454012,318.579559 
	C29.316095,332.371063 31.590858,346.117798 34.673981,359.706055 
	C35.870750,364.980621 40.602615,366.973389 44.555656,370.419861 
	C47.215679,364.243286 47.212727,357.930786 48.962540,352.045135 
	C55.120285,331.333008 65.146187,312.838257 79.162933,296.378815 
	C95.605576,277.070679 114.285866,260.481323 137.012619,249.011337 
	C158.416595,238.208954 180.167542,228.095917 200.888184,215.973190 
	C221.697968,203.798248 241.958496,190.884201 260.465515,175.277100 
	C274.922302,163.085587 288.065552,149.906494 297.655884,133.455963 
	C303.636810,123.196640 307.363037,112.279938 306.572510,100.310005 
	C305.901825,90.155083 303.239227,80.347374 297.667114,71.772324 
	C293.731476,65.715698 286.510254,64.763344 280.111359,63.514732 
	C257.821625,59.165375 238.174362,66.264114 219.938126,78.496391 
	C212.223038,83.671417 205.051636,89.552437 198.336029,95.989502 
	C193.576431,100.551704 186.819183,100.121468 182.018311,95.072243 
	C177.361954,90.175018 177.379211,82.716370 182.607147,78.138176 
	C194.613602,67.623917 206.884232,57.459164 221.382324,50.352448 
	C235.039108,43.658115 249.355026,39.501781 265.781067,38.421028 
	C255.512619,31.685930 245.234009,28.535936 234.552917,26.421547 
	C225.845963,24.697950 216.915497,24.832821 208.286270,25.621861 
	C191.212326,27.183064 174.969482,32.427849 159.783173,40.543118 
	C142.585556,49.733196 126.877365,60.965549 112.297607,73.990028 
	C106.835190,78.869751 101.678436,84.027290 96.379257,89.047127 
	C92.510201,92.712242 88.131790,93.043274 83.429672,91.877632 
	C78.304405,90.607086 76.492310,86.266045 75.671783,81.813446 
	C74.976532,78.040588 77.068085,74.518997 79.621414,71.982681 
	C109.685158,42.119358 142.863434,17.095636 184.682007,5.977159 
	C191.510300,4.161693 198.477448,2.529584 205.661926,2.627208 
	C207.046860,2.646027 208.275894,2.204748 209.711731,1.236954 
	C215.022095,1.000000 220.044189,1.000000 225.827209,1.201941 
	C229.307739,3.280804 232.448273,2.048211 235.313492,2.584015 
	C257.321503,6.699592 277.327332,14.886536 294.450073,29.952785 
	C310.275330,43.877361 321.219025,60.625870 326.879730,80.777962 
	C328.145172,85.283020 330.325745,87.670792 334.565521,89.392387 
	C360.879486,100.077385 380.400726,118.395668 393.216217,143.591309 
	C403.545105,163.898285 408.707001,185.667831 409.351349,208.470505 
	C409.477753,212.944962 410.565063,216.850555 414.206909,219.977783 
	C422.186829,226.830109 426.140564,236.114166 429.367981,245.842651 
	C430.911438,250.495026 430.548096,255.605392 433.000000,260.000000 
	C433.000000,269.354218 433.000000,278.708466 433.000000,288.531342 
M95.431824,313.864349 
	C91.834129,317.394073 89.218437,321.694672 86.595894,325.897949 
	C73.401184,347.045807 65.422409,368.884827 71.138641,394.890533 
	C78.950951,430.432281 96.873077,459.395660 123.598656,483.179169 
	C137.675217,495.706024 153.984283,505.126099 171.521072,512.187134 
	C194.833466,521.573669 218.805466,524.967773 243.516174,518.884583 
	C277.571747,510.500885 306.144012,493.236511 328.618103,466.018616 
	C340.685577,451.404053 350.495758,435.508484 357.930145,418.115387 
	C363.753265,404.492065 366.792786,390.118439 368.479736,375.511963 
	C369.237701,368.948853 369.497467,362.008972 368.197083,355.602600 
	C366.270233,346.109589 363.426971,336.751526 360.211426,327.541779 
	C351.033264,301.254181 338.425995,277.092896 319.258820,256.461090 
	C301.596497,237.449142 280.537842,223.837280 256.821106,213.845978 
	C252.520172,212.034103 249.326492,213.080124 245.867188,215.527283 
	C227.909531,228.230698 208.727386,238.912170 189.383209,249.294907 
	C163.552170,263.159393 135.551727,273.196960 113.618561,293.876526 
	C107.161079,299.964905 101.540565,306.606079 95.431824,313.864349 
M397.625732,332.655060 
	C405.612640,309.718994 411.600250,286.449127 408.544434,261.839752 
	C407.099701,250.204819 403.484589,239.641891 392.972687,232.683975 
	C384.949188,227.373184 377.127838,221.754425 369.268311,216.199463 
	C365.092468,213.248047 363.402557,208.323502 364.609314,203.519653 
	C365.905243,198.360657 369.557922,195.830322 374.415344,194.774689 
	C378.291107,193.932434 381.346985,196.432861 384.716919,197.814301 
	C380.992310,157.447784 358.454651,124.415451 329.690613,113.582001 
	C327.955261,120.474907 326.333160,127.364281 323.576263,133.927002 
	C313.981934,156.765991 297.568359,174.184708 279.276459,190.138977 
	C277.417480,191.760376 275.582092,193.338486 274.859253,196.162674 
	C337.573517,224.556870 371.066254,275.975891 388.229980,339.252014 
	C394.242126,340.799438 396.063873,337.351837 397.625732,332.655060 
z"/>
<path  opacity="1.000000" stroke="none" 
	d="
M310.990845,434.031494 
	C318.729553,421.203522 326.098358,408.598206 330.677429,394.706116 
	C328.227478,392.454437 324.906769,392.750214 322.877686,390.137878 
	C327.017151,384.514099 333.052612,380.850922 337.916473,375.986603 
	C340.011566,373.891327 341.807434,374.986481 342.345764,377.952362 
	C343.524872,384.448334 344.786530,390.929260 345.980377,397.236206 
	C345.109619,398.425507 344.094788,398.353088 343.115692,398.158691 
	C336.154449,396.776825 336.066864,396.730560 333.285248,403.513123 
	C323.151794,428.221954 308.214508,449.940002 291.648254,470.652466 
	C286.986267,476.481232 281.159058,481.270782 276.792847,487.376923 
	C275.464386,489.234802 273.863708,491.542847 271.161652,489.258240 
	C268.466492,486.979401 270.379059,485.065674 272.087830,483.439697 
	C285.502747,470.674652 296.374542,455.850677 306.812195,440.674438 
	C308.225067,438.620148 309.481140,436.458038 310.990845,434.031494 
z"/>
<path  opacity="1.000000" stroke="none" 
	d="
M304.593018,397.064392 
	C301.452484,396.336456 300.532379,398.465820 299.680389,400.447418 
	C291.090424,420.426178 279.533844,438.617188 266.119080,455.637360 
	C260.794434,462.393005 254.937485,468.732117 249.248566,475.195404 
	C247.920029,476.704773 246.362457,478.175964 244.191864,476.195038 
	C242.167282,474.347443 243.485504,472.938263 244.761322,471.569824 
	C255.048508,460.535431 264.719696,449.003998 273.260590,436.547028 
	C281.265350,424.872040 288.467255,412.748566 294.065033,399.716034 
	C294.784607,398.040771 295.650879,396.407776 295.464233,394.366699 
	C293.474152,392.220154 289.820587,392.769562 287.679565,389.763672 
	C293.661774,384.437592 299.094086,378.579437 306.790649,374.139709 
	C308.379120,382.545471 309.818634,390.163116 311.239594,397.682434 
	C308.703430,399.446106 306.887024,397.300293 304.593018,397.064392 
z"/>
</svg>