<svg version="1.1" id="Layer_1" xmlns="http://www.w3.org/2000/svg" xmlns:xlink="http://www.w3.org/1999/xlink" x="0px" y="0px"
	 width="100%" viewBox="0 0 512 512" enable-background="new 0 0 512 512" xml:space="preserve">
<path  opacity="1.000000" stroke="none" 
	d="
M492.968994,262.967560 
	C499.728424,264.971588 499.728394,264.971588 498.015411,271.189301 
	C495.051117,281.948975 495.101990,281.804199 484.226257,277.984375 
	C464.676697,271.118042 448.005646,259.972076 433.347412,245.385391 
	C415.999878,228.122528 399.712372,209.697983 379.846191,195.116379 
	C375.225677,191.724945 370.401306,188.611221 365.047729,184.942841 
	C389.541138,248.589828 378.597992,302.230682 322.362122,341.814056 
	C281.853302,370.327423 226.519501,369.211121 186.983459,338.573883 
	C132.717026,296.521790 124.123108,242.400131 151.632965,180.634537 
	C142.405014,184.841110 134.275314,190.549881 126.398293,196.581909 
	C104.854561,213.079544 84.531174,231.217026 60.920708,244.923096 
	C49.232723,251.708069 37.139912,257.650970 24.796673,263.143158 
	C20.935667,264.861115 19.066851,264.098846 17.778908,260.177246 
	C16.644932,256.724487 14.828228,253.499435 14.033021,249.323044 
	C32.557102,240.923798 50.988655,232.219269 67.529007,220.319733 
	C66.629044,217.418152 64.452438,216.593872 62.813717,215.290436 
	C40.392628,197.456818 27.953995,174.172928 24.810179,145.811249 
	C24.609154,143.997726 24.770912,142.146835 24.686670,140.316879 
	C24.572119,137.828506 25.619520,136.611664 28.197647,136.674835 
	C31.195448,136.748306 34.201359,136.780334 37.195206,136.643463 
	C40.131618,136.509216 41.187149,137.677353 41.441914,140.674225 
	C42.233315,149.983551 43.976509,159.132065 47.639503,167.798874 
	C48.391060,169.577057 48.781731,171.658020 51.243656,173.160156 
	C60.815678,165.475189 70.529465,157.677002 80.242470,149.877838 
	C82.272713,148.247650 80.941154,146.601593 80.254440,144.966217 
	C75.501907,133.648163 72.787804,121.914261 72.619026,109.583237 
	C72.569214,105.943413 73.761093,104.657280 77.475006,104.595596 
	C89.073563,104.402977 89.071312,104.267815 90.252090,116.894554 
	C91.012741,125.028564 93.318230,132.927231 96.439323,137.572800 
	C102.029770,134.114273 107.713593,130.738419 113.243469,127.126884 
	C116.855064,124.768173 122.105370,123.947861 123.950264,120.176208 
	C125.824829,116.343887 122.535698,111.952408 121.960793,107.720001 
	C121.266434,102.608116 120.422043,97.527885 120.647659,92.324295 
	C120.754684,89.855820 121.610214,88.544754 124.191162,88.697456 
	C124.356697,88.707253 124.524315,88.689552 124.690552,88.678505 
	C136.815903,87.873070 136.856934,87.868523 138.199493,100.115143 
	C138.650162,104.226105 139.055481,108.311424 141.066162,112.316536 
	C150.735840,108.720566 160.224274,105.209496 169.697159,101.656929 
	C172.071228,100.766594 171.516388,98.969902 171.122086,97.066559 
	C169.738297,90.386993 168.588181,83.680107 168.625290,76.804535 
	C168.641205,73.858299 169.667221,72.763199 172.688263,72.609398 
	C184.549850,72.005524 184.619019,71.901978 186.120850,83.619865 
	C186.648315,87.735329 186.978806,91.853653 188.715881,96.026306 
	C197.564713,94.475403 206.320496,92.756798 215.135315,91.430504 
	C241.154907,87.515579 267.183319,87.670227 293.239868,91.339767 
	C334.844391,97.198944 373.008057,111.931999 407.909271,135.253983 
	C420.831390,143.888885 432.746552,153.755096 444.133942,164.309479 
	C446.802979,166.783295 446.410217,168.395905 444.106232,170.818054 
	C435.766510,179.585678 435.881836,179.607315 426.807037,171.538391 
	C387.779480,136.836914 342.476410,115.635292 290.737823,108.156418 
	C260.418579,103.773743 230.333191,104.896706 200.408218,111.272736 
	C199.276245,111.513916 198.149643,111.808418 197.053787,112.176918 
	C196.625671,112.320877 196.289368,112.737854 195.508972,113.341797 
	C201.053329,123.215981 208.083939,131.657928 217.475128,138.031998 
	C219.735931,139.566467 222.383087,138.844070 224.804001,138.549103 
	C285.429474,131.162094 340.436401,145.447845 389.857971,181.270676 
	C400.138763,188.722610 409.308411,197.454681 418.349976,206.342163 
	C430.587219,218.370789 442.065826,231.185699 455.176697,242.309509 
	C466.232422,251.689636 478.715027,258.556793 492.968994,262.967560 
M171.399277,299.100861 
	C171.687027,299.509430 171.963394,299.926575 172.264160,300.325317 
	C197.202026,333.386719 230.222290,348.391754 271.453705,343.476257 
	C325.029053,337.089081 365.525726,285.287903 359.999725,231.769394 
	C357.639160,208.908005 349.110260,189.114136 334.031158,171.957443 
	C331.563232,169.149506 328.762360,167.079605 325.145538,165.822952 
	C310.169800,160.619659 294.868652,157.036942 279.109436,155.119507 
	C249.237427,151.484970 220.041824,154.394318 191.343994,163.216766 
	C188.708633,164.026947 186.511017,165.267761 184.575256,167.204422 
	C164.569244,187.219589 154.108017,211.481598 153.468491,239.643082 
	C152.983871,260.983154 159.138168,280.673492 171.399277,299.100861 
M69.757538,198.741257 
	C73.232986,201.301224 76.672737,203.911774 80.198418,206.400574 
	C82.059448,207.714279 84.060043,208.334030 86.150208,206.661407 
	C94.816200,199.726562 103.500465,192.814575 112.800964,185.397385 
	C105.262726,179.782913 98.744263,173.909561 93.433434,166.901443 
	C91.203575,163.958954 89.445229,164.392822 86.950485,166.420929 
	C78.830132,173.022446 70.638504,179.539261 62.363029,185.944916 
	C60.216846,187.606155 60.149380,189.061951 61.863094,190.841644 
	C64.281967,193.353592 66.766388,195.802429 69.757538,198.741257 
M182.962616,125.450752 
	C182.195572,124.169022 181.195801,122.970016 180.705246,121.589996 
	C179.253525,117.506027 176.773193,116.985992 172.978653,118.553093 
	C167.312012,120.893356 161.436356,122.725594 155.756531,125.036667 
	C152.956085,126.176132 149.674728,126.659309 147.540375,129.567291 
	C152.468842,137.892914 158.223419,145.309631 165.785019,151.222031 
	C166.963699,152.143631 168.253021,153.176620 169.850418,152.637390 
	C178.573441,149.692749 187.269714,146.668900 196.733643,143.411209 
	C191.794998,137.440094 186.991699,132.174530 182.962616,125.450752 
M148.427750,158.726837 
	C141.888931,152.130371 136.487900,144.628922 131.584442,136.311783 
	C122.167564,141.852509 113.068054,146.529938 105.246574,153.131775 
	C109.100693,159.927658 119.205025,169.615356 125.382233,172.852219 
	C127.198021,173.803696 128.731064,173.860062 130.515915,172.813538 
	C136.256180,169.447784 142.024902,166.126724 147.856613,162.923050 
	C149.693985,161.913681 150.583145,161.008194 148.427750,158.726837 
z"/>
<path  opacity="1.000000" stroke="none" 
	d="
M212.035736,389.242218 
	C181.897385,383.337524 154.169540,372.473572 128.462234,356.424133 
	C97.400223,337.031677 72.590271,311.361908 52.285538,281.093964 
	C50.508129,278.444427 50.631634,276.777679 53.309669,274.949860 
	C66.216843,266.140442 62.482445,265.819580 70.520897,277.377045 
	C94.479004,311.823303 125.097389,338.265137 163.204453,355.859314 
	C188.221786,367.409973 214.472198,374.384674 242.078049,375.766846 
	C320.350464,379.685822 388.288452,354.562225 446.733673,302.824524 
	C447.855621,301.831329 449.001648,300.862549 450.178162,299.935333 
	C450.554321,299.638916 451.065491,299.513794 451.698273,299.227264 
	C455.403076,301.776337 458.061127,305.440765 461.057465,308.744049 
	C463.541443,311.482422 460.880585,312.933533 459.277924,314.395386 
	C442.608948,329.600128 424.617828,343.005157 405.004303,354.209045 
	C368.346954,375.148956 328.974548,387.767303 287.034454,392.042938 
	C262.106628,394.584229 237.169632,394.218109 212.035736,389.242218 
z"/>
<path  opacity="1.000000" stroke="none" 
	d="
M473.350464,428.000122 
	C473.350708,443.911530 473.350708,459.322906 473.350708,474.734314 
	C473.747986,474.911774 474.145294,475.089203 474.542572,475.266663 
	C479.000458,470.901215 483.642914,466.704742 487.850342,462.109985 
	C490.587952,459.120361 492.348206,459.352417 495.080139,462.154785 
	C503.349060,470.636932 503.446625,470.523743 495.106750,478.858429 
	C486.152740,487.806793 477.150909,496.709106 468.319702,505.777344 
	C465.927094,508.234161 464.286774,508.399231 461.810913,505.873169 
	C451.201752,495.048706 440.481628,484.331268 429.683502,473.695099 
	C427.362457,471.408905 427.412018,469.902344 429.667084,467.551727 
	C438.407440,458.441040 438.374542,458.326477 447.054962,467.164917 
	C449.919128,470.081268 452.500092,473.275726 455.210602,476.342957 
	C455.690247,476.000427 456.169922,475.657898 456.649567,475.315399 
	C456.649567,472.867004 456.649261,470.418610 456.649597,467.970215 
	C456.652527,444.817078 456.763885,421.663025 456.566467,398.511597 
	C456.527405,393.934631 457.913818,392.430756 462.501831,392.577637 
	C475.197235,392.984070 473.172119,391.135040 473.330261,403.514191 
	C473.432373,411.508270 473.349976,419.504700 473.350464,428.000122 
z"/>
<path  opacity="1.000000" stroke="none" 
	d="
M20.522526,33.521729 
	C29.011423,25.021402 37.354561,16.871305 45.434994,8.468575 
	C48.218716,5.573821 50.004726,5.838719 52.679863,8.579681 
	C63.033810,19.188425 73.539207,29.651375 84.107704,40.047142 
	C86.481674,42.382313 86.827507,43.966946 84.313797,46.576096 
	C75.664101,55.554184 75.800362,55.607735 66.857399,46.868893 
	C64.072891,44.147945 61.684078,40.929012 58.085674,38.885773 
	C56.874882,41.034740 57.383747,43.062878 57.380070,44.987759 
	C57.335205,68.474724 57.253941,91.962509 57.429546,115.448235 
	C57.462784,119.893196 56.333382,121.622719 51.583786,121.441483 
	C38.828110,120.954758 40.748608,122.995117 40.685345,110.594925 
	C40.571472,88.274475 40.651981,65.953041 40.651291,43.632019 
	C40.651241,42.000713 40.651279,40.369408 40.651279,38.738098 
	C40.223190,38.428421 39.795097,38.118740 39.367008,37.809063 
	C34.983337,42.463104 30.494667,47.024059 26.255354,51.806076 
	C23.709007,54.678398 21.896954,54.896851 19.031387,51.931488 
	C10.724021,43.334805 10.593144,43.460999 18.853733,35.179543 
	C19.324247,34.707840 19.800251,34.241611 20.522526,33.521729 
z"/>
<path  opacity="1.000000" stroke="none" 
	d="
M483.314117,357.343781 
	C467.530060,370.731140 451.059570,382.542328 433.701782,393.161652 
	C429.896667,395.489563 428.151031,394.904816 426.015198,391.105011 
	C420.462097,381.225586 420.332611,381.393768 430.152740,375.276276 
	C447.570679,364.425751 463.921478,352.147308 479.093597,338.314301 
	C480.432526,337.093506 481.587708,335.606049 483.738342,334.997803 
	C487.424377,337.645599 490.223602,341.378540 493.270233,344.849792 
	C495.004242,346.825470 493.533936,348.172180 492.125671,349.441833 
	C489.283447,352.004333 486.430603,354.555054 483.314117,357.343781 
z"/>
<path  opacity="1.000000" stroke="none" 
	d="
M57.946259,338.052216 
	C63.676311,344.121460 69.234375,349.871735 75.399422,354.964050 
	C78.196152,357.274200 78.381966,359.058929 75.954910,361.911560 
	C67.997795,371.263947 68.078552,371.374359 59.029671,363.202423 
	C51.112335,356.052368 43.987007,348.139465 36.902199,340.181183 
	C34.766872,337.782593 34.756252,336.123352 37.366642,334.097717 
	C49.175030,324.934387 45.305801,324.068573 55.339966,335.219360 
	C56.119011,336.085114 56.911964,336.938354 57.946259,338.052216 
z"/>
<path  opacity="1.000000" stroke="none" 
	d="
M114.878143,404.131958 
	C103.920464,397.820770 93.465858,391.402161 83.794884,383.688385 
	C85.843498,379.059937 89.191429,375.946106 91.717346,372.270996 
	C93.126923,370.220154 94.860138,370.868561 96.473976,372.047729 
	C104.820068,378.145905 113.494110,383.731079 122.471008,388.855164 
	C123.294868,389.325409 124.218781,390.064514 124.535767,390.893158 
	C125.393242,393.134674 118.146896,404.039856 115.661507,404.466400 
	C115.521446,404.490448 115.353874,404.354218 114.878143,404.131958 
z"/>
<path  opacity="1.000000" stroke="none" 
	d="
M411.410736,400.463867 
	C412.973236,403.128235 412.429565,404.758514 409.931122,405.958496 
	C401.114380,410.193085 392.214355,414.228394 383.093079,417.772156 
	C380.891113,418.627686 379.323730,418.579834 378.415955,415.985809 
	C377.001404,411.943573 374.925110,408.125397 374.175201,403.362122 
	C384.546021,398.766968 394.917328,394.171600 405.758301,389.368134 
	C407.676086,393.118744 409.470856,396.628723 411.410736,400.463867 
z"/>
<path  opacity="1.000000" stroke="none" 
	d="
M141.105560,398.967651 
	C150.438919,402.484314 159.359009,406.113037 168.359512,409.529907 
	C171.165649,410.595215 171.910126,412.134735 170.893768,414.851837 
	C165.713516,428.700806 169.216690,427.876007 155.145462,422.838348 
	C148.900665,420.602570 142.886230,417.727661 136.743729,415.200012 
	C134.026108,414.081726 133.264648,412.399567 134.717819,409.744263 
	C136.688110,406.144135 137.561935,401.933594 141.105560,398.967651 
z"/>
<path  opacity="1.000000" stroke="none" 
	d="
M362.445221,419.446594 
	C364.029144,422.989349 363.541290,425.090393 359.714111,426.049774 
	C351.349792,428.146454 343.023773,430.403107 334.719055,432.726471 
	C331.686554,433.574890 330.307434,432.889343 329.446930,429.614349 
	C326.270172,417.523956 326.144958,417.576874 338.034363,414.377380 
	C344.740387,412.572754 351.426636,410.694550 358.187225,408.831421 
	C360.660187,412.002014 361.015350,415.746948 362.445221,419.446594 
z"/>
<path  opacity="1.000000" stroke="none" 
	d="
M208.694382,420.117615 
	C218.380692,421.654022 218.380692,421.654022 217.338501,431.135071 
	C216.547409,438.331787 216.546875,438.335815 209.232880,437.378784 
	C201.477661,436.364075 193.913589,434.427673 186.309555,432.670319 
	C183.516693,432.024872 182.583038,430.946869 183.296844,427.808807 
	C186.165436,415.197784 186.033554,415.186096 198.517471,418.018097 
	C201.754547,418.752441 205.024872,419.340210 208.694382,420.117615 
z"/>
<path  opacity="1.000000" stroke="none" 
	d="
M312.877502,424.540405 
	C314.492523,436.785889 314.497223,436.822266 302.098022,438.420715 
	C296.507233,439.141510 290.894073,439.689423 285.289948,440.305664 
	C282.154572,440.650421 280.578583,439.300262 280.692352,436.077576 
	C280.733307,434.916168 280.683289,433.750549 280.647675,432.587646 
	C280.366791,423.420532 280.373047,423.515900 289.546997,422.713470 
	C295.654877,422.179230 301.768280,421.528351 307.813843,420.532776 
	C311.081146,419.994720 312.526520,420.983398 312.877502,424.540405 
z"/>
<path  opacity="1.000000" stroke="none" 
	d="
M265.231873,427.203979 
	C265.554596,441.384064 265.554504,441.400482 251.984772,441.326324 
	C246.516525,441.296448 241.053497,441.379761 235.600311,440.585785 
	C232.607010,440.149933 231.531570,438.776947 232.049698,435.926239 
	C232.197876,435.110870 232.402481,434.303070 232.503510,433.482239 
	C233.774841,423.151611 233.787369,422.988129 244.325531,424.035370 
	C249.793762,424.578766 255.245300,424.563751 260.710907,424.691803 
	C262.421448,424.731812 264.542267,424.190247 265.231873,427.203979 
z"/>
<path  opacity="1.000000" stroke="none" 
	d="
M285.455688,307.615662 
	C242.490326,324.890778 196.904617,301.363037 186.312943,256.787750 
	C176.863983,217.021591 204.164124,176.152313 244.533218,169.629913 
	C286.687958,162.819016 325.058960,191.924957 329.222015,233.869797 
	C332.318054,265.063568 314.699738,294.923309 285.455688,307.615662 
M279.355042,222.675171 
	C279.571167,221.872574 279.802155,221.073654 280.001007,220.266800 
	C281.492432,214.216568 278.925720,207.808640 273.588379,204.240753 
	C268.016479,200.516083 261.371857,200.646149 255.861588,204.587677 
	C250.808182,208.202393 248.436829,214.975540 250.130447,220.897003 
	C252.096405,227.770615 256.960236,231.679031 263.724152,232.389389 
	C270.659668,233.117798 275.794617,229.540573 279.355042,222.675171 
M278.333923,250.167770 
	C278.558258,249.111771 279.645325,248.164413 278.582062,246.687607 
	C260.910614,253.155212 246.684143,248.051804 235.930191,232.446533 
	C230.589432,243.491043 235.635666,256.608093 246.638931,261.989075 
	C258.726685,267.900421 271.625366,263.290894 278.333923,250.167770 
M214.499268,271.578796 
	C220.926178,266.868683 224.250824,261.426849 218.699280,253.869064 
	C218.512650,253.614960 218.501007,253.237518 218.383133,252.926926 
	C217.214783,249.848450 205.346375,247.593979 203.081512,250.033356 
	C202.298706,250.876465 202.563461,251.860855 202.804916,252.850754 
	C204.353439,259.199341 206.721909,265.207153 210.268967,270.713104 
	C211.138428,272.062744 211.973282,273.940033 214.499268,271.578796 
M216.759155,212.737244 
	C215.267654,211.526031 214.312897,209.501862 211.545822,209.512238 
	C206.877060,216.210480 203.561157,223.543839 202.480316,232.837036 
	C208.056900,231.402573 214.310974,235.857452 217.715240,230.196609 
	C224.006470,219.735123 223.567535,219.471161 216.759155,212.737244 
M306.483887,216.063553 
	C301.399048,206.801453 298.032318,202.837219 293.101105,200.608200 
	C297.659607,209.362671 298.654358,218.151047 295.807892,227.369415 
	C295.085022,229.710342 295.758728,232.369354 298.800659,232.516617 
	C302.860565,232.713135 307.011261,233.245270 311.447144,231.953629 
	C310.830078,226.452957 309.005585,221.545578 306.483887,216.063553 
M291.720490,262.441956 
	C293.193481,266.374115 296.802368,268.468933 299.457214,271.379089 
	C301.003662,273.074219 302.480042,272.357361 303.564087,270.744293 
	C307.775787,264.477173 310.358032,257.616058 311.489410,250.171875 
	C300.170959,247.642624 298.045410,248.647598 293.619049,258.202057 
	C293.059631,259.409607 292.457825,260.597504 291.720490,262.441956 
M252.016464,185.946457 
	C242.128143,186.861740 233.019470,189.714478 225.041107,196.308731 
	C227.789978,200.065552 230.533249,203.020920 234.418686,205.432938 
	C236.927032,200.601227 239.701538,196.308670 243.550980,192.805084 
	C246.545670,190.079453 250.139771,188.355148 253.608276,186.406250 
	C253.432648,186.198792 253.282639,185.956802 253.070053,185.799194 
	C252.970825,185.725601 252.750504,185.815338 252.016464,185.946457 
M261.909760,283.575500 
	C258.633484,280.891144 255.259445,280.626709 252.157120,283.660614 
	C249.953232,285.815887 248.624619,288.401947 250.158630,291.674713 
	C252.031174,295.669739 256.193756,297.423004 259.950836,295.660217 
	C264.374725,293.584625 265.311859,289.204041 261.909760,283.575500 
M232.592972,287.746857 
	C232.269211,283.664612 235.064255,280.139465 235.111389,274.964020 
	C231.291626,278.866669 227.795029,281.583557 225.342545,285.287140 
	C228.646851,289.230164 229.044952,289.401001 232.592972,287.746857 
M287.767975,286.926178 
	C288.823730,286.299530 289.124329,285.401764 288.261749,284.505920 
	C285.370483,281.503143 282.839661,278.075256 278.386047,275.575836 
	C279.849548,280.667175 281.499115,284.879852 281.770935,289.299316 
	C284.361633,289.508301 285.652954,288.018982 287.767975,286.926178 
z"/>
</svg>