<svg version="1.1" id="Layer_1" xmlns="http://www.w3.org/2000/svg" xmlns:xlink="http://www.w3.org/1999/xlink" x="0px" y="0px"
	 width="100%" viewBox="0 0 368 272" enable-background="new 0 0 368 272" xml:space="preserve">
<path  opacity="1.000000" stroke="none" 
	d="
M1.000000,178.416656 
	C10.184454,172.000336 19.681652,166.508606 28.162991,159.420670 
	C41.008591,148.685501 51.645424,135.823593 63.227207,123.876816 
	C78.662018,107.955620 96.141113,95.269943 117.518288,88.582695 
	C135.698090,82.895645 152.698364,84.884979 167.943176,96.948654 
	C169.834763,98.445518 171.222168,98.601471 173.169159,97.050148 
	C191.402115,82.522522 211.213684,83.282913 231.630264,91.356682 
	C239.072617,94.299774 246.154648,98.064758 252.869568,102.430336 
	C256.892242,105.045586 257.747040,109.936562 254.849716,112.577988 
	C251.964951,115.207947 249.090302,114.242470 246.182480,112.415909 
	C236.246948,106.174889 225.811829,101.102905 214.135803,99.003059 
	C199.106674,96.300171 185.612030,98.121132 175.644196,111.391899 
	C172.784821,115.198753 168.579849,115.400848 165.912277,111.795532 
	C154.469116,96.329643 139.068558,95.515701 122.407448,99.908485 
	C102.096405,105.263588 85.941086,117.393715 71.714760,132.319229 
	C57.714008,147.008057 44.825245,162.820496 28.189041,174.807480 
	C27.822634,175.071487 27.620655,175.563721 27.149046,176.216553 
	C29.549946,177.416748 31.964174,177.608521 34.428280,177.665710 
	C54.746563,178.137314 75.084946,178.727692 95.336327,176.602142 
	C117.676392,174.257401 139.474731,169.894867 158.352554,156.561127 
	C160.932373,154.738953 163.294632,152.611465 165.796738,150.675919 
	C169.114502,148.109375 172.398865,147.841721 175.720581,150.785309 
	C193.283447,166.348907 214.667816,172.510986 237.248123,175.653076 
	C260.780212,178.927628 284.438721,178.018295 308.075836,177.610153 
	C310.202820,177.573441 312.320496,177.000702 315.243225,176.554718 
	C310.601135,172.555939 306.539551,169.003525 302.420319,165.519257 
	C291.570679,156.342056 282.391113,145.512878 272.554565,135.335892 
	C269.053558,131.713699 268.722900,127.627258 271.649811,125.246803 
	C275.407654,122.190590 278.371460,124.207039 281.189087,127.057693 
	C290.670959,136.650772 299.339783,147.033234 309.507660,155.963821 
	C317.790985,163.239182 326.435883,169.951996 336.312592,174.976135 
	C340.962860,177.341660 341.914398,181.305664 338.574158,185.112900 
	C308.019745,219.939011 272.698700,248.124420 228.460403,263.818939 
	C217.138062,267.835785 205.490829,270.570129 193.337524,272.820221 
	C177.979111,273.000000 162.958206,273.000000 147.179291,272.769318 
	C144.188370,271.150726 141.578979,271.486542 139.156723,270.968689 
	C99.263428,262.440277 65.056839,243.115204 34.469070,216.562607 
	C22.475912,206.151611 12.481000,193.858749 1.000000,183.000000 
	C1.000000,181.611115 1.000000,180.222214 1.000000,178.416656 
M269.657745,190.176758 
	C253.072433,189.079712 236.429657,188.359970 220.202927,184.369476 
	C216.052856,183.348892 212.584274,183.851151 208.782593,185.764114 
	C195.823120,192.285126 182.209305,196.287857 167.464127,195.328674 
	C154.816025,194.505920 142.963974,190.790253 131.624924,185.386490 
	C128.432083,183.864914 125.542038,183.472931 122.090096,184.260620 
	C102.036995,188.836548 81.628647,189.945038 61.137386,190.314102 
	C48.859627,190.535217 36.640976,189.310898 24.218969,189.011276 
	C24.950651,191.435059 26.754993,192.731537 28.248745,194.204941 
	C47.196865,212.894943 67.946800,229.162018 91.662178,241.478638 
	C138.035095,265.562500 185.449310,269.161255 234.184525,249.072571 
	C265.834564,236.026398 292.411224,215.765747 316.345001,191.702972 
	C317.083344,190.960632 318.315735,190.336334 317.816223,188.468048 
	C302.165344,190.361069 286.400726,190.485916 269.657745,190.176758 
M168.554077,183.670547 
	C178.232956,183.565613 187.560135,181.773453 197.210846,177.920959 
	C188.260590,173.519135 179.900360,169.481049 172.519821,163.778870 
	C171.516571,163.003769 170.486557,162.626968 169.356232,163.516098 
	C161.923981,169.362381 153.413345,173.421860 144.113907,178.022278 
	C152.314835,181.538177 159.789963,183.348145 168.554077,183.670547 
z"/>
<path  opacity="1.000000" stroke="none" 
	d="
M369.000000,37.541935 
	C354.368073,53.916378 339.729889,69.826996 325.108124,85.752701 
	C320.853455,90.386810 316.184082,93.817169 309.370728,91.769432 
	C307.154083,91.103233 306.063477,92.926094 304.771515,94.126884 
	C298.312225,100.130547 291.835846,106.117737 285.478455,112.228279 
	C282.590973,115.003670 279.214966,116.911163 275.347504,117.072990 
	C272.155823,117.206528 270.064392,118.507072 268.106110,120.700150 
	C262.565643,126.904854 256.944489,133.037430 251.399994,139.238602 
	C246.965958,144.197800 243.409744,145.271912 240.420029,142.439148 
	C237.549759,139.719574 238.316086,135.427460 242.358078,131.036285 
	C248.218506,124.669533 254.026398,118.254471 259.868256,111.870567 
	C261.598145,109.980141 262.924988,108.010239 262.625336,105.215004 
	C262.193359,101.185493 263.717834,97.818413 266.219025,94.661064 
	C271.591888,87.878639 276.781616,80.950630 282.012787,74.056793 
	C283.195679,72.497917 284.712769,71.030312 283.814392,68.702263 
	C281.588043,62.933044 283.980255,58.060051 287.601624,54.033596 
	C302.955963,36.961594 318.544556,20.100163 334.074646,3.186688 
	C334.736298,2.466120 335.667267,1.992850 336.736389,1.202192 
	C337.750000,1.000000 338.500000,1.000000 339.882324,1.240291 
	C345.312378,5.685130 345.400085,8.757892 340.981140,13.589131 
	C326.625702,29.284090 312.361603,45.063454 297.893494,60.653645 
	C295.227661,63.526211 295.770813,65.367775 298.360596,67.568077 
	C302.411865,71.010071 306.485657,74.436501 310.359467,78.072418 
	C312.691803,80.261559 314.234650,80.229446 316.451233,77.762238 
	C330.667572,61.938309 345.056885,46.269932 359.318176,30.486124 
	C361.999786,27.518246 364.959045,25.907162 369.000000,27.000000 
	C369.000000,30.361288 369.000000,33.722576 369.000000,37.541935 
M275.040802,103.235306 
	C275.133698,103.512138 275.200317,103.803467 275.338959,104.055099 
	C275.371521,104.114227 275.694214,104.101097 275.804504,104.017326 
	C283.711975,98.011314 290.395020,90.706375 297.696472,84.249374 
	C296.505737,82.024216 295.379181,80.651146 293.105652,79.805153 
	C286.734253,87.022247 281.142609,95.000046 275.040802,103.235306 
z"/>
</svg>