<svg version="1.1" id="Layer_1" xmlns="http://www.w3.org/2000/svg" xmlns:xlink="http://www.w3.org/1999/xlink" x="0px" y="0px"
	 width="100%" viewBox="0 0 416 224" enable-background="new 0 0 416 224" xml:space="preserve">
<path opacity="1.000000" stroke="none" 
	d="
M1.000000,116.000000 
	C1.000000,113.958336 1.000000,111.916664 1.172135,109.144104 
	C2.881250,104.647842 5.432893,101.639832 8.265079,98.778839 
	C18.218882,88.723770 28.544500,79.076927 39.537704,70.166069 
	C71.426247,44.317867 105.768387,22.826891 145.238892,10.321901 
	C159.865570,5.687897 174.908875,3.284183 190.000000,1.000000 
	C202.687561,1.000000 215.375122,1.000000 228.908432,1.111187 
	C246.821609,3.141294 263.577606,6.462222 279.871918,12.016183 
	C320.239319,25.775532 355.174408,48.666294 387.344757,76.109947 
	C397.846466,85.068672 408.198486,94.259193 417.000000,105.000000 
	C417.000000,110.022095 417.000000,115.044182 416.829224,120.820053 
	C402.444244,137.550003 386.200806,151.319443 369.432556,164.457275 
	C339.719574,187.737228 307.390472,206.182983 270.972137,216.987900 
	C258.511292,220.684906 245.697754,222.525208 233.000000,225.000000 
	C217.979111,225.000000 202.958206,225.000000 187.121597,224.834686 
	C162.942322,221.467163 140.370529,215.441727 118.775146,205.867706 
	C77.055275,187.371796 41.715466,159.912613 9.366233,128.212891 
	C5.741891,124.661316 2.602681,120.884758 1.000000,116.000000 
M269.772644,29.875784 
	C244.857330,22.379045 219.581192,18.740068 193.452484,21.184389 
	C168.967316,23.474957 145.770035,29.971838 123.476685,40.112415 
	C121.150627,41.170471 119.838173,42.685314 119.328278,45.249992 
	C117.132454,56.294548 116.625793,67.365379 118.577629,78.480446 
	C127.775612,130.860062 176.071106,164.383484 228.109985,154.542038 
	C277.426117,145.215530 310.770630,95.293564 300.620972,46.075291 
	C299.949799,42.820587 298.347626,40.784092 295.261902,39.521580 
	C287.094604,36.179913 278.980164,32.713436 269.772644,29.875784 
M395.239899,114.982651 
	C397.611511,112.210930 395.103882,110.726578 393.555481,109.204430 
	C373.281891,89.274605 351.160767,71.672050 327.010620,56.648373 
	C325.810547,55.901806 324.624023,54.644287 322.285065,56.131554 
	C323.111023,70.251305 321.756714,84.587273 317.216064,98.474106 
	C312.608582,112.565308 305.689301,125.434570 296.003784,136.680954 
	C286.459106,147.763748 275.311432,156.921036 262.277649,163.723206 
	C249.118469,170.590866 235.144882,174.882111 220.413483,176.103378 
	C196.560303,178.080872 173.798340,173.742813 153.272705,161.168137 
	C113.892799,137.042725 96.126175,101.005814 97.382385,55.200520 
	C96.003006,55.392700 95.469307,55.355270 95.041061,55.549873 
	C94.135391,55.961422 93.257355,56.450813 92.415611,56.983517 
	C68.535568,72.096069 46.430496,89.433380 26.349676,109.355591 
	C23.498268,112.184471 23.671673,113.906929 26.468645,116.631187 
	C50.090729,139.639145 75.644615,160.118515 104.462112,176.290146 
	C134.195145,192.975540 165.915512,203.648651 200.107834,205.477707 
	C231.894958,207.178116 262.331329,200.700851 291.490295,188.063126 
	C330.917023,170.975281 364.246155,145.207535 395.239899,114.982651 
z"/>
<path opacity="1.000000" stroke="none" 
	d="
M270.772797,86.968979 
	C263.657471,90.816864 257.272339,90.439064 252.405243,86.121788 
	C247.869873,82.098763 246.251785,75.275078 248.517212,69.725639 
	C250.885941,63.923161 255.781219,60.645626 262.082153,60.643543 
	C268.324036,60.641479 273.151947,63.734451 275.448456,69.206573 
	C278.046936,75.398163 276.539978,81.447235 270.772797,86.968979 
z"/>
</svg>