<?xml version="1.0" standalone="no"?>
<!DOCTYPE svg PUBLIC "-//W3C//DTD SVG 20010904//EN"
 "http://www.w3.org/TR/2001/REC-SVG-20010904/DTD/svg10.dtd">
<svg version="1.0" xmlns="http://www.w3.org/2000/svg"
 width="265.000000pt" height="416.000000pt" viewBox="0 0 265.000000 416.000000"
 preserveAspectRatio="xMidYMid meet">

<g transform="translate(0.000000,416.000000) scale(0.100000,-0.100000)" stroke="none">
<path d="M1205 4096 c-235 -46 -405 -203 -405 -375 0 -33 -4 -38 -58 -68 -99
-54 -239 -169 -301 -247 -69 -87 -149 -240 -184 -352 -73 -230 -86 -511 -34
-711 l14 -53 -32 -6 c-85 -16 -125 -71 -125 -171 1 -157 87 -335 197 -403 l41
-25 10 -105 c28 -269 145 -502 362 -719 53 -53 133 -123 179 -156 82 -60 82
-60 77 -97 -11 -68 -55 -192 -88 -248 -50 -83 -97 -104 -299 -135 -90 -14
-180 -30 -199 -36 -137 -44 -160 -61 -140 -100 13 -24 32 -24 97 1 70 26 116
36 279 60 259 37 334 103 406 355 12 44 23 81 23 82 1 2 33 -13 71 -32 90 -47
162 -65 254 -65 92 0 164 18 254 65 38 19 70 34 71 32 0 -1 11 -38 23 -82 72
-252 147 -318 406 -355 163 -24 209 -34 279 -60 65 -25 84 -25 97 -1 20 39 -3
56 -140 100 -19 6 -109 22 -199 36 -202 31 -249 52 -299 135 -33 56 -77 180
-88 248 -5 37 -5 37 77 97 45 33 126 103 178 155 218 217 335 450 363 720 l10
105 41 25 c110 68 196 246 197 403 0 101 -40 155 -126 171 -31 6 -33 8 -23 34
19 49 39 216 39 326 0 218 -48 427 -141 606 -87 168 -199 283 -379 390 l-86
51 -2 52 c-10 239 -364 419 -697 353z m309 -86 c152 -39 270 -129 300 -229 7
-25 12 -47 11 -49 -1 -1 -42 11 -91 27 -240 81 -511 80 -758 0 -49 -16 -91
-27 -93 -25 -10 10 10 67 38 110 100 150 366 224 593 166z m119 -304 c266 -69
525 -248 638 -442 131 -224 188 -527 149 -799 -17 -114 -18 -115 -53 -44 -48
99 -147 191 -282 263 -286 152 -385 252 -419 419 -20 98 -68 105 -91 15 -16
-66 -55 -119 -127 -178 -74 -59 -320 -184 -463 -235 -309 -110 -408 -167 -567
-326 l-97 -97 -11 36 c-6 20 -18 82 -26 137 -40 255 19 578 146 796 133 227
424 415 735 475 114 22 347 12 468 -20z m4 -758 c51 -104 178 -210 388 -323
149 -79 225 -146 269 -236 30 -63 56 -150 56 -191 0 -17 8 -31 19 -38 27 -14
29 -13 54 14 33 35 60 40 90 15 24 -18 27 -28 27 -78 0 -141 -81 -290 -195
-357 l-42 -24 -6 -93 c-18 -266 -112 -475 -312 -684 -159 -168 -374 -323 -503
-363 -83 -26 -181 -26 -264 0 -129 40 -344 195 -503 363 -200 209 -294 418
-312 684 l-6 93 -42 24 c-114 67 -195 216 -195 357 0 50 3 60 27 78 30 25 57
20 90 -15 36 -38 37 -37 131 77 88 109 229 224 287 235 19 3 35 13 38 23 5 19
34 32 252 111 273 100 490 221 580 323 22 25 42 46 46 46 3 1 14 -18 26 -41z"/>
<path d="M1250 2545 c0 -34 1 -35 40 -35 33 0 40 3 40 19 0 38 -11 51 -46 51
-32 0 -34 -2 -34 -35z"/>
<path d="M1367 2553 c-7 -38 -2 -43 44 -43 40 0 44 5 33 48 -5 17 -14 22 -39
22 -28 0 -33 -4 -38 -27z"/>
<path d="M1130 2536 c0 -35 1 -36 41 -36 39 0 40 1 37 33 -3 29 -6 32 -40 35
-37 3 -38 3 -38 -32z"/>
<path d="M1486 2545 c-9 -36 0 -45 45 -45 32 0 39 4 39 19 0 38 -11 51 -45 51
-27 0 -34 -5 -39 -25z"/>
<path d="M1606 2545 c-9 -36 0 -45 45 -45 40 0 44 5 33 48 -5 17 -14 22 -39
22 -27 0 -34 -5 -39 -25z"/>
<path d="M1010 2530 c0 -28 2 -30 40 -30 38 0 40 2 40 30 0 28 -2 30 -40 30
-38 0 -40 -2 -40 -30z"/>
<path d="M1729 2545 c-1 -8 -2 -21 -3 -27 -1 -8 16 -15 42 -19 34 -4 42 -2 42
10 0 26 -13 37 -47 44 -25 5 -33 3 -34 -8z"/>
<path d="M908 2543 c-10 -2 -18 -13 -18 -24 0 -16 7 -19 40 -19 36 0 40 3 40
25 0 25 -16 30 -62 18z"/>
<path d="M1850 2515 c0 -22 4 -25 40 -25 47 0 57 26 13 36 -16 3 -34 7 -40 10
-8 2 -13 -6 -13 -21z"/>
<path d="M788 2523 c-36 -9 -20 -33 22 -33 33 0 40 3 40 20 0 20 -20 24 -62
13z"/>
<path d="M1970 2501 c0 -11 25 -21 56 -21 30 0 31 16 2 24 -33 8 -58 7 -58 -3z"/>
<path d="M745 2291 c-101 -36 -155 -70 -155 -95 0 -13 7 -29 15 -36 13 -11 29
-7 94 24 43 20 94 39 112 42 19 3 92 -4 163 -15 138 -23 156 -20 156 24 0 29
-27 39 -171 60 -133 19 -152 19 -214 -4z"/>
<path d="M1735 2295 c-138 -22 -165 -31 -165 -59 0 -45 17 -48 156 -25 71 11
144 18 163 15 18 -3 69 -22 112 -42 85 -40 109 -37 109 13 0 21 -12 30 -86 65
-102 47 -157 54 -289 33z"/>
<path d="M696 1995 c-12 -32 -6 -45 32 -64 62 -32 149 -44 216 -32 65 12 86
25 86 51 0 34 -24 42 -88 30 -50 -10 -69 -9 -123 5 -102 28 -115 29 -123 10z"/>
<path d="M1930 1999 c-60 -24 -119 -31 -175 -19 -61 13 -85 4 -85 -30 0 -26
21 -39 86 -51 91 -17 254 25 254 65 0 44 -27 56 -80 35z"/>
<path d="M1234 1507 c-18 -48 29 -81 116 -81 75 0 115 20 115 59 0 28 -2 30
-35 27 -81 -5 -117 -5 -152 3 -30 6 -39 4 -44 -8z"/>
<path d="M1060 1085 c-47 -57 114 -128 290 -128 144 0 295 52 295 102 0 42
-26 48 -92 18 -121 -54 -286 -55 -401 -2 -63 29 -75 30 -92 10z"/>
</g>
</svg>
