<svg version="1.1" id="Layer_1" xmlns="http://www.w3.org/2000/svg" xmlns:xlink="http://www.w3.org/1999/xlink" x="0px" y="0px"
	 width="100%" viewBox="0 0 336 336" enable-background="new 0 0 336 336" xml:space="preserve">
<path opacity="1.000000" stroke="none" 
	d="
M179.463165,337.000000 
	C181.044113,329.633026 183.057953,322.257477 185.140411,314.901367 
	C187.493057,306.590729 187.489639,306.655151 179.664261,302.491821 
	C163.384674,293.830627 148.338531,283.505676 135.799072,269.805756 
	C131.394821,264.993896 127.553848,259.776398 123.970291,254.340714 
	C122.141159,251.566208 122.217194,249.622162 125.501350,247.988098 
	C133.180695,244.167206 131.446136,243.245956 136.420715,250.622696 
	C146.881302,266.134644 161.102463,277.668121 177.064438,286.992249 
	C206.838760,304.384827 238.928818,315.635132 272.886139,321.376801 
	C280.875854,322.727753 288.729401,321.085358 294.195190,314.321075 
	C299.765411,307.427643 300.145905,299.510132 296.325928,291.763824 
	C292.931976,284.881348 292.317810,278.077820 295.021362,271.041595 
	C296.170349,268.051208 294.653809,266.716766 292.606567,265.356934 
	C287.055145,261.669556 281.507690,257.976135 275.947113,254.302597 
	C273.352509,252.588470 271.039093,250.626343 271.340790,247.156067 
	C271.651306,243.584213 274.491180,242.329025 277.344818,241.194931 
	C283.070801,238.919373 288.774933,236.586517 294.532715,234.394623 
	C296.865448,233.506622 298.560425,232.190048 299.305023,229.724777 
	C301.036896,223.990677 303.103394,218.341034 304.509155,212.530106 
	C305.715118,207.544968 308.506378,204.315842 312.995941,202.156052 
	C325.590515,196.097153 327.497681,185.524658 317.826477,175.348816 
	C311.973419,169.190323 305.951233,163.192245 300.114624,157.018478 
	C295.394196,152.025406 291.626312,146.367111 288.618378,140.159103 
	C283.214417,129.005966 283.422241,117.984238 290.707733,108.028801 
	C297.666901,98.519302 297.388763,89.094009 293.223633,78.886909 
	C286.711395,62.927998 277.509949,48.413723 269.163574,33.437325 
	C268.832092,32.842514 268.657898,32.160061 267.990112,30.428797 
	C262.557159,41.981590 257.900330,51.887104 252.439789,61.383945 
	C233.169876,94.897614 209.369843,124.296638 176.452789,145.461273 
	C160.015091,156.030197 142.120728,163.069992 123.057503,167.147049 
	C115.498138,168.763748 113.871193,167.547012 111.617500,160.070831 
	C110.950279,157.857452 110.065079,155.651505 108.914047,153.652756 
	C104.890671,146.666229 99.560036,143.414841 94.247299,144.460403 
	C88.354576,145.620087 81.784760,153.335358 81.389908,160.217529 
	C80.611176,173.790726 84.467117,186.205002 91.641914,197.625122 
	C93.054222,199.873123 94.972160,201.784393 97.448135,202.999527 
	C102.429314,205.444168 103.815834,205.014145 106.564682,200.125565 
	C109.154831,195.519241 113.519989,197.721268 116.845390,198.098083 
	C120.272392,198.486435 118.407402,201.972610 118.011230,203.924942 
	C116.576294,210.996277 111.770203,215.042679 104.548706,216.876846 
	C107.598267,224.882874 110.698624,232.394989 112.320084,240.372910 
	C115.202805,254.556549 114.023933,268.407013 109.583778,282.161438 
	C103.346756,301.482147 94.363045,319.424255 83.179016,336.707153 
	C78.310745,337.000000 73.621490,337.000000 68.466118,337.000000 
	C79.145050,320.738800 88.346848,303.509064 95.661270,285.137146 
	C107.030090,256.581665 101.400177,231.047653 83.360901,207.377747 
	C75.228912,196.707520 71.671577,184.444824 69.584396,171.466187 
	C68.246696,163.148056 68.647011,155.175278 72.672218,147.718216 
	C77.762581,138.287888 85.589378,131.998184 96.481026,131.975647 
	C107.969070,131.951874 115.791374,138.965958 120.315971,148.980606 
	C122.618736,154.077484 125.171478,154.232224 129.797623,152.928314 
	C161.498215,143.993301 186.877060,125.430367 208.488159,101.285324 
	C230.705826,76.462631 247.454559,48.203541 259.845551,17.323132 
	C260.915131,14.657575 262.001068,12.073831 265.479950,11.706689 
	C269.036194,11.331387 270.981659,13.270018 272.684570,15.995768 
	C284.159576,34.363144 295.317902,52.916862 303.977753,72.814087 
	C306.622864,78.891602 308.237427,85.326485 308.419189,92.137421 
	C308.609711,99.276855 306.598145,105.509644 302.858856,111.459412 
	C295.134369,123.750153 295.392517,130.164597 303.827026,142.050385 
	C310.718384,151.761612 319.818634,159.441452 327.849945,168.105209 
	C335.887451,176.775635 338.498962,186.735199 334.020660,198.023880 
	C331.589691,204.151779 327.393005,208.842224 321.384338,211.563797 
	C318.247253,212.984711 316.256470,214.817307 315.503235,218.282593 
	C314.799774,221.518921 313.561127,224.641418 312.517609,227.800674 
	C311.310120,231.456467 309.883820,235.109940 313.332397,238.404068 
	C313.444489,238.511154 313.471100,238.704330 313.548706,238.851486 
	C314.533051,240.717667 315.055481,243.209579 314.166504,244.650009 
	C309.607483,252.036942 317.782532,260.976440 310.852325,268.089447 
	C304.843872,274.256348 304.957367,281.036926 308.142059,289.162231 
	C317.226013,312.338928 302.449493,333.157562 277.693817,333.379272 
	C260.355103,333.534576 244.365646,327.670349 228.194504,322.703857 
	C218.524551,319.734009 209.102600,315.956604 198.991089,312.335175 
	C196.160660,320.234283 193.927643,328.153320 192.039871,336.597107 
	C187.975449,337.000000 183.950912,337.000000 179.463165,337.000000 
M299.185394,250.690643 
	C299.365692,249.150497 300.633240,247.728882 299.722687,245.859985 
	C296.882935,246.676559 293.950043,247.028366 291.729919,249.679565 
	C292.943878,250.605591 293.806427,251.370621 294.771332,251.971146 
	C295.861694,252.649734 296.748901,253.823532 298.522186,253.601486 
	C298.681122,252.873489 298.851471,252.093033 299.185394,250.690643 
z"/>
<path opacity="1.000000" stroke="none" 
	d="
M29.464651,337.000000 
	C35.239384,324.061676 37.612000,310.224945 38.951218,296.058716 
	C40.431126,280.404327 40.221825,264.747314 38.332081,249.236618 
	C36.282070,232.410507 31.594749,216.051636 27.317699,199.650085 
	C21.995483,179.240540 16.427855,158.914093 12.387947,138.159409 
	C8.162613,116.452110 14.125229,97.172073 24.662701,78.987854 
	C42.051884,48.979813 68.599617,29.009890 98.943352,13.492178 
	C102.304573,11.773260 104.315346,12.541270 105.331802,16.076145 
	C106.221016,19.168541 109.792572,21.995714 104.066093,24.928196 
	C75.748070,39.429607 50.976295,58.189629 34.738377,86.325508 
	C26.884880,99.933479 21.518990,114.458122 23.601254,130.555359 
	C25.500134,145.234894 29.285540,159.551392 33.032879,173.859406 
	C39.091358,196.991791 46.235474,219.895981 49.721668,243.607605 
	C52.066566,259.556671 52.878433,275.621490 51.632549,291.836853 
	C50.465672,307.024017 47.889263,321.802979 43.068874,336.618317 
	C38.643101,337.000000 34.286201,337.000000 29.464651,337.000000 
z"/>
<path opacity="1.000000" stroke="none" 
	d="
M188.204468,81.205566 
	C198.171280,67.792290 202.595428,52.787079 203.590942,36.698505 
	C204.168259,27.368490 204.908905,26.583115 215.038467,28.212339 
	C216.327545,41.055119 214.559601,53.545040 210.288361,65.780838 
	C204.146545,83.375359 193.225235,97.264778 178.023392,107.893936 
	C175.782608,109.460701 173.404541,111.368965 171.624023,107.462349 
	C170.194366,104.325531 165.150299,101.463806 171.096039,97.655457 
	C177.744965,93.396721 183.231277,87.791649 188.204468,81.205566 
z"/>
<path opacity="1.000000" stroke="none" 
	d="
M175.439636,43.192802 
	C171.927902,59.578480 164.325027,72.733803 149.923508,81.313263 
	C147.826843,82.562325 145.448685,84.118706 144.398315,80.617188 
	C143.473816,77.535225 137.878021,74.524948 143.374542,70.952553 
	C157.768585,61.597294 163.521561,47.665859 164.745148,31.290657 
	C165.015610,27.670862 166.105240,24.084482 165.152267,20.380617 
	C164.756424,18.842169 165.840347,18.123695 167.260010,17.537685 
	C174.306808,14.628928 177.257858,16.515650 177.356033,23.990265 
	C177.439301,30.329178 177.114227,36.610069 175.439636,43.192802 
z"/>
<path opacity="1.000000" stroke="none" 
	d="
M112.763641,80.609848 
	C114.616333,80.169739 116.063423,79.806786 117.511215,79.446663 
	C127.047287,77.074593 128.241440,78.077873 128.260193,89.096970 
	C121.876564,90.725693 115.340302,92.414169 108.789825,94.045586 
	C107.600517,94.341782 106.641220,94.044586 105.857086,92.835464 
	C102.030518,86.935051 103.385117,83.036072 109.958015,81.340469 
	C110.760788,81.133392 111.558372,80.906181 112.763641,80.609848 
z"/>
<path opacity="1.000000" stroke="none" 
	d="
M202.219635,276.892700 
	C181.735550,268.343201 167.982010,253.850372 161.035339,232.129654 
	C159.678436,234.020859 158.887878,234.729111 158.589951,235.604950 
	C157.168259,239.784531 154.827194,239.729187 151.339142,237.834045 
	C145.207733,234.502716 145.158524,234.688828 148.289154,228.627945 
	C150.809494,223.748535 153.189209,218.796692 155.680984,213.902252 
	C158.337997,208.683182 161.052094,207.612259 166.158417,210.041611 
	C172.019455,212.830032 177.709152,215.983261 183.601776,218.699219 
	C188.432480,220.925766 185.716766,223.677505 184.487900,226.397461 
	C183.221634,229.200272 182.118652,232.259735 178.021561,229.669098 
	C176.647720,228.800400 175.025360,228.324722 172.650452,227.293198 
	C176.844391,241.630905 184.282043,252.498276 196.428329,259.994385 
	C206.839188,266.419525 218.350143,270.385468 229.614105,274.920013 
	C242.892166,280.265381 256.168060,285.631958 269.824005,289.927643 
	C275.894287,291.837097 272.616638,295.380463 271.973511,298.587097 
	C271.231689,302.285980 269.352325,302.772858 265.834717,301.553406 
	C244.447540,294.138977 223.400986,285.864624 202.219635,276.892700 
z"/>
<path opacity="1.000000" stroke="none" 
	d="
M284.644714,194.821198 
	C289.165710,188.005661 295.456329,185.145126 303.324249,185.776352 
	C305.337433,185.937866 307.489136,186.482269 308.251190,188.545929 
	C308.940002,190.411255 306.946350,191.356247 305.971893,192.624069 
	C302.728088,196.844452 297.601654,198.454742 293.580353,201.596680 
	C292.243134,202.641495 291.058350,201.991516 290.076538,200.962494 
	C288.256226,199.054733 286.493286,197.092270 284.644714,194.821198 
z"/>
</svg>