<svg xmlns="http://www.w3.org/2000/svg" version="1.1" xmlns:xlink="http://www.w3.org/1999/xlink" xmlns:svgjs="http://svgjs.com/svgjs" width="512" height="512" x="0" y="0" viewBox="0 0 512 512" style="enable-background:new 0 0 512 512" xml:space="preserve" class="">
<g><g>
<path d="m58.522 193.253h48.676c17.92 0 32.5 14.579 32.5 32.5v37.034c0 4.143 3.358 7.5 7.5 7.5s7.5-3.357 7.5-7.5v-37.034c0-12.56-4.901-23.997-12.89-32.5h119.517c-6.366 6.776-10.771 15.414-12.298 25h-12.388c-12.692 0-23.018 10.325-23.018 23.018v36.791c0 12.692 10.326 23.018 23.018 23.018h11.795v45.933h-93.736v-49.225c0-4.143-3.358-7.5-7.5-7.5s-7.5 3.357-7.5 7.5v127.365c0 28.434 23.133 51.566 51.566 51.566 39.794 0 72.17-32.375 72.17-72.17v-178.796c0-17.921 14.579-32.5 32.5-32.5h137.08c43.553 0 78.985-35.434 78.985-78.986s-35.433-78.985-78.985-78.985h-333.565c-54.85-.001-99.449 44.626-99.449 99.448 0 32.27 26.253 58.523 58.522 58.523zm178.117 92.826c-4.421 0-8.018-3.597-8.018-8.018v-36.791c0-4.421 3.597-8.018 8.018-8.018h11.795v52.826h-11.795zm11.795 75.933v25h-93.736v-25zm-57.17 99.707c-20.163 0-36.566-16.403-36.566-36.566v-23.141h93.736v2.537c0 31.523-25.646 57.17-57.17 57.17zm305.736-347.451c0 35.281-28.704 63.985-63.985 63.985h-145.751c-35.282 0-63.986-28.704-63.986-63.986 0-35.281 28.704-63.985 63.986-63.985h145.751c35.281-.001 63.985 28.703 63.985 63.986zm-262.736-63.987h6.739c-19.814 14.365-32.725 37.697-32.725 63.986 0 26.29 12.911 49.62 32.725 63.985h-6.739c-35.282 0-63.986-28.704-63.986-63.986 0-35.281 28.704-63.985 63.986-63.985zm-134.815 0h88.553c-23.294 16.888-36.164 45.436-31.935 75.164h-30.572c-4.142 0-7.5 3.357-7.5 7.5s3.358 7.5 7.5 7.5h34.242c5.389 15.298 15.363 28.454 28.266 37.808h-129.481c-22.061 0-40.341-16.5-43.148-37.808h75.12c4.142 0 7.5-3.357 7.5-7.5s-3.358-7.5-7.5-7.5h-74.987c4.638-42.213 40.514-75.164 83.942-75.164z" data-original="#000000">
</path>
<path d="m272.102 81.237v66.06c0 7.456 6.066 13.523 13.523 13.523h99.793c4.143 0 7.5-3.357 7.5-7.5s-3.357-7.5-7.5-7.5h-6.392l54.151-54.151v54.151h-12.759c-4.143 0-7.5 3.357-7.5 7.5s3.357 7.5 7.5 7.5h14.235c7.457 0 13.523-6.066 13.523-13.523v-66.06c0-7.457-6.068-13.522-13.523-13.522h-149.028c-7.457 0-13.523 6.066-13.523 13.522zm109.895 1.478-63.105 63.105h-22.912l63.105-63.105zm-41.891 63.105 63.105-63.105h17.704l-63.105 63.105zm-2.235-63.105-50.77 50.77v-50.77z" data-original="#000000"></path></g></g></svg>