<svg xmlns="http://www.w3.org/2000/svg" xmlns:xlink="http://www.w3.org/1999/xlink" version="1.1" width="256" height="256" viewBox="0 0 256 256" xml:space="preserve">

<defs>
</defs>
<g style="stroke: none; stroke-width: 0; stroke-dasharray: none; stroke-linecap: butt; stroke-linejoin: miter; stroke-miterlimit: 10; fill: none; fill-rule: nonzero; opacity: 1;" transform="translate(1.4065934065934016 1.4065934065934016) scale(2.81 2.81)" >
	<path d="M 89.972 43.805 c 0.01 -0.039 0.016 -0.077 0.021 -0.117 c 0.011 -0.086 0.009 -0.173 -0.003 -0.261 c -0.003 -0.025 0.004 -0.048 -0.001 -0.073 c -0.002 -0.011 -0.01 -0.018 -0.013 -0.029 c -0.004 -0.015 -0.002 -0.03 -0.006 -0.045 c -0.031 -0.103 -0.077 -0.198 -0.136 -0.283 c -0.011 -0.017 -0.028 -0.028 -0.041 -0.044 c -0.06 -0.076 -0.128 -0.143 -0.207 -0.199 c -0.033 -0.024 -0.069 -0.04 -0.105 -0.06 c -0.068 -0.037 -0.139 -0.066 -0.216 -0.086 c -0.041 -0.011 -0.08 -0.021 -0.122 -0.026 c -0.026 -0.004 -0.05 -0.015 -0.076 -0.016 c -9.677 -0.557 -17.825 -2.997 -24.214 -7.251 c -5.449 -3.651 -11.035 -4.773 -15.336 -3.081 c -1.981 0.78 -3.527 2.103 -4.519 3.829 c -0.991 -1.726 -2.538 -3.048 -4.519 -3.829 c -4.297 -1.694 -9.887 -0.569 -15.334 3.079 c -6.391 4.256 -14.539 6.696 -24.216 7.253 c -0.027 0.002 -0.052 0.013 -0.078 0.017 c -0.039 0.005 -0.074 0.014 -0.111 0.024 C 0.659 42.629 0.583 42.66 0.509 42.7 c -0.031 0.017 -0.061 0.031 -0.09 0.052 C 0.337 42.81 0.264 42.88 0.202 42.96 c -0.011 0.014 -0.025 0.023 -0.035 0.038 c -0.06 0.087 -0.109 0.184 -0.139 0.291 c -0.004 0.013 -0.002 0.026 -0.005 0.039 c -0.002 0.01 -0.01 0.017 -0.012 0.027 c -0.005 0.025 0.003 0.049 -0.001 0.074 c -0.012 0.089 -0.015 0.176 -0.003 0.263 c 0.005 0.04 0.012 0.077 0.021 0.115 c 0.021 0.082 0.053 0.158 0.093 0.233 c 0.016 0.03 0.028 0.061 0.047 0.089 c 0.065 0.095 0.143 0.183 0.241 0.252 c 0.001 0.001 0.003 0.002 0.004 0.003 c 0 0 0.001 0.001 0.001 0.001 C 15.46 55.068 30.481 60.409 45.378 60.409 c 14.895 0 29.665 -5.341 44.204 -16.023 c 0.003 -0.002 0.005 -0.003 0.007 -0.005 c 0.005 -0.003 0.009 -0.006 0.014 -0.01 c 0.093 -0.069 0.169 -0.153 0.231 -0.245 c 0.019 -0.028 0.029 -0.058 0.045 -0.087 C 89.92 43.963 89.952 43.887 89.972 43.805 z M 26.259 36.976 c 4.895 -3.28 9.81 -4.33 13.49 -2.881 c 2.221 0.875 3.741 2.621 4.278 4.916 c 0.106 0.452 0.509 0.772 0.974 0.772 c 0.464 0 0.868 -0.32 0.974 -0.772 c 0.537 -2.295 2.057 -4.042 4.278 -4.916 c 3.678 -1.449 8.594 -0.399 13.491 2.883 c 5.176 3.446 11.43 5.742 18.638 6.878 c -24.834 4.555 -49.923 4.556 -74.76 0 C 14.829 42.721 21.083 40.424 26.259 36.976 z M 5.703 45.536 C 18.754 48.03 31.877 49.284 45 49.284 c 13.188 0 26.375 -1.268 39.489 -3.786 C 58.74 62.627 32.274 62.64 5.703 45.536 z" style="stroke: none; stroke-width: 1; stroke-dasharray: none; stroke-linecap: butt; stroke-linejoin: miter; stroke-miterlimit: 10; fill: rgb(0,0,0); fill-rule: nonzero; opacity: 1;" transform=" matrix(1 0 0 1 0 0) " stroke-linecap="round" />
	<path d="M 11.553 56.545 c -0.232 0 -0.466 -0.08 -0.655 -0.245 l -0.378 -0.328 c -0.417 -0.362 -0.462 -0.993 -0.099 -1.41 c 0.361 -0.419 0.993 -0.464 1.411 -0.1 l 0.378 0.328 c 0.417 0.362 0.462 0.993 0.099 1.41 C 12.111 56.428 11.833 56.545 11.553 56.545 z" style="stroke: none; stroke-width: 1; stroke-dasharray: none; stroke-linecap: butt; stroke-linejoin: miter; stroke-miterlimit: 10; fill: rgb(0,0,0); fill-rule: nonzero; opacity: 1;" transform=" matrix(1 0 0 1 0 0) " stroke-linecap="round" />
	<path d="M 47.209 71.226 c -0.529 0 -0.972 -0.416 -0.998 -0.951 c -0.027 -0.551 0.399 -1.021 0.95 -1.048 c 0.328 -0.016 0.656 -0.036 0.985 -0.061 c 0.549 -0.038 1.032 0.371 1.073 0.922 c 0.042 0.551 -0.371 1.031 -0.922 1.073 c -0.346 0.026 -0.692 0.047 -1.037 0.064 C 47.242 71.226 47.225 71.226 47.209 71.226 z M 43.159 71.208 c -0.02 0 -0.039 -0.001 -0.059 -0.002 c -0.345 -0.02 -0.692 -0.044 -1.037 -0.073 c -0.55 -0.046 -0.959 -0.529 -0.913 -1.08 c 0.046 -0.55 0.528 -0.969 1.08 -0.912 c 0.329 0.027 0.658 0.05 0.987 0.069 c 0.551 0.031 0.972 0.505 0.941 1.056 C 44.125 70.798 43.685 71.208 43.159 71.208 z M 52.24 70.651 c -0.475 0 -0.897 -0.339 -0.984 -0.823 c -0.098 -0.543 0.264 -1.064 0.808 -1.161 c 0.323 -0.058 0.647 -0.121 0.969 -0.187 c 0.541 -0.108 1.07 0.238 1.18 0.779 s -0.238 1.07 -0.779 1.18 c -0.338 0.069 -0.677 0.135 -1.016 0.196 C 52.358 70.646 52.299 70.651 52.24 70.651 z M 38.131 70.592 c -0.061 0 -0.124 -0.006 -0.186 -0.018 c -0.34 -0.063 -0.681 -0.132 -1.021 -0.205 c -0.54 -0.116 -0.884 -0.648 -0.768 -1.188 c 0.116 -0.539 0.645 -0.887 1.188 -0.768 c 0.324 0.069 0.648 0.134 0.971 0.195 c 0.543 0.102 0.9 0.625 0.798 1.167 C 39.023 70.257 38.603 70.592 38.131 70.592 z M 57.156 69.446 c -0.427 0 -0.822 -0.275 -0.955 -0.704 c -0.164 -0.527 0.132 -1.088 0.659 -1.251 c 0.314 -0.098 0.627 -0.198 0.943 -0.305 c 0.524 -0.175 1.091 0.106 1.267 0.63 c 0.176 0.524 -0.106 1.09 -0.63 1.267 c -0.329 0.11 -0.658 0.217 -0.988 0.318 C 57.354 69.432 57.254 69.446 57.156 69.446 z M 33.216 69.356 c -0.099 0 -0.2 -0.015 -0.299 -0.046 c -0.329 -0.103 -0.658 -0.211 -0.987 -0.323 c -0.523 -0.178 -0.802 -0.746 -0.625 -1.269 c 0.178 -0.524 0.745 -0.807 1.269 -0.624 c 0.314 0.106 0.627 0.209 0.94 0.308 c 0.527 0.165 0.821 0.726 0.655 1.253 C 34.036 69.083 33.641 69.356 33.216 69.356 z M 61.905 67.676 c -0.386 0 -0.753 -0.224 -0.917 -0.6 c -0.222 -0.506 0.01 -1.096 0.516 -1.317 c 0.302 -0.132 0.604 -0.267 0.905 -0.406 c 0.505 -0.233 1.097 -0.014 1.328 0.486 c 0.232 0.501 0.015 1.096 -0.486 1.328 c -0.315 0.146 -0.63 0.286 -0.946 0.424 C 62.173 67.65 62.037 67.676 61.905 67.676 z M 28.473 67.576 c -0.134 0 -0.27 -0.026 -0.4 -0.084 c -0.315 -0.137 -0.628 -0.278 -0.942 -0.423 c -0.502 -0.231 -0.722 -0.824 -0.491 -1.326 c 0.231 -0.501 0.825 -0.722 1.326 -0.49 c 0.302 0.139 0.605 0.274 0.908 0.407 c 0.506 0.221 0.737 0.811 0.516 1.317 C 29.226 67.352 28.858 67.576 28.473 67.576 z M 66.443 65.425 c -0.352 0 -0.693 -0.186 -0.875 -0.515 c -0.269 -0.484 -0.094 -1.092 0.389 -1.36 c 0.288 -0.16 0.575 -0.323 0.863 -0.491 c 0.478 -0.276 1.09 -0.116 1.368 0.36 c 0.277 0.478 0.116 1.09 -0.36 1.368 c -0.299 0.174 -0.6 0.345 -0.9 0.511 C 66.773 65.385 66.607 65.425 66.443 65.425 z M 23.931 65.328 c -0.164 0 -0.331 -0.04 -0.484 -0.126 c -0.298 -0.165 -0.597 -0.333 -0.895 -0.505 c -0.479 -0.274 -0.645 -0.886 -0.37 -1.366 c 0.274 -0.479 0.886 -0.645 1.365 -0.369 c 0.291 0.166 0.581 0.33 0.871 0.491 c 0.483 0.268 0.657 0.876 0.389 1.36 C 24.624 65.142 24.283 65.328 23.931 65.328 z M 70.759 62.773 c -0.322 0 -0.639 -0.155 -0.831 -0.442 c -0.308 -0.459 -0.186 -1.08 0.273 -1.388 c 0.274 -0.185 0.549 -0.371 0.822 -0.563 c 0.452 -0.315 1.075 -0.204 1.393 0.248 c 0.316 0.452 0.205 1.076 -0.248 1.393 c -0.283 0.197 -0.568 0.392 -0.852 0.582 C 71.145 62.718 70.951 62.773 70.759 62.773 z M 19.6 62.698 c -0.19 0 -0.383 -0.054 -0.553 -0.168 c -0.283 -0.189 -0.567 -0.379 -0.851 -0.572 c -0.456 -0.312 -0.573 -0.934 -0.262 -1.39 c 0.312 -0.457 0.934 -0.573 1.39 -0.263 c 0.277 0.189 0.554 0.376 0.831 0.561 c 0.46 0.306 0.585 0.927 0.278 1.386 C 20.241 62.541 19.924 62.698 19.6 62.698 z M 74.857 59.793 c -0.297 0 -0.592 -0.132 -0.789 -0.384 c -0.34 -0.435 -0.263 -1.064 0.172 -1.405 c 0.261 -0.204 0.523 -0.411 0.783 -0.621 c 0.43 -0.348 1.061 -0.277 1.407 0.152 c 0.346 0.431 0.277 1.06 -0.152 1.407 c -0.269 0.216 -0.536 0.429 -0.805 0.639 C 75.29 59.723 75.072 59.793 74.857 59.793 z M 15.479 59.751 c -0.213 0 -0.427 -0.067 -0.609 -0.207 c -0.271 -0.207 -0.54 -0.417 -0.81 -0.63 c -0.434 -0.341 -0.509 -0.97 -0.167 -1.405 c 0.342 -0.433 0.973 -0.508 1.405 -0.166 c 0.263 0.207 0.527 0.411 0.791 0.614 c 0.438 0.336 0.521 0.964 0.184 1.403 C 16.076 59.616 15.779 59.751 15.479 59.751 z" style="stroke: none; stroke-width: 1; stroke-dasharray: none; stroke-linecap: butt; stroke-linejoin: miter; stroke-miterlimit: 10; fill: rgb(0,0,0); fill-rule: nonzero; opacity: 1;" transform=" matrix(1 0 0 1 0 0) " stroke-linecap="round" />
	<path d="M 78.771 56.52 c -0.276 0 -0.552 -0.114 -0.75 -0.338 c -0.365 -0.414 -0.326 -1.046 0.088 -1.412 l 0.367 -0.327 c 0.411 -0.37 1.043 -0.336 1.412 0.076 c 0.369 0.411 0.335 1.043 -0.076 1.412 l -0.379 0.339 C 79.243 56.438 79.006 56.52 78.771 56.52 z" style="stroke: none; stroke-width: 1; stroke-dasharray: none; stroke-linecap: butt; stroke-linejoin: miter; stroke-miterlimit: 10; fill: rgb(0,0,0); fill-rule: nonzero; opacity: 1;" transform=" matrix(1 0 0 1 0 0) " stroke-linecap="round" />
	<path d="M 79.143 38.137 c -0.098 0 -0.197 -0.015 -0.296 -0.045 l -0.486 -0.154 c -0.526 -0.169 -0.816 -0.732 -0.647 -1.258 c 0.168 -0.526 0.73 -0.815 1.258 -0.647 l 0.467 0.148 c 0.527 0.163 0.822 0.724 0.659 1.251 C 79.966 37.862 79.57 38.137 79.143 38.137 z" style="stroke: none; stroke-width: 1; stroke-dasharray: none; stroke-linecap: butt; stroke-linejoin: miter; stroke-miterlimit: 10; fill: rgb(0,0,0); fill-rule: nonzero; opacity: 1;" transform=" matrix(1 0 0 1 0 0) " stroke-linecap="round" />
	<path d="M 74.704 36.466 c -0.137 0 -0.275 -0.028 -0.408 -0.088 c -0.332 -0.149 -0.66 -0.302 -0.987 -0.459 c -0.498 -0.24 -0.707 -0.838 -0.468 -1.335 c 0.24 -0.497 0.84 -0.707 1.335 -0.467 c 0.311 0.149 0.623 0.295 0.938 0.436 c 0.504 0.226 0.73 0.818 0.503 1.322 C 75.451 36.245 75.086 36.466 74.704 36.466 z M 70.033 33.962 c -0.183 0 -0.367 -0.05 -0.532 -0.154 c -0.307 -0.193 -0.611 -0.392 -0.913 -0.594 c -0.458 -0.308 -0.58 -0.929 -0.273 -1.388 c 0.307 -0.458 0.926 -0.582 1.388 -0.274 c 0.286 0.192 0.573 0.38 0.864 0.564 c 0.468 0.295 0.608 0.912 0.313 1.38 C 70.689 33.797 70.365 33.962 70.033 33.962 z M 65.764 30.823 c -0.23 0 -0.46 -0.078 -0.649 -0.238 c -0.275 -0.235 -0.549 -0.474 -0.82 -0.717 c -0.41 -0.37 -0.442 -1.002 -0.073 -1.412 c 0.371 -0.412 1.003 -0.443 1.413 -0.073 c 0.255 0.231 0.515 0.457 0.777 0.679 c 0.42 0.358 0.471 0.989 0.113 1.41 C 66.328 30.703 66.046 30.823 65.764 30.823 z M 61.809 27.29 c -0.226 0 -0.453 -0.077 -0.641 -0.233 c -0.27 -0.226 -0.537 -0.444 -0.803 -0.657 c -0.433 -0.344 -0.503 -0.974 -0.159 -1.406 c 0.347 -0.431 0.976 -0.503 1.406 -0.158 c 0.279 0.222 0.559 0.451 0.84 0.686 c 0.424 0.355 0.48 0.986 0.125 1.409 C 62.379 27.168 62.095 27.29 61.809 27.29 z M 57.531 24.16 c -0.18 0 -0.361 -0.048 -0.526 -0.15 c -0.295 -0.183 -0.588 -0.355 -0.877 -0.518 c -0.482 -0.271 -0.653 -0.88 -0.383 -1.362 c 0.271 -0.483 0.881 -0.653 1.362 -0.382 c 0.315 0.176 0.631 0.363 0.951 0.562 c 0.47 0.291 0.614 0.907 0.324 1.377 C 58.194 23.992 57.866 24.16 57.531 24.16 z M 46.828 23.238 c -0.239 0 -0.48 -0.085 -0.671 -0.259 c -0.41 -0.371 -0.441 -1.004 -0.07 -1.413 c 0.291 -0.321 0.614 -0.607 0.96 -0.849 c 0.451 -0.317 1.076 -0.207 1.393 0.246 c 0.316 0.452 0.207 1.076 -0.246 1.393 c -0.223 0.156 -0.434 0.342 -0.624 0.553 C 47.372 23.127 47.1 23.238 46.828 23.238 z M 52.723 21.973 c -0.083 0 -0.168 -0.011 -0.252 -0.033 c -0.32 -0.083 -0.632 -0.147 -0.934 -0.192 c -0.547 -0.081 -0.924 -0.589 -0.843 -1.136 c 0.081 -0.547 0.591 -0.92 1.136 -0.843 c 0.37 0.055 0.752 0.133 1.143 0.235 c 0.535 0.139 0.856 0.685 0.717 1.22 C 53.572 21.674 53.167 21.973 52.723 21.973 z" style="stroke: none; stroke-width: 1; stroke-dasharray: none; stroke-linecap: butt; stroke-linejoin: miter; stroke-miterlimit: 10; fill: rgb(0,0,0); fill-rule: nonzero; opacity: 1;" transform=" matrix(1 0 0 1 0 0) " stroke-linecap="round" />
	<path d="M 45 27.579 c -0.489 0 -0.907 -0.354 -0.987 -0.837 c -0.026 -0.157 -0.054 -0.31 -0.084 -0.46 c -0.108 -0.542 0.242 -1.069 0.784 -1.178 c 0.097 -0.019 0.195 -0.025 0.287 -0.016 c 0.092 -0.01 0.189 -0.004 0.287 0.016 c 0.542 0.108 0.893 0.636 0.783 1.178 c -0.029 0.15 -0.058 0.303 -0.084 0.46 C 45.907 27.225 45.489 27.579 45 27.579 z" style="stroke: none; stroke-width: 1; stroke-dasharray: none; stroke-linecap: butt; stroke-linejoin: miter; stroke-miterlimit: 10; fill: rgb(0,0,0); fill-rule: nonzero; opacity: 1;" transform=" matrix(1 0 0 1 0 0) " stroke-linecap="round" />
	<path d="M 15.595 36.33 c -0.379 0 -0.742 -0.217 -0.91 -0.585 c -0.23 -0.503 -0.008 -1.096 0.494 -1.326 c 0.311 -0.142 0.618 -0.288 0.924 -0.439 c 0.497 -0.244 1.095 -0.041 1.34 0.455 c 0.244 0.496 0.041 1.095 -0.455 1.34 c -0.323 0.159 -0.648 0.314 -0.976 0.464 C 15.875 36.3 15.734 36.33 15.595 36.33 z M 20.207 33.809 c -0.329 0 -0.652 -0.162 -0.842 -0.46 c -0.298 -0.465 -0.164 -1.084 0.301 -1.382 c 0.287 -0.185 0.572 -0.373 0.854 -0.565 c 0.457 -0.311 1.079 -0.194 1.39 0.262 c 0.312 0.456 0.194 1.078 -0.262 1.39 c -0.297 0.203 -0.598 0.402 -0.901 0.596 C 20.58 33.758 20.393 33.809 20.207 33.809 z M 24.42 30.666 c -0.281 0 -0.56 -0.118 -0.758 -0.347 c -0.361 -0.419 -0.314 -1.05 0.105 -1.41 c 0.259 -0.223 0.515 -0.45 0.769 -0.68 c 0.41 -0.371 1.043 -0.34 1.413 0.068 c 0.372 0.409 0.341 1.042 -0.068 1.413 c -0.267 0.242 -0.536 0.481 -0.808 0.715 C 24.883 30.586 24.651 30.666 24.42 30.666 z M 28.345 27.162 c -0.288 0 -0.573 -0.123 -0.771 -0.362 c -0.353 -0.425 -0.294 -1.056 0.132 -1.409 c 0.28 -0.232 0.558 -0.458 0.835 -0.676 c 0.433 -0.343 1.063 -0.27 1.405 0.164 c 0.343 0.434 0.27 1.063 -0.164 1.405 c -0.265 0.21 -0.532 0.426 -0.8 0.648 C 28.796 27.086 28.57 27.162 28.345 27.162 z M 32.603 24.078 c -0.337 0 -0.666 -0.17 -0.854 -0.478 c -0.288 -0.471 -0.14 -1.087 0.331 -1.375 c 0.318 -0.195 0.634 -0.379 0.946 -0.551 c 0.482 -0.267 1.092 -0.093 1.36 0.39 c 0.268 0.483 0.093 1.092 -0.39 1.36 c -0.287 0.159 -0.578 0.329 -0.871 0.508 C 32.961 24.031 32.781 24.078 32.603 24.078 z M 43.214 23.286 c -0.276 0 -0.551 -0.114 -0.749 -0.337 c -0.189 -0.213 -0.396 -0.402 -0.614 -0.561 c -0.447 -0.324 -0.547 -0.95 -0.223 -1.397 c 0.324 -0.447 0.95 -0.546 1.397 -0.223 c 0.336 0.244 0.652 0.531 0.937 0.854 c 0.366 0.413 0.328 1.045 -0.085 1.412 C 43.687 23.203 43.45 23.286 43.214 23.286 z M 37.387 21.944 c -0.448 0 -0.857 -0.304 -0.97 -0.759 c -0.133 -0.536 0.193 -1.079 0.73 -1.212 c 0.39 -0.097 0.77 -0.17 1.139 -0.22 c 0.547 -0.079 1.052 0.309 1.126 0.856 c 0.075 0.547 -0.309 1.052 -0.856 1.126 c -0.3 0.041 -0.609 0.101 -0.926 0.18 C 37.548 21.935 37.467 21.944 37.387 21.944 z" style="stroke: none; stroke-width: 1; stroke-dasharray: none; stroke-linecap: butt; stroke-linejoin: miter; stroke-miterlimit: 10; fill: rgb(0,0,0); fill-rule: nonzero; opacity: 1;" transform=" matrix(1 0 0 1 0 0) " stroke-linecap="round" />
	<path d="M 11.177 38.037 c -0.423 0 -0.817 -0.271 -0.953 -0.696 c -0.168 -0.526 0.122 -1.089 0.648 -1.258 l 0.463 -0.151 c 0.523 -0.176 1.091 0.106 1.265 0.632 c 0.175 0.524 -0.107 1.091 -0.632 1.265 l -0.487 0.16 C 11.381 38.021 11.278 38.037 11.177 38.037 z" style="stroke: none; stroke-width: 1; stroke-dasharray: none; stroke-linecap: butt; stroke-linejoin: miter; stroke-miterlimit: 10; fill: rgb(0,0,0); fill-rule: nonzero; opacity: 1;" transform=" matrix(1 0 0 1 0 0) " stroke-linecap="round" />
	<path d="M 48.821 6.897 l -3.114 -3.114 c -0.092 -0.092 -0.203 -0.165 -0.325 -0.216 c -0.245 -0.101 -0.52 -0.101 -0.764 0 c -0.122 0.051 -0.233 0.124 -0.325 0.216 l -3.114 3.114 c -0.391 0.391 -0.391 1.024 0 1.414 c 0.391 0.391 1.024 0.391 1.414 0 L 44 6.905 v 6.292 c 0 0.552 0.448 1 1 1 s 1 -0.448 1 -1 V 6.905 l 1.407 1.407 c 0.195 0.195 0.451 0.293 0.707 0.293 s 0.512 -0.098 0.707 -0.293 C 49.212 7.921 49.212 7.288 48.821 6.897 z" style="stroke: none; stroke-width: 1; stroke-dasharray: none; stroke-linecap: butt; stroke-linejoin: miter; stroke-miterlimit: 10; fill: rgb(0,0,0); fill-rule: nonzero; opacity: 1;" transform=" matrix(1 0 0 1 0 0) " stroke-linecap="round" />
	<path d="M 79.755 19.149 l -1.063 -4.274 c -0.001 -0.002 -0.002 -0.004 -0.003 -0.006 c -0.032 -0.125 -0.088 -0.242 -0.165 -0.347 c -0.057 -0.077 -0.134 -0.134 -0.209 -0.191 c -0.028 -0.022 -0.046 -0.052 -0.078 -0.071 c -0.023 -0.014 -0.05 -0.014 -0.074 -0.026 c -0.093 -0.047 -0.189 -0.089 -0.293 -0.105 c -0.132 -0.02 -0.265 -0.014 -0.392 0.018 l -4.272 1.062 c -0.536 0.133 -0.863 0.676 -0.73 1.212 c 0.134 0.536 0.677 0.86 1.212 0.73 l 1.93 -0.48 l -3.244 5.391 c -0.285 0.473 -0.133 1.088 0.341 1.373 c 0.161 0.097 0.339 0.143 0.515 0.143 c 0.339 0 0.67 -0.172 0.858 -0.484 l 3.244 -5.391 l 0.48 1.931 c 0.113 0.455 0.522 0.759 0.97 0.759 c 0.08 0 0.161 -0.009 0.242 -0.03 C 79.561 20.228 79.887 19.685 79.755 19.149 z" style="stroke: none; stroke-width: 1; stroke-dasharray: none; stroke-linecap: butt; stroke-linejoin: miter; stroke-miterlimit: 10; fill: rgb(0,0,0); fill-rule: nonzero; opacity: 1;" transform=" matrix(1 0 0 1 0 0) " stroke-linecap="round" />
	<path d="M 17.626 22.06 l -3.244 -5.391 l 1.93 0.48 c 0.532 0.13 1.078 -0.193 1.212 -0.73 c 0.133 -0.536 -0.193 -1.079 -0.73 -1.212 l -4.274 -1.062 c -0.003 -0.001 -0.007 0 -0.01 0 c -0.123 -0.029 -0.251 -0.036 -0.378 -0.017 c -0.129 0.019 -0.255 0.063 -0.369 0.132 c -0.115 0.069 -0.213 0.16 -0.29 0.266 c -0.065 0.089 -0.106 0.191 -0.139 0.295 c -0.006 0.02 -0.021 0.035 -0.026 0.055 l -1.062 4.274 c -0.133 0.536 0.193 1.079 0.73 1.212 c 0.081 0.02 0.162 0.029 0.242 0.029 c 0.448 0 0.857 -0.304 0.97 -0.759 l 0.48 -1.93 l 3.244 5.39 c 0.188 0.312 0.519 0.484 0.858 0.484 c 0.175 0 0.354 -0.046 0.515 -0.143 C 17.758 23.147 17.911 22.533 17.626 22.06 z" style="stroke: none; stroke-width: 1; stroke-dasharray: none; stroke-linecap: butt; stroke-linejoin: miter; stroke-miterlimit: 10; fill: rgb(0,0,0); fill-rule: nonzero; opacity: 1;" transform=" matrix(1 0 0 1 0 0) " stroke-linecap="round" />
	<path d="M 48.821 82.77 c -0.391 -0.391 -1.024 -0.391 -1.414 0 L 46 84.176 v -6.292 c 0 -0.553 -0.448 -1 -1 -1 s -1 0.447 -1 1 v 6.292 l -1.407 -1.407 c -0.391 -0.391 -1.024 -0.391 -1.414 0 c -0.391 0.391 -0.391 1.024 0 1.414 l 3.113 3.113 c 0.092 0.093 0.203 0.166 0.326 0.217 c 0.122 0.051 0.252 0.077 0.382 0.077 s 0.26 -0.027 0.382 -0.077 c 0.123 -0.051 0.233 -0.124 0.326 -0.217 l 3.113 -3.113 C 49.212 83.793 49.212 83.16 48.821 82.77 z" style="stroke: none; stroke-width: 1; stroke-dasharray: none; stroke-linecap: butt; stroke-linejoin: miter; stroke-miterlimit: 10; fill: rgb(0,0,0); fill-rule: nonzero; opacity: 1;" transform=" matrix(1 0 0 1 0 0) " stroke-linecap="round" />
	<path d="M 79.025 70.72 c -0.536 -0.129 -1.078 0.193 -1.212 0.73 l -0.48 1.931 l -3.244 -5.391 c -0.285 -0.473 -0.902 -0.627 -1.372 -0.341 c -0.474 0.284 -0.626 0.899 -0.341 1.372 l 3.244 5.391 l -1.93 -0.48 c -0.536 -0.132 -1.078 0.193 -1.212 0.73 c -0.133 0.536 0.193 1.078 0.73 1.212 l 4.273 1.063 c 0.079 0.02 0.16 0.029 0.241 0.029 c 0 0 0 0 0 0 s 0 0 0 0 c 0.176 0 0.354 -0.046 0.515 -0.144 c 0.115 -0.069 0.212 -0.159 0.29 -0.265 c 0.078 -0.105 0.133 -0.224 0.165 -0.349 c 0 -0.001 0.001 -0.001 0.001 -0.002 l 1.063 -4.274 C 79.887 71.396 79.561 70.854 79.025 70.72 z" style="stroke: none; stroke-width: 1; stroke-dasharray: none; stroke-linecap: butt; stroke-linejoin: miter; stroke-miterlimit: 10; fill: rgb(0,0,0); fill-rule: nonzero; opacity: 1;" transform=" matrix(1 0 0 1 0 0) " stroke-linecap="round" />
	<path d="M 17.284 67.649 c -0.471 -0.286 -1.087 -0.132 -1.373 0.341 l -3.244 5.39 l -0.48 -1.93 c -0.134 -0.536 -0.679 -0.859 -1.212 -0.73 c -0.536 0.134 -0.863 0.676 -0.73 1.212 l 1.062 4.274 c 0.005 0.02 0.019 0.035 0.026 0.054 c 0.033 0.104 0.074 0.206 0.139 0.296 c 0.078 0.106 0.176 0.196 0.29 0.265 c 0.079 0.047 0.163 0.083 0.249 0.107 c 0.087 0.024 0.177 0.036 0.265 0.036 c 0 0 0 0 0 0 s 0 0 0 0 c 0.081 0 0.162 -0.01 0.241 -0.029 l 4.274 -1.063 c 0.536 -0.134 0.863 -0.676 0.729 -1.212 c -0.133 -0.536 -0.678 -0.861 -1.212 -0.73 l -1.93 0.48 l 3.244 -5.39 C 17.911 68.549 17.758 67.933 17.284 67.649 z" style="stroke: none; stroke-width: 1; stroke-dasharray: none; stroke-linecap: butt; stroke-linejoin: miter; stroke-miterlimit: 10; fill: rgb(0,0,0); fill-rule: nonzero; opacity: 1;" transform=" matrix(1 0 0 1 0 0) " stroke-linecap="round" />
</g>
</svg>