<svg version="1.1" id="Layer_1" xmlns="http://www.w3.org/2000/svg" xmlns:xlink="http://www.w3.org/1999/xlink" x="0px" y="0px"
	 width="100%" viewBox="0 0 384 640" enable-background="new 0 0 384 640" xml:space="preserve">
<path opacity="1.000000" stroke="none" 
	d="
M380.000000,641.000000 
	C257.312439,641.000000 134.624878,641.000000 11.406820,640.581116 
	C9.495669,622.972534 12.105461,605.955627 13.198172,588.878418 
	C13.562776,583.180237 16.765411,578.593018 20.608074,574.496765 
	C26.701035,568.001648 33.867229,562.900024 41.446545,558.318298 
	C62.182667,545.783203 84.518036,536.603394 106.714890,527.124390 
	C113.908836,524.052185 121.016579,520.778748 128.179398,517.633057 
	C135.061996,514.610474 136.798859,508.771851 137.654327,501.915619 
	C138.516418,495.006409 134.150467,492.718536 129.335220,490.042816 
	C101.542542,474.599152 79.296371,453.322998 62.611382,426.226013 
	C48.809326,403.811035 39.153603,379.777496 33.322567,354.089508 
	C32.215527,349.212585 32.841103,343.486725 28.940578,339.511810 
	C15.971521,326.295349 8.577610,310.321503 4.289265,292.487579 
	C3.051279,287.339172 3.674685,281.806366 1.000000,277.000000 
	C1.000000,259.979095 1.000000,242.958206 1.198943,225.152313 
	C2.275860,222.898117 2.498506,221.297592 2.646152,219.601120 
	C3.865964,205.585205 7.017884,192.064453 13.711591,179.581985 
	C17.120981,173.224136 21.954903,168.235229 29.326248,166.647858 
	C37.158405,164.961258 37.196243,165.087082 38.465675,157.249466 
	C38.651505,156.102142 38.700855,154.929779 38.766228,153.766342 
	C39.375160,142.929764 43.781193,133.858871 51.614861,126.445320 
	C61.444523,117.142799 73.037178,110.729553 85.604790,105.940109 
	C93.454887,102.948502 93.446640,102.926857 93.621208,94.644562 
	C93.764297,87.855377 98.112686,82.967491 103.994141,82.984680 
	C109.832451,83.001747 114.288887,87.993431 114.351326,94.758835 
	C114.400719,100.110786 115.115601,105.373032 116.406906,110.538490 
	C119.997284,124.900665 128.316559,136.518784 138.632523,146.633026 
	C162.344177,169.881042 190.958969,185.433228 221.505920,197.549088 
	C245.575165,207.095673 268.768829,218.142105 289.779724,233.416397 
	C317.126587,253.296768 339.030151,277.563141 351.346863,309.627686 
	C352.222504,311.907288 351.701599,315.064575 355.019989,316.699280 
	C360.084198,309.720978 361.814819,301.520599 363.411804,293.521759 
	C366.479553,278.156281 367.047028,262.518982 367.172974,246.856430 
	C367.364319,223.055954 364.783905,199.792526 355.492645,177.596451 
	C348.962219,161.995804 339.686920,147.935837 331.164307,133.446960 
	C327.401367,127.049751 325.473450,120.412323 328.171021,112.977165 
	C329.785400,108.527412 329.085297,104.427078 326.232635,100.311363 
	C315.275482,84.502655 303.032959,69.907166 288.706085,56.983921 
	C261.901520,32.805428 231.261353,19.426792 194.579514,22.468437 
	C187.935410,23.019361 181.167557,23.495543 175.186920,26.797554 
	C175.672409,29.207771 177.182205,30.089033 178.381729,31.200666 
	C188.315170,40.406197 200.299133,46.248127 212.504425,51.606743 
	C227.753418,58.301659 243.156448,64.655037 256.677399,74.633072 
	C265.615662,81.229195 273.361389,88.945663 278.702087,98.814735 
	C280.936829,102.944321 280.979431,107.260178 278.401520,111.166000 
	C275.979889,114.834999 272.151093,115.887154 267.857269,115.426964 
	C263.686371,114.979950 261.546326,111.961273 259.598816,108.831062 
	C254.004425,99.839348 246.209488,93.272690 237.288727,87.776115 
	C225.887207,80.750999 213.412155,76.019203 201.328400,70.443832 
	C184.774521,62.806004 168.521606,54.571575 156.853882,39.969135 
	C153.475204,35.740627 151.189758,35.788776 147.231140,38.750835 
	C139.544067,44.502754 133.087891,51.320312 127.364532,58.983662 
	C123.362267,64.342545 116.952675,65.249283 111.947868,61.652912 
	C107.494720,58.452957 106.373520,52.153870 109.406189,46.810375 
	C110.306641,45.223812 111.429329,43.753117 112.539375,42.297337 
	C125.357895,25.486252 142.124146,14.299802 161.953415,7.344446 
	C169.819016,4.585499 178.079208,3.466554 186.000000,1.000000 
	C198.354233,1.000000 210.708450,1.000000 223.806549,1.238976 
	C225.479385,1.818296 226.385849,2.363284 227.340714,2.468277 
	C241.570786,4.032962 254.863510,8.774027 267.294250,15.508081 
	C300.253540,33.363014 325.289185,59.608383 345.731873,90.666306 
	C350.529755,97.955544 352.550323,105.480904 350.192474,113.783401 
	C348.726257,118.946075 349.914490,123.001465 352.670563,127.355354 
	C363.787079,144.916565 374.382141,162.772293 380.430817,182.881470 
	C381.947235,187.922974 383.476593,192.960602 385.000000,198.000000 
	C385.000000,231.020889 385.000000,264.041779 384.854614,297.864624 
	C383.609131,302.455078 382.521454,306.247192 381.406738,310.031403 
	C377.766388,322.389587 372.456238,333.695007 361.541382,341.456512 
	C359.817719,342.682220 358.905487,344.437836 358.454559,346.433594 
	C356.885406,353.378937 355.403625,360.344177 353.801514,367.281769 
	C349.015961,388.004700 337.380920,405.777374 328.223999,424.511475 
	C320.271088,440.782288 307.336639,453.768860 291.998413,463.775879 
	C278.689423,472.459045 268.100128,484.427124 255.168777,493.528687 
	C254.159760,494.238861 253.517517,495.275513 253.469147,496.467651 
	C253.030334,507.286469 251.982925,513.765442 264.556213,518.508911 
	C266.418213,519.211365 268.258636,519.974854 270.088623,520.757690 
	C295.168121,531.487244 320.316864,542.060486 345.266083,553.085022 
	C350.999329,555.618469 356.254303,559.465576 359.982971,564.821411 
	C358.408875,566.569580 356.815369,566.200989 355.387299,566.154724 
	C346.900940,565.880066 338.403931,565.720215 329.936096,565.144897 
	C320.144012,564.479675 310.932861,562.231201 303.450134,555.059753 
	C300.219757,551.963806 295.930176,550.182922 291.741699,548.484314 
	C281.831268,544.465149 271.448181,542.090576 261.072693,539.717285 
	C243.618500,535.724976 234.327393,525.891479 231.781357,508.265137 
	C231.301300,504.941742 229.959549,503.955505 226.761230,504.944214 
	C205.649902,511.470520 184.499100,511.183075 163.383667,505.001648 
	C160.188965,504.066437 158.722473,504.799408 158.281860,508.172119 
	C157.526962,513.950623 156.410751,519.579712 152.862366,524.543945 
	C147.980087,531.374268 141.410980,536.136902 134.308502,540.166199 
	C124.100189,545.957520 112.753548,548.879822 101.644020,552.366760 
	C84.037262,557.892822 65.996109,562.310547 50.112595,572.291992 
	C39.704399,578.832703 31.609095,587.344482 29.796007,599.926331 
	C28.783142,606.955078 29.319414,614.216675 29.283636,621.373962 
	C29.242455,629.611877 29.302872,629.621704 37.739124,629.621887 
	C142.698532,629.624329 247.657928,629.623962 352.617340,629.621887 
	C354.116425,629.621887 355.617126,629.627563 357.114197,629.563293 
	C359.268951,629.470764 360.644104,628.351624 360.627869,626.159729 
	C360.533783,613.446716 362.856384,600.406067 355.498108,588.655029 
	C354.513763,587.083069 353.094025,585.345886 354.575378,582.676636 
	C358.989349,582.676636 363.618866,582.643982 368.247772,582.684021 
	C375.953491,582.750549 379.975952,585.839294 380.158875,593.561462 
	C380.533203,609.365479 380.808411,625.190430 380.000000,641.000000 
M74.469261,136.004211 
	C64.549156,141.525681 59.659409,150.166702 59.437939,161.315994 
	C59.070545,179.811401 60.812950,198.174835 63.835197,216.407089 
	C64.966080,223.229324 61.798111,228.912247 55.659679,230.231461 
	C49.629925,231.527313 44.182766,227.454300 42.664574,220.758728 
	C40.563675,211.493256 39.331764,202.125183 38.882759,192.644577 
	C38.802505,190.949982 38.751152,189.154083 36.735096,188.574020 
	C34.553478,187.946350 33.271080,189.343521 32.338394,191.019333 
	C31.536308,192.460480 30.883181,193.991226 30.247395,195.517044 
	C27.939281,201.056122 26.622915,206.868561 25.485540,212.738464 
	C22.788008,226.660217 21.360367,240.802414 21.663654,254.878662 
	C21.933926,267.422485 22.857454,280.163300 26.528835,292.339142 
	C28.694975,299.522980 31.085600,306.753052 36.561737,313.642883 
	C38.180588,308.730957 39.478073,304.836700 40.748024,300.933502 
	C46.549038,283.104095 54.428761,266.272369 65.193848,250.888107 
	C69.664307,244.499390 76.146828,243.253235 81.602348,247.256912 
	C86.536041,250.877594 87.100647,257.795105 83.033325,263.762573 
	C80.597519,267.336334 78.107147,270.890839 75.943192,274.628754 
	C68.488998,287.504974 63.400749,301.336609 59.027283,315.535797 
	C55.182304,328.019196 49.552094,340.118134 55.349781,353.482025 
	C56.200565,355.443146 56.683788,357.575439 57.223537,359.657959 
	C62.605362,380.422302 71.093307,399.836334 82.855316,417.760468 
	C101.493477,446.163147 126.838341,466.573578 157.936523,479.947601 
	C178.524551,488.801666 199.637482,490.722137 221.186737,483.864105 
	C243.433304,476.784088 262.999359,464.931580 280.261627,449.361572 
	C303.313721,428.569336 318.932098,402.801636 328.562653,373.534332 
	C333.068756,359.840179 339.581726,346.598389 335.002655,330.816132 
	C330.572235,315.546265 324.706635,301.326538 315.355469,288.619232 
	C295.707611,261.919800 269.349670,243.628296 239.972931,229.203064 
	C222.491608,220.618973 203.525421,215.330719 186.580856,205.695251 
	C179.248459,201.525726 173.584625,201.434219 165.987930,205.354965 
	C147.991882,214.642914 128.509598,221.035583 112.211853,233.639557 
	C109.797874,235.506393 106.679115,236.673889 103.261650,235.396790 
	C99.597954,234.027679 96.637878,231.850784 95.841957,227.965836 
	C94.894089,223.339218 95.731194,219.089096 99.869446,215.912003 
	C109.297211,208.673874 119.427437,202.628448 130.230530,197.715973 
	C137.729340,194.306076 145.301758,191.057999 152.575912,187.854492 
	C152.572449,185.688583 151.326431,185.223648 150.427597,184.593369 
	C128.995285,169.564651 110.363266,152.026306 99.220802,127.731659 
	C98.172607,125.446198 96.513695,125.276711 94.256683,126.106834 
	C87.511971,128.587555 81.040329,131.577469 74.469261,136.004211 
z"/>
<path opacity="1.000000" stroke="none" 
	d="
M268.164459,342.770782 
	C260.701965,364.372192 239.247269,371.967010 221.260727,359.640289 
	C213.450180,354.287476 209.907593,346.265656 208.784760,337.251953 
	C207.973434,330.738953 212.510696,325.321930 218.312973,324.765289 
	C224.957703,324.127777 229.351791,327.872162 230.412384,335.075684 
	C231.147156,340.066010 234.436127,343.576782 238.694290,343.560638 
	C243.371216,343.542908 246.016846,340.945801 246.886261,336.422455 
	C246.979965,335.934937 247.179825,335.468689 247.314758,334.988129 
	C249.685822,326.544342 253.729599,323.580750 260.645630,325.221405 
	C267.346680,326.811066 270.098358,331.824738 268.709564,339.919342 
	C268.568970,340.738831 268.413300,341.555725 268.164459,342.770782 
z"/>
<path opacity="1.000000" stroke="none" 
	d="
M143.573608,338.232910 
	C145.720535,342.356476 148.792892,344.573761 153.075745,343.329315 
	C157.060287,342.171509 159.179886,339.157501 159.674652,334.846100 
	C160.428085,328.280853 165.031006,324.374420 171.060791,324.775574 
	C177.393555,325.196869 181.732056,329.766266 181.280411,336.539703 
	C180.279755,351.546326 170.588486,363.114410 154.874054,365.177917 
	C138.812744,367.286987 124.912575,356.852356 121.700905,341.429932 
	C121.020729,338.163666 120.418686,334.862030 121.792664,331.604309 
	C123.569397,327.391693 126.615669,324.767151 131.304993,324.774902 
	C135.944229,324.782562 139.690033,326.434265 141.534698,331.195221 
	C142.381516,333.380768 143.277283,335.510315 143.573608,338.232910 
z"/>
<path opacity="1.000000" stroke="none" 
	d="
M269.246277,400.379456 
	C277.906738,404.420593 279.628418,412.937927 273.109772,419.068817 
	C269.082184,422.856781 265.734406,427.211853 261.943298,431.182556 
	C257.413513,435.927063 251.240524,436.618042 246.729385,432.964722 
	C242.074280,429.194824 241.497192,422.722260 245.490555,417.270874 
	C249.139496,412.289612 253.149323,407.597870 257.869385,403.584473 
	C261.019867,400.905701 264.510284,399.086578 269.246277,400.379456 
z"/>
<path opacity="1.000000" stroke="none" 
	d="
M304.315125,400.378204 
	C300.758148,401.891022 297.632538,403.466492 294.370148,404.671661 
	C288.676178,406.774994 283.307648,404.507294 280.585724,399.088745 
	C278.231232,394.401642 279.797638,388.810913 284.717468,385.674805 
	C291.202545,381.540894 298.377441,378.845245 305.769348,376.898407 
	C310.649963,375.612946 315.900970,378.861786 317.736267,383.669617 
	C319.572540,388.480011 317.832733,394.206940 313.378601,396.691986 
	C310.660553,398.208405 307.594574,399.101196 304.315125,400.378204 
z"/>
<path opacity="1.000000" stroke="none" 
	d="
M113.923988,406.688965 
	C118.984627,398.876740 125.284233,397.867889 132.019974,403.510712 
	C137.011658,407.692505 141.258972,412.594879 145.019913,417.883972 
	C148.442474,422.697235 147.699677,429.348602 143.591171,432.806488 
	C139.176086,436.522369 132.474121,436.197937 128.386002,431.548553 
	C124.440338,427.061096 120.594414,422.500153 116.316010,418.316376 
	C113.075882,415.147919 113.431511,411.107086 113.923988,406.688965 
z"/>
<path opacity="1.000000" stroke="none" 
	d="
M105.958633,386.012878 
	C111.026466,391.277985 111.774994,395.780884 108.616302,400.390320 
	C105.057693,405.583344 100.303566,406.643005 93.767845,403.863739 
	C89.199989,401.921295 84.594658,400.055939 79.945206,398.319031 
	C73.213364,395.804230 69.979584,389.861786 72.212440,383.817413 
	C74.323784,378.101990 80.494194,375.545471 86.968536,377.761902 
	C93.398674,379.963196 99.879311,382.058899 105.958633,386.012878 
z"/>
<path opacity="1.000000" stroke="none" 
	d="
M242.424530,469.903442 
	C232.717743,470.427307 227.762863,464.728241 229.517136,455.629913 
	C229.926086,453.508942 230.220673,451.364075 230.684799,449.255890 
	C232.079285,442.921844 237.001724,439.331177 242.979355,440.221802 
	C248.884644,441.101624 252.922302,446.138855 252.247208,452.350739 
	C251.837601,456.119629 251.044434,459.901031 249.924942,463.522705 
	C248.893280,466.860229 246.448807,469.134186 242.424530,469.903442 
z"/>
<path opacity="1.000000" stroke="none" 
	d="
M141.188232,465.525269 
	C139.044678,460.914612 138.434402,456.265045 137.811554,451.733276 
	C137.030594,446.050934 141.584290,440.883392 147.154831,440.153748 
	C153.100189,439.375031 158.257828,443.284882 159.350906,449.318054 
	C159.793182,451.759186 160.436157,454.163239 160.925613,456.596680 
	C161.862305,461.253601 159.260010,466.886292 155.282700,468.905090 
	C150.622742,471.270355 145.542435,470.156586 141.188232,465.525269 
z"/>
</svg>