<svg version="1.1" id="Layer_1" xmlns="http://www.w3.org/2000/svg" xmlns:xlink="http://www.w3.org/1999/xlink" x="0px" y="0px"
	 width="100%" viewBox="0 0 512 544" enable-background="new 0 0 512 544" xml:space="preserve">
<path  opacity="1.000000" stroke="none" 
	d="
M244.000000,1.000000 
	C254.354233,1.000000 264.708466,1.000000 275.882629,1.133212 
	C313.194000,8.393975 339.270630,29.222446 356.657532,61.701271 
	C364.592194,76.523270 367.186646,92.815331 370.304993,108.960312 
	C375.189087,134.246948 379.595917,159.644119 385.985962,184.599731 
	C401.713409,246.021179 428.585663,302.141907 466.883667,352.743713 
	C481.749023,372.384796 489.965393,394.529633 489.020508,419.205658 
	C487.852264,449.715118 475.630310,475.255005 451.391571,494.431763 
	C436.169983,506.474457 419.115448,514.049927 399.479645,515.558472 
	C381.494720,516.940186 363.502197,516.425598 345.528870,516.143921 
	C336.399933,516.000793 328.271606,516.468262 323.112549,525.284607 
	C322.714294,525.965149 321.856232,526.363953 321.260162,526.943420 
	C313.532593,534.455688 304.290955,539.763245 295.000000,545.000000 
	C270.979095,545.000000 246.958206,545.000000 222.207336,544.781250 
	C219.990738,543.821899 218.508301,543.072815 217.016815,542.342224 
	C206.167831,537.028259 195.773438,530.960205 188.226456,521.289246 
	C185.309677,517.551575 182.178146,516.197632 177.636185,516.234802 
	C160.309036,516.376648 142.977966,516.400818 125.652290,516.171570 
	C119.353165,516.088196 112.956146,515.733582 106.791321,514.536804 
	C83.730255,510.059753 65.092049,498.442902 49.676712,480.492706 
	C28.908842,456.309906 23.261995,428.542511 27.497551,398.016449 
	C30.018450,379.848114 38.954311,364.396362 50.010017,350.194000 
	C74.469955,318.772369 92.141052,283.443756 108.138268,247.361740 
	C120.698448,219.032013 128.173767,188.891846 134.720718,158.591324 
	C140.333206,132.615631 143.838638,106.215111 151.176239,80.579819 
	C160.845993,46.796749 182.255402,23.523220 213.675781,8.838509 
	C223.292435,4.344048 233.694672,2.850418 244.000000,1.000000 
M173.234192,141.345566 
	C172.949661,142.643127 172.644196,143.936493 172.383698,145.238861 
	C166.933990,172.483643 161.302673,199.669449 152.255234,226.032715 
	C137.052261,270.332581 118.026291,312.738129 91.284744,351.422516 
	C84.181313,361.698364 76.344803,371.471497 69.954094,382.234528 
	C63.301010,393.439453 58.809807,405.288940 59.352123,418.621429 
	C59.782845,429.210510 63.442867,438.800812 68.427536,447.932495 
	C76.486694,462.696411 88.068054,473.501343 104.390511,478.534180 
	C123.567741,484.447235 143.343964,482.453949 162.946503,482.601776 
	C165.454559,482.620667 166.558640,481.381805 165.900375,478.715210 
	C162.731781,465.879395 156.225067,455.823364 143.319183,450.854095 
	C137.348602,448.555176 131.026474,447.988739 124.838448,446.784729 
	C113.648613,444.607483 112.080307,437.393066 112.120918,428.338928 
	C112.156525,420.399902 119.553612,413.761627 127.904198,413.924072 
	C141.178558,414.182373 154.013626,416.580933 165.626511,423.689484 
	C183.546921,434.659027 194.023560,450.844635 199.301392,470.822693 
	C200.873978,476.775269 202.343887,482.845398 205.799271,488.044586 
	C219.259644,508.298035 237.633652,519.808594 262.529663,517.473755 
	C281.472565,515.697144 297.364319,507.725677 307.378662,490.533813 
	C311.180267,484.007477 313.583130,476.916656 315.813965,469.751404 
	C326.859924,434.272583 349.716949,415.779816 384.724365,413.981140 
	C395.640747,413.420258 402.385010,418.935669 402.955902,429.883026 
	C403.387146,438.152222 399.658844,446.419922 387.920532,447.430359 
	C385.111603,447.672180 382.337006,448.303223 379.543427,448.734711 
	C363.520416,451.209503 354.358643,461.237061 349.599274,476.034698 
	C347.808350,481.602905 348.528564,482.603485 354.272858,482.638885 
	C364.271973,482.700531 374.273621,482.536957 384.270660,482.694061 
	C391.500336,482.807678 398.500854,481.683319 405.475128,479.921844 
	C448.068939,469.163971 471.163757,416.034546 443.320465,378.350220 
	C434.413727,366.295441 425.745056,354.027893 417.632812,341.429291 
	C382.512207,286.885620 359.284424,227.556885 346.561707,163.982712 
	C341.735168,139.864929 338.398529,115.376366 331.639008,91.729568 
	C322.659851,60.317684 301.981140,40.487347 269.150513,35.269001 
	C229.344101,28.941874 191.776108,54.134071 182.666092,93.072533 
	C178.998489,108.748734 176.401215,124.675339 173.234192,141.345566 
z"/>
<path  opacity="1.000000" stroke="none" 
	d="
M1.000000,166.460632 
	C8.503607,152.446976 23.319302,154.652054 31.492393,162.610672 
	C37.096100,168.067322 42.356461,173.876205 47.783291,179.515137 
	C49.142117,180.927063 50.261703,182.709244 53.090652,182.875076 
	C56.403004,175.343063 62.714920,172.935333 70.782028,173.620392 
	C79.402313,174.352448 85.275810,180.275665 85.329308,188.945175 
	C85.403313,200.938766 85.427101,212.933884 85.320602,224.927002 
	C85.238464,234.177338 78.456360,241.135468 69.283829,241.255997 
	C57.291847,241.413559 45.295319,241.395462 33.302658,241.270035 
	C25.449423,241.187897 20.751497,237.386826 18.384884,229.698532 
	C16.123100,222.350769 18.027508,214.677567 23.907396,210.951080 
	C28.009115,208.351501 27.340025,206.582520 24.329992,203.922791 
	C20.463066,200.505905 16.817228,196.840179 12.998119,193.367462 
	C8.284569,189.081436 3.979214,184.495712 1.148818,178.304886 
	C1.000000,174.307098 1.000000,170.614182 1.000000,166.460632 
z"/>
<path  opacity="1.000000" stroke="none" 
	d="
M513.000000,180.533142 
	C506.567810,189.593933 498.144653,196.268768 490.794342,203.978989 
	C488.194641,206.705994 486.847107,208.531448 491.208038,211.149704 
	C496.583374,214.376984 498.648468,221.868668 496.882751,228.503860 
	C494.891541,235.986252 490.206207,240.838623 483.171417,241.054123 
	C470.184784,241.451935 457.169617,241.467072 444.182312,241.090851 
	C436.443665,240.866653 429.902527,233.724442 429.749207,225.759872 
	C429.505463,213.098206 429.558746,200.426575 429.739410,187.762756 
	C429.833435,181.170380 434.179260,176.329834 441.128693,174.248428 
	C448.063660,172.171326 455.736450,174.182983 459.344208,179.066849 
	C460.225037,180.259171 460.983337,181.541992 461.894531,182.930359 
	C465.275238,182.499847 467.103027,180.006454 469.142426,177.937576 
	C474.756073,172.242828 480.065674,166.228485 485.910858,160.786652 
	C493.920990,153.329300 507.054871,155.261978 512.871704,164.684631 
	C513.000000,170.022095 513.000000,175.044189 513.000000,180.533142 
z"/>
<path  opacity="1.000000" stroke="none" 
	d="
M23.821943,47.596893 
	C33.287880,42.421753 41.732296,43.811222 48.931553,51.356445 
	C54.334160,57.018684 59.853058,62.570683 65.214592,68.271072 
	C67.862984,71.086845 69.773552,72.147339 72.420898,67.950500 
	C76.225723,61.918694 83.803596,60.101067 91.591446,62.607952 
	C98.685493,64.891510 102.310661,69.656128 102.343063,77.010017 
	C102.396637,89.167992 102.402199,101.326569 102.346535,113.484512 
	C102.303963,122.784325 95.971497,129.269806 86.779037,129.336426 
	C74.621498,129.424561 62.462620,129.392548 50.304676,129.335968 
	C43.086163,129.302368 38.231068,125.790771 35.979755,119.184914 
	C33.290237,111.293266 34.951199,103.976311 40.423756,99.607948 
	C45.096111,95.878319 45.092529,95.676109 40.809677,91.612305 
	C35.253838,86.340607 29.583466,81.179901 24.213362,75.724380 
	C15.676871,67.052101 15.512442,56.169910 23.821943,47.596893 
z"/>
<path  opacity="1.000000" stroke="none" 
	d="
M413.901733,70.443352 
	C422.012848,58.421700 435.227325,58.777245 444.958649,71.023743 
	C448.163025,70.636215 450.051544,68.160187 452.101959,66.084557 
	C457.251373,60.871677 462.108948,55.362827 467.377289,50.276939 
	C474.171387,43.718067 481.883301,42.860306 490.239258,47.262115 
	C496.138672,50.369850 498.764923,57.085052 496.864319,64.508972 
	C495.507629,69.808350 492.692017,74.259995 488.688690,77.990532 
	C483.449158,82.872978 478.263702,87.813400 473.029480,92.701569 
	C470.400940,95.156334 470.048187,96.862152 473.642426,99.157402 
	C480.018646,103.229210 481.813446,110.588394 479.152008,118.700058 
	C476.813873,125.826370 471.940277,129.314987 464.069031,129.340363 
	C452.073486,129.379059 440.076996,129.422714 428.082275,129.315598 
	C419.804565,129.241684 412.870392,122.769913 412.725769,114.624397 
	C412.495209,101.633247 412.669800,88.635033 412.650665,75.639847 
	C412.648163,73.934746 413.007721,72.339211 413.901733,70.443352 
z"/>
<path  opacity="1.000000" stroke="none" 
	d="
M202.789001,282.602600 
	C200.599152,287.869537 198.789658,292.890686 196.431244,297.639130 
	C192.511627,305.530945 183.288010,308.740601 175.163254,305.381592 
	C167.306290,302.133301 163.131866,293.651489 165.554367,285.348083 
	C168.158661,276.421600 170.878174,267.511658 174.743576,259.030945 
	C179.049164,249.584427 187.449493,245.307144 195.553879,248.202881 
	C204.936447,251.555313 209.322144,260.545135 206.479935,270.819763 
	C205.417938,274.658844 204.115494,278.431396 202.789001,282.602600 
z"/>
<path  opacity="1.000000" stroke="none" 
	d="
M310.380066,276.402588 
	C309.566254,273.622345 308.833435,271.234833 308.226379,268.815765 
	C306.084015,260.278381 309.897034,252.681488 318.222443,248.807083 
	C325.068237,245.621246 333.438843,247.823471 337.820160,255.074188 
	C344.145050,265.541412 347.696106,277.268250 350.123444,289.156036 
	C351.585327,296.315491 345.378510,304.071777 338.121490,306.053680 
	C330.014862,308.267670 321.603607,304.529053 318.055634,296.858398 
	C315.051392,290.363373 312.579285,283.643036 310.380066,276.402588 
z"/>
<path  opacity="1.000000" stroke="none" 
	d="
M324.238220,205.442566 
	C321.495453,214.460632 317.269409,217.912292 308.915894,218.347809 
	C300.614960,218.780548 296.080475,215.783585 292.488831,207.421829 
	C288.964325,199.216507 287.457825,190.524353 286.929901,181.707932 
	C286.374054,172.425018 292.513184,165.618362 302.361328,163.906387 
	C309.857849,162.603210 317.713379,167.784256 320.127716,176.052338 
	C322.881195,185.481598 325.288300,195.012817 324.238220,205.442566 
z"/>
<path  opacity="1.000000" stroke="none" 
	d="
M275.744080,109.686562 
	C275.540985,104.412895 275.306793,99.601936 275.221771,94.788338 
	C275.076233,86.551926 279.736542,81.075157 288.366058,79.194664 
	C296.223175,77.482483 304.572571,81.011940 306.891754,88.140839 
	C310.284821,98.570793 312.270599,109.379669 310.244598,120.427956 
	C308.831268,128.135162 303.434753,132.798798 295.895813,133.354752 
	C286.121857,134.075546 281.910767,131.447205 278.684052,122.729378 
	C277.174957,118.652222 276.605530,114.374359 275.744080,109.686562 
z"/>
<path  opacity="1.000000" stroke="none" 
	d="
M212.662689,163.883179 
	C225.578644,167.247955 229.388794,173.506592 227.191055,188.052231 
	C226.301682,193.938507 224.890884,199.778564 223.275833,205.515335 
	C220.552917,215.187256 213.245071,219.799698 203.679031,218.305984 
	C195.669861,217.055374 190.601791,210.329941 190.636414,200.877396 
	C190.668991,191.987091 192.718613,183.408356 195.332001,175.017746 
	C197.686615,167.457901 203.646362,163.825562 212.662689,163.883179 
z"/>
<path  opacity="1.000000" stroke="none" 
	d="
M167.542908,350.126526 
	C163.260910,362.675873 154.597443,370.939087 143.784256,377.068451 
	C138.034409,380.327698 128.359558,378.155151 124.485970,373.439087 
	C119.922325,367.882935 118.949799,357.854462 123.348450,352.472015 
	C129.006653,345.548279 134.803207,338.613007 142.022888,333.188110 
	C148.151505,328.583038 154.931396,328.313904 160.632309,332.002930 
	C166.609863,335.870941 169.073349,342.092560 167.542908,350.126526 
z"/>
<path  opacity="1.000000" stroke="none" 
	d="
M204.637360,111.042679 
	C204.621368,104.036385 205.453445,97.595070 206.962585,91.284927 
	C208.696594,84.034561 213.672409,79.479309 220.877350,78.869301 
	C227.963882,78.269325 234.153915,80.530128 237.952515,86.957047 
	C240.858505,91.873764 239.294647,97.380592 239.054626,102.613808 
	C238.803879,108.080528 237.883377,113.513268 237.383209,118.972549 
	C236.510666,128.496521 229.927917,133.835388 219.456329,133.397614 
	C210.483490,133.022476 204.697433,127.028061 204.631332,118.025826 
	C204.615433,115.860718 204.633453,113.695366 204.637360,111.042679 
z"/>
<path  opacity="1.000000" stroke="none" 
	d="
M360.474945,329.914124 
	C367.256104,329.419983 372.655487,331.560059 376.997772,336.188690 
	C381.427917,340.911041 385.865906,345.636841 390.068909,350.558868 
	C395.802521,357.273285 395.711243,367.750702 390.106262,373.823517 
	C385.098022,379.249817 374.280487,380.155670 367.610626,375.308990 
	C360.429626,370.091003 354.397278,363.652252 349.858704,355.989807 
	C343.433014,345.141449 346.873993,332.784332 360.474945,329.914124 
z"/>
</svg>