<svg version="1.1" id="Layer_1" xmlns="http://www.w3.org/2000/svg" xmlns:xlink="http://www.w3.org/1999/xlink" x="0px" y="0px"
	 width="100%" viewBox="0 0 550 550" enable-background="new 0 0 550 550" xml:space="preserve">
<path  opacity="1.000000" stroke="none" 
	d="
M551.000000,197.000000 
	C551.000000,314.888184 551.000000,432.776367 551.000000,551.000000 
	C515.313110,551.000000 479.625214,551.000000 443.623962,550.666443 
	C446.608704,548.546509 450.551056,547.402344 453.088226,544.857361 
	C461.878662,536.039917 470.448303,526.966797 478.587738,517.546692 
	C485.735870,509.273804 481.344971,495.689056 470.743744,493.147278 
	C466.110657,492.036438 461.084259,492.565704 455.771576,492.329529 
	C455.771576,483.637329 455.838470,474.017212 455.739441,464.398834 
	C455.698456,460.419006 455.635315,456.388489 454.997406,452.476410 
	C453.692383,444.472870 448.234222,440.557983 438.727722,440.302917 
	C432.056763,440.123932 425.971802,444.399750 424.786987,451.348602 
	C423.594025,458.345428 423.351135,465.531281 423.072266,472.649170 
	C422.801453,479.561249 423.013458,486.492249 423.013458,493.728088 
	C421.771454,493.348999 420.843506,493.092255 419.933197,492.783630 
	C412.563629,490.285278 405.063690,492.395386 400.715332,498.200806 
	C396.373566,503.997437 395.881836,511.609528 401.104004,517.573303 
	C411.563232,529.517883 421.124237,542.483154 435.000000,551.000000 
	C329.645782,551.000000 224.291550,551.000000 118.556534,550.666260 
	C119.322174,549.665222 120.683838,549.209961 121.582130,548.298218 
	C132.073227,537.649719 143.009323,527.375488 152.741730,516.067627 
	C158.595886,509.265778 154.407837,497.387268 146.123550,493.815308 
	C140.571823,491.421539 134.913925,491.124176 128.945419,494.105225 
	C128.945419,486.992493 129.006668,480.351166 128.928207,473.711517 
	C128.849640,467.063599 129.180130,460.347443 128.343948,453.787018 
	C127.136749,444.315674 121.433212,440.220795 111.201797,440.326996 
	C103.403732,440.407959 98.307198,445.342072 97.081032,454.208984 
	C96.740852,456.668976 96.751877,459.188721 96.743942,461.681519 
	C96.710114,472.313934 96.729553,482.946503 96.729553,493.964813 
	C95.203735,493.469391 93.958733,492.684753 92.752945,492.741028 
	C88.094131,492.958313 82.783760,492.133606 78.927750,494.087830 
	C69.326508,498.953766 67.608574,510.668335 75.467194,519.084045 
	C85.825462,530.176514 97.112350,540.401855 107.999985,551.000000 
	C72.367050,551.000000 36.734104,551.000000 1.000000,551.000000 
	C1.000000,432.645782 1.000000,314.291565 1.359110,195.554092 
	C3.464168,199.473404 4.933891,203.913498 6.997634,208.057770 
	C36.333847,266.968781 79.026085,312.963074 137.601257,343.880188 
	C208.490005,381.296692 282.803436,388.353058 359.176300,366.461914 
	C436.405792,344.325256 494.545197,296.477142 534.993835,227.172302 
	C540.727905,217.347565 545.683899,207.068680 551.000000,197.000000 
M28.500612,353.002716 
	C30.400011,354.623566 32.233654,356.329926 34.210648,357.849884 
	C41.367256,363.352051 52.108639,363.001312 57.321083,357.159882 
	C62.648899,351.189178 62.369579,340.306305 56.373005,333.883240 
	C50.705341,327.812561 44.833370,321.917084 38.812412,316.195862 
	C31.956112,309.680939 21.638878,309.664001 15.366678,315.842041 
	C8.788804,322.321167 8.872192,332.269104 15.615412,339.486450 
	C19.704275,343.862793 23.859945,348.176727 28.500612,353.002716 
M538.832764,317.791107 
	C531.412415,310.086853 523.037354,308.967529 515.027954,315.837341 
	C507.766998,322.065216 500.999542,328.997467 494.783264,336.275757 
	C489.276672,342.723206 490.366089,352.101166 496.167786,357.929504 
	C501.274933,363.060028 510.582275,364.047485 516.718872,358.783783 
	C524.361633,352.228149 531.539246,344.997498 538.097229,337.354340 
	C542.839905,331.826874 543.516479,325.003174 538.832764,317.791107 
M247.096130,423.955536 
	C243.626114,435.618317 248.604843,444.893738 260.438904,446.252441 
	C270.435547,447.400146 280.666809,446.976105 290.766388,446.564606 
	C296.176453,446.344177 300.303802,443.016235 302.655121,437.921082 
	C306.792206,428.956146 302.958588,414.542877 287.329376,414.304474 
	C279.862457,414.190521 272.391052,414.230896 264.928894,413.983032 
	C257.253784,413.728088 251.436401,416.703491 247.096130,423.955536 
M91.440163,366.782928 
	C78.091553,369.327972 76.042580,387.811310 83.571770,393.154541 
	C92.693436,399.627930 102.726532,405.174835 113.050613,409.478485 
	C120.774673,412.698334 129.544357,407.734528 132.609833,400.728363 
	C135.724274,393.610291 133.539429,385.351501 126.070297,380.742828 
	C117.901253,375.702271 109.186829,371.497528 100.493492,367.386505 
	C98.139046,366.273132 95.001144,366.816498 91.440163,366.782928 
M372.734802,401.163910 
	C363.889343,403.370972 354.994690,405.401428 346.215027,407.844910 
	C339.980804,409.579956 334.618469,417.917511 335.311646,423.998108 
	C336.150940,431.360596 342.359070,438.800415 349.202057,438.903992 
	C362.868500,439.110809 376.065674,436.378265 387.141327,427.844421 
	C389.748505,425.835571 391.762817,421.533997 391.944000,418.173645 
	C392.594574,406.106964 386.634460,400.906586 372.734802,401.163910 
M212.410751,430.765625 
	C217.760712,419.388184 213.632751,409.950958 201.523788,406.376465 
	C195.154907,404.496368 188.679886,402.963531 182.222961,401.396881 
	C173.232529,399.215454 164.175797,404.250916 161.644806,412.726685 
	C159.137222,421.124054 164.170364,430.231934 173.230392,433.048309 
	C179.728958,435.068420 186.368683,436.642639 192.966965,438.331696 
	C201.311218,440.467682 206.839340,438.428497 212.410751,430.765625 
M460.178497,368.037567 
	C457.547821,367.836395 454.401825,366.600250 452.374023,367.609894 
	C442.628204,372.462555 432.786407,377.330505 423.784119,383.389648 
	C418.473480,386.964081 418.303619,395.074219 421.486115,401.239380 
	C424.205444,406.507355 431.580261,411.185089 436.612549,409.935547 
	C447.353271,407.268524 457.528625,403.164001 465.496490,395.063690 
	C474.837891,385.566864 472.823761,374.090424 460.178497,368.037567 
z"/>
<path  opacity="1.000000" stroke="none" 
	d="
M551.000000,196.539368 
	C545.683899,207.068680 540.727905,217.347565 534.993835,227.172302 
	C494.545197,296.477142 436.405792,344.325256 359.176300,366.461914 
	C282.803436,388.353058 208.490005,381.296692 137.601257,343.880188 
	C79.026085,312.963074 36.333847,266.968781 6.997634,208.057770 
	C4.933891,203.913498 3.464168,199.473404 1.359110,195.085434 
	C1.000000,191.969406 1.000000,188.938812 1.354470,185.362854 
	C2.062690,183.887634 2.373503,182.938766 2.776376,182.030716 
	C19.348402,144.678879 41.844055,111.501984 71.649536,83.341606 
	C117.847252,39.693768 171.945541,12.450259 235.132660,3.782037 
	C241.103302,2.962964 247.044907,1.932385 253.000000,1.000001 
	C268.687561,1.000000 284.375122,1.000000 300.692749,1.391575 
	C331.542419,4.183708 360.658356,11.005417 388.562317,23.027330 
	C422.957031,37.845665 454.336761,57.267159 481.193024,83.518394 
	C511.091736,112.743469 534.862793,146.267242 551.000000,185.000000 
	C551.000000,188.692902 551.000000,192.385818 551.000000,196.539368 
M439.020660,158.393082 
	C436.196716,157.537933 433.372772,156.682800 429.761658,155.589279 
	C430.956940,183.989761 425.886597,210.480835 412.828827,235.152924 
	C399.708923,259.942413 381.442780,279.993652 357.528015,294.820404 
	C333.814911,309.522125 308.171661,317.131317 280.160645,317.997040 
	C243.841995,319.119507 211.337402,308.587677 183.004700,286.535034 
	C140.765579,253.658371 120.765251,209.743088 122.711655,155.353790 
	C92.086403,165.001755 65.890732,181.122787 38.344795,195.586258 
	C39.734715,198.858749 40.754009,201.834045 42.203892,204.582199 
	C54.962826,228.765839 71.163612,250.743637 90.923912,269.285950 
	C161.869293,335.858429 245.275223,359.702576 340.465668,337.344482 
	C404.697754,322.257782 453.855499,284.157745 492.849304,232.142456 
	C500.282684,222.226776 505.821838,210.890961 512.233215,200.209335 
	C514.159973,196.999313 513.514832,194.928818 509.936890,193.240128 
	C504.380981,190.617905 499.150940,187.310760 493.621796,184.625366 
	C475.696167,175.919174 457.697296,167.363754 439.020660,158.393082 
M141.489807,70.963814 
	C110.462395,89.234116 84.651558,113.144302 63.929562,143.151489 
	C131.713898,111.739883 202.736420,95.861885 277.209259,96.008080 
	C351.847656,96.154602 423.169739,111.119774 491.199402,145.839264 
	C424.390533,48.056366 276.202087,-7.836854 141.489807,70.963814 
M345.372070,263.909027 
	C383.377441,234.452866 402.000549,196.539566 395.869324,147.895889 
	C395.681488,146.405457 394.634979,144.045258 393.579956,143.791702 
	C381.552155,140.901123 369.444733,138.341751 356.723785,135.554840 
	C364.366333,163.851395 363.619904,190.658615 345.381775,214.372711 
	C327.527954,237.587173 303.525665,249.310226 274.124115,249.120102 
	C250.774017,248.969131 231.062119,239.702576 215.023849,223.106750 
	C191.025833,198.274445 186.685257,168.597244 195.284897,135.871246 
	C194.317673,135.917099 193.677109,135.856476 193.079544,135.989319 
	C181.892136,138.476105 170.683563,140.879715 159.561737,143.633331 
	C158.260040,143.955612 156.769943,146.115067 156.501602,147.624481 
	C152.279068,171.375854 156.307037,193.956757 166.648926,215.545685 
	C184.960556,253.771591 215.416428,276.399139 256.807037,283.659729 
	C288.483826,289.216339 317.969330,282.192444 345.372070,263.909027 
M298.647308,211.267273 
	C328.425110,195.651642 337.551727,162.487625 319.456177,134.713638 
	C317.999664,132.478073 314.557831,130.248596 312.007996,130.213058 
	C288.055542,129.879227 264.095703,129.944962 240.140488,130.166504 
	C238.001770,130.186264 235.010498,131.543030 233.890503,133.247986 
	C225.685028,145.738983 221.599045,159.291534 224.649002,174.392120 
	C230.224731,201.998108 262.507172,228.372574 298.647308,211.267273 
z"/>
<path  opacity="1.000000" stroke="none" 
	d="
M252.531342,1.000001 
	C247.044907,1.932385 241.103302,2.962964 235.132660,3.782037 
	C171.945541,12.450259 117.847252,39.693768 71.649536,83.341606 
	C41.844055,111.501984 19.348402,144.678879 2.776376,182.030716 
	C2.373503,182.938766 2.062690,183.887634 1.354470,184.908737 
	C1.000000,123.728249 1.000000,62.456497 1.000000,1.000000 
	C84.687469,1.000000 168.375076,1.000000 252.531342,1.000001 
z"/>
<path  opacity="1.000000" stroke="none" 
	d="
M551.000000,184.531342 
	C534.862793,146.267242 511.091736,112.743469 481.193024,83.518394 
	C454.336761,57.267159 422.957031,37.845665 388.562317,23.027330 
	C360.658356,11.005417 331.542419,4.183708 301.161407,1.391575 
	C384.249268,1.000000 467.498535,1.000000 551.000000,1.000000 
	C551.000000,62.020664 551.000000,123.041672 551.000000,184.531342 
z"/>
<path  opacity="1.000000" stroke="none" 
	d="
M435.444153,551.000000 
	C421.124237,542.483154 411.563232,529.517883 401.104004,517.573303 
	C395.881836,511.609528 396.373566,503.997437 400.715332,498.200806 
	C405.063690,492.395386 412.563629,490.285278 419.933197,492.783630 
	C420.843506,493.092255 421.771454,493.348999 423.013458,493.728088 
	C423.013458,486.492249 422.801453,479.561249 423.072266,472.649170 
	C423.351135,465.531281 423.594025,458.345428 424.786987,451.348602 
	C425.971802,444.399750 432.056763,440.123932 438.727722,440.302917 
	C448.234222,440.557983 453.692383,444.472870 454.997406,452.476410 
	C455.635315,456.388489 455.698456,460.419006 455.739441,464.398834 
	C455.838470,474.017212 455.771576,483.637329 455.771576,492.329529 
	C461.084259,492.565704 466.110657,492.036438 470.743744,493.147278 
	C481.344971,495.689056 485.735870,509.273804 478.587738,517.546692 
	C470.448303,526.966797 461.878662,536.039917 453.088226,544.857361 
	C450.551056,547.402344 446.608704,548.546509 443.155273,550.666443 
	C440.629425,551.000000 438.258881,551.000000 435.444153,551.000000 
z"/>
<path  opacity="1.000000" stroke="none" 
	d="
M108.454102,551.000000 
	C97.112350,540.401855 85.825462,530.176514 75.467194,519.084045 
	C67.608574,510.668335 69.326508,498.953766 78.927750,494.087830 
	C82.783760,492.133606 88.094131,492.958313 92.752945,492.741028 
	C93.958733,492.684753 95.203735,493.469391 96.729553,493.964813 
	C96.729553,482.946503 96.710114,472.313934 96.743942,461.681519 
	C96.751877,459.188721 96.740852,456.668976 97.081032,454.208984 
	C98.307198,445.342072 103.403732,440.407959 111.201797,440.326996 
	C121.433212,440.220795 127.136749,444.315674 128.343948,453.787018 
	C129.180130,460.347443 128.849640,467.063599 128.928207,473.711517 
	C129.006668,480.351166 128.945419,486.992493 128.945419,494.105225 
	C134.913925,491.124176 140.571823,491.421539 146.123550,493.815308 
	C154.407837,497.387268 158.595886,509.265778 152.741730,516.067627 
	C143.009323,527.375488 132.073227,537.649719 121.582130,548.298218 
	C120.683838,549.209961 119.322174,549.665222 118.087875,550.666260 
	C114.969406,551.000000 111.938812,551.000000 108.454102,551.000000 
z"/>
<path  opacity="1.000000" stroke="none" 
	d="
M28.243101,352.760712 
	C23.859945,348.176727 19.704275,343.862793 15.615412,339.486450 
	C8.872192,332.269104 8.788804,322.321167 15.366678,315.842041 
	C21.638878,309.664001 31.956112,309.680939 38.812412,316.195862 
	C44.833370,321.917084 50.705341,327.812561 56.373005,333.883240 
	C62.369579,340.306305 62.648899,351.189178 57.321083,357.159882 
	C52.108639,363.001312 41.367256,363.352051 34.210648,357.849884 
	C32.233654,356.329926 30.400011,354.623566 28.243101,352.760712 
z"/>
<path  opacity="1.000000" stroke="none" 
	d="
M539.059204,318.090515 
	C543.516479,325.003174 542.839905,331.826874 538.097229,337.354340 
	C531.539246,344.997498 524.361633,352.228149 516.718872,358.783783 
	C510.582275,364.047485 501.274933,363.060028 496.167786,357.929504 
	C490.366089,352.101166 489.276672,342.723206 494.783264,336.275757 
	C500.999542,328.997467 507.766998,322.065216 515.027954,315.837341 
	C523.037354,308.967529 531.412415,310.086853 539.059204,318.090515 
z"/>
<path  opacity="1.000000" stroke="none" 
	d="
M247.271896,423.607941 
	C251.436401,416.703491 257.253784,413.728088 264.928894,413.983032 
	C272.391052,414.230896 279.862457,414.190521 287.329376,414.304474 
	C302.958588,414.542877 306.792206,428.956146 302.655121,437.921082 
	C300.303802,443.016235 296.176453,446.344177 290.766388,446.564606 
	C280.666809,446.976105 270.435547,447.400146 260.438904,446.252441 
	C248.604843,444.893738 243.626114,435.618317 247.271896,423.607941 
z"/>
<path  opacity="1.000000" stroke="none" 
	d="
M91.831497,366.691193 
	C95.001144,366.816498 98.139046,366.273132 100.493492,367.386505 
	C109.186829,371.497528 117.901253,375.702271 126.070297,380.742828 
	C133.539429,385.351501 135.724274,393.610291 132.609833,400.728363 
	C129.544357,407.734528 120.774673,412.698334 113.050613,409.478485 
	C102.726532,405.174835 92.693436,399.627930 83.571770,393.154541 
	C76.042580,387.811310 78.091553,369.327972 91.831497,366.691193 
z"/>
<path  opacity="1.000000" stroke="none" 
	d="
M373.183380,401.129395 
	C386.634460,400.906586 392.594574,406.106964 391.944000,418.173645 
	C391.762817,421.533997 389.748505,425.835571 387.141327,427.844421 
	C376.065674,436.378265 362.868500,439.110809 349.202057,438.903992 
	C342.359070,438.800415 336.150940,431.360596 335.311646,423.998108 
	C334.618469,417.917511 339.980804,409.579956 346.215027,407.844910 
	C354.994690,405.401428 363.889343,403.370972 373.183380,401.129395 
z"/>
<path  opacity="1.000000" stroke="none" 
	d="
M212.228760,431.092499 
	C206.839340,438.428497 201.311218,440.467682 192.966965,438.331696 
	C186.368683,436.642639 179.728958,435.068420 173.230392,433.048309 
	C164.170364,430.231934 159.137222,421.124054 161.644806,412.726685 
	C164.175797,404.250916 173.232529,399.215454 182.222961,401.396881 
	C188.679886,402.963531 195.154907,404.496368 201.523788,406.376465 
	C213.632751,409.950958 217.760712,419.388184 212.228760,431.092499 
z"/>
<path  opacity="1.000000" stroke="none" 
	d="
M460.554230,368.154297 
	C472.823761,374.090424 474.837891,385.566864 465.496490,395.063690 
	C457.528625,403.164001 447.353271,407.268524 436.612549,409.935547 
	C431.580261,411.185089 424.205444,406.507355 421.486115,401.239380 
	C418.303619,395.074219 418.473480,386.964081 423.784119,383.389648 
	C432.786407,377.330505 442.628204,372.462555 452.374023,367.609894 
	C454.401825,366.600250 457.547821,367.836395 460.554230,368.154297 
z"/>
<path opacity="1.000000" stroke="none" 
	d="
M439.373657,158.571686 
	C457.697296,167.363754 475.696167,175.919174 493.621796,184.625366 
	C499.150940,187.310760 504.380981,190.617905 509.936890,193.240128 
	C513.514832,194.928818 514.159973,196.999313 512.233215,200.209335 
	C505.821838,210.890961 500.282684,222.226776 492.849304,232.142456 
	C453.855499,284.157745 404.697754,322.257782 340.465668,337.344482 
	C245.275223,359.702576 161.869293,335.858429 90.923912,269.285950 
	C71.163612,250.743637 54.962826,228.765839 42.203892,204.582199 
	C40.754009,201.834045 39.734715,198.858749 38.344795,195.586258 
	C65.890732,181.122787 92.086403,165.001755 122.711655,155.353790 
	C120.765251,209.743088 140.765579,253.658371 183.004700,286.535034 
	C211.337402,308.587677 243.841995,319.119507 280.160645,317.997040 
	C308.171661,317.131317 333.814911,309.522125 357.528015,294.820404 
	C381.442780,279.993652 399.708923,259.942413 412.828827,235.152924 
	C425.886597,210.480835 430.956940,183.989761 429.761658,155.589279 
	C433.372772,156.682800 436.196716,157.537933 439.373657,158.571686 
z"/>
<path opacity="1.000000" stroke="none" 
	d="
M141.810364,70.787849 
	C276.202087,-7.836854 424.390533,48.056366 491.199402,145.839264 
	C423.169739,111.119774 351.847656,96.154602 277.209259,96.008080 
	C202.736420,95.861885 131.713898,111.739883 63.929562,143.151489 
	C84.651558,113.144302 110.462395,89.234116 141.810364,70.787849 
z"/>
<path opacity="1.000000" stroke="none" 
	d="
M345.078674,264.115082 
	C317.969330,282.192444 288.483826,289.216339 256.807037,283.659729 
	C215.416428,276.399139 184.960556,253.771591 166.648926,215.545685 
	C156.307037,193.956757 152.279068,171.375854 156.501602,147.624481 
	C156.769943,146.115067 158.260040,143.955612 159.561737,143.633331 
	C170.683563,140.879715 181.892136,138.476105 193.079544,135.989319 
	C193.677109,135.856476 194.317673,135.917099 195.284897,135.871246 
	C186.685257,168.597244 191.025833,198.274445 215.023849,223.106750 
	C231.062119,239.702576 250.774017,248.969131 274.124115,249.120102 
	C303.525665,249.310226 327.527954,237.587173 345.381775,214.372711 
	C363.619904,190.658615 364.366333,163.851395 356.723785,135.554840 
	C369.444733,138.341751 381.552155,140.901123 393.579956,143.791702 
	C394.634979,144.045258 395.681488,146.405457 395.869324,147.895889 
	C402.000549,196.539566 383.377441,234.452866 345.078674,264.115082 
z"/>
<path opacity="1.000000" stroke="none" 
	d="
M298.330750,211.471695 
	C262.507172,228.372574 230.224731,201.998108 224.649002,174.392120 
	C221.599045,159.291534 225.685028,145.738983 233.890503,133.247986 
	C235.010498,131.543030 238.001770,130.186264 240.140488,130.166504 
	C264.095703,129.944962 288.055542,129.879227 312.007996,130.213058 
	C314.557831,130.248596 317.999664,132.478073 319.456177,134.713638 
	C337.551727,162.487625 328.425110,195.651642 298.330750,211.471695 
z"/>
</svg>