<svg version="1.1" id="Layer_1" xmlns="http://www.w3.org/2000/svg" xmlns:xlink="http://www.w3.org/1999/xlink" x="0px" y="0px"
	 width="100%" viewBox="0 0 528 544" enable-background="new 0 0 528 544" xml:space="preserve">
<path  opacity="1.000000" stroke="none" 
	d="
M1.000000,170.468658 
	C3.379031,158.964188 4.548834,147.698303 7.600087,136.783478 
	C19.546471,94.049393 41.405270,57.966789 78.347404,32.267059 
	C99.004784,17.896229 122.066460,8.967865 146.874619,4.854835 
	C174.090012,0.342704 200.994919,1.798658 227.116974,11.069365 
	C256.749573,21.585964 281.448517,39.412468 302.947571,62.274502 
	C331.310211,92.435249 348.016357,128.361389 356.676849,168.283508 
	C363.434662,199.434769 364.017151,230.681747 354.385284,261.495697 
	C345.736450,289.164886 329.392090,312.051727 309.383911,332.578064 
	C295.791687,346.522247 280.612244,358.933289 268.552948,374.352814 
	C251.260788,396.463287 240.320465,421.210114 237.237595,449.355865 
	C234.605850,473.383179 227.692383,495.887878 212.200287,515.144897 
	C202.591370,527.089111 190.803177,536.015259 176.885605,542.264648 
	C175.378464,542.941345 173.930038,543.748840 172.227188,544.747803 
	C146.645767,545.000000 121.291542,545.000000 95.266678,544.721191 
	C86.164055,540.535889 77.625572,536.872925 69.976173,531.438110 
	C47.908760,515.759399 37.787872,493.191742 32.653793,467.608215 
	C29.312843,450.959991 27.998356,434.052063 25.831842,417.254395 
	C23.664444,400.449860 21.732964,383.614777 19.721828,366.790222 
	C17.573261,348.815948 15.501879,330.832367 13.306507,312.863861 
	C10.809103,292.423370 8.235854,271.992004 5.648696,251.562607 
	C4.146725,239.702377 2.552636,227.853821 1.000000,216.000000 
	C1.000000,200.979111 1.000000,185.958206 1.000000,170.468658 
M277.511475,331.005341 
	C287.652283,322.053589 296.673340,311.963684 305.408813,301.736481 
	C317.023193,288.138824 326.958405,273.195160 331.833191,255.713455 
	C340.376556,225.075775 340.386810,194.191940 331.992554,163.563446 
	C316.767883,108.012566 285.402405,64.862274 232.986694,38.953091 
	C208.056366,26.629976 181.177643,22.644037 153.720459,26.764585 
	C117.787926,32.157047 88.289062,49.430042 64.317169,76.967133 
	C37.325451,107.973167 25.841368,144.222000 24.220308,184.587967 
	C22.888477,217.751831 29.048426,250.152954 32.888786,282.801178 
	C35.237087,302.764893 37.807266,322.702637 40.309772,342.648041 
	C42.791561,362.428314 45.327045,382.201843 47.813705,401.981537 
	C50.009422,419.446960 52.200184,436.913116 54.334713,454.386078 
	C55.504585,463.962494 56.618534,473.543152 60.582916,482.488586 
	C74.860054,514.704407 108.591751,532.760010 144.871078,527.886353 
	C182.206314,522.870789 209.210297,491.000854 212.679825,455.016296 
	C214.660156,434.476868 219.077225,414.664154 227.980957,395.935089 
	C239.827499,371.015930 257.189301,350.332550 277.511475,331.005341 
z"/>
<path  opacity="1.000000" stroke="none" 
	d="
M529.000000,24.531471 
	C511.138947,42.922249 493.277924,60.844494 474.994080,79.190979 
	C480.158722,80.155922 484.904480,79.508743 489.602631,79.629547 
	C494.421356,79.753456 499.259064,79.376274 503.986969,80.772125 
	C509.349304,82.355278 512.030701,85.765350 512.117554,91.329964 
	C512.210022,97.257301 509.651184,100.849518 503.978668,102.329773 
	C497.640442,103.983734 491.072388,103.899872 484.625732,103.970207 
	C471.806244,104.110077 458.977417,103.672569 446.156769,103.317329 
	C438.717499,103.111198 433.824280,98.459229 433.746490,91.047585 
	C433.555847,72.884621 433.549927,54.716793 433.752838,36.554085 
	C433.831665,29.498083 438.595734,25.105175 445.420013,24.652534 
	C449.979370,24.350121 453.035797,26.187012 454.958954,30.330570 
	C458.025635,36.937954 457.481567,43.966187 457.609802,50.922623 
	C457.670380,54.207920 457.620209,57.495255 457.620209,61.225758 
	C460.432617,60.673397 461.723297,58.599174 463.265930,57.064560 
	C479.330841,41.083145 495.342346,25.048033 511.358917,9.018079 
	C516.065002,4.308087 521.111511,0.767092 528.602295,3.904466 
	C529.000000,10.687645 529.000000,17.375290 529.000000,24.531471 
z"/>
<path  opacity="1.000000" stroke="none" 
	d="
M315.550018,1.000000 
	C329.128998,7.389659 340.028046,16.465977 348.694641,28.210226 
	C351.901672,32.556164 354.444275,37.182358 354.397552,42.818153 
	C354.352905,48.203781 351.477997,51.955078 345.854156,53.660412 
	C341.048370,55.117687 337.336304,53.136719 334.529907,49.410778 
	C332.130371,46.225086 330.228180,42.664871 327.829468,39.478470 
	C322.531281,32.440357 315.338959,27.559507 308.155731,22.689976 
	C298.774841,16.330648 298.246643,8.990384 306.800781,1.272868 
	C309.700012,1.000000 312.400024,1.000000 315.550018,1.000000 
z"/>
<path  opacity="1.000000" stroke="none" 
	d="
M351.434601,345.431763 
	C347.378876,337.738678 347.831757,334.546997 353.312469,328.550354 
	C362.030609,319.011414 368.833313,308.099579 374.605957,296.663605 
	C378.197174,289.549286 387.792145,289.404816 392.242676,292.682831 
	C396.241241,295.627930 398.077820,299.907532 396.162537,304.469330 
	C389.724609,319.803131 381.009308,333.759796 369.071533,345.416260 
	C363.386810,350.967041 357.995514,350.685059 351.434601,345.431763 
z"/>
<path  opacity="1.000000" stroke="none" 
	d="
M372.782715,85.594681 
	C379.773041,81.756783 386.174377,82.636765 389.905853,89.374146 
	C397.900848,103.809494 404.555847,118.914253 405.289124,135.803909 
	C405.568420,142.236969 402.463806,146.255661 397.256470,147.325394 
	C391.288818,148.551315 385.416412,145.876953 383.901520,139.683365 
	C380.321625,125.047173 374.545349,111.286476 368.837158,97.447311 
	C366.958191,92.891830 369.139618,89.045494 372.782715,85.594681 
z"/>
<path  opacity="1.000000" stroke="none" 
	d="
M417.315674,208.158295 
	C417.043243,218.278076 418.177673,227.973022 416.295013,237.547455 
	C415.783081,240.150818 415.197388,242.780396 414.259277,245.251266 
	C411.832397,251.643341 407.773224,253.867661 401.408661,252.592148 
	C395.003113,251.308456 392.233063,248.321411 392.758209,241.342606 
	C393.646729,229.534439 393.742889,217.732864 393.678802,205.915588 
	C393.666199,203.590225 393.545502,201.255966 393.306580,198.943192 
	C392.708160,193.150574 396.366913,188.183411 402.535889,186.558121 
	C407.907318,185.142929 411.992371,187.308762 414.335785,193.072937 
	C416.230865,197.734192 417.064362,202.657730 417.315674,208.158295 
z"/>
<path  opacity="1.000000" stroke="none" 
	d="
M295.173340,245.886002 
	C290.511963,263.135590 281.186981,277.185547 269.192932,289.546967 
	C256.663147,302.460571 243.650085,314.910553 231.271637,327.964630 
	C205.855682,354.767853 191.400116,386.939423 185.209198,423.163116 
	C183.198898,434.925537 181.626358,446.819397 177.566635,458.177582 
	C171.071289,476.350159 155.075806,488.313965 136.943359,488.298615 
	C118.507271,488.283020 100.781578,475.506348 94.564629,457.854187 
	C90.707634,446.902863 90.285034,435.364594 88.741966,424.034271 
	C86.320602,406.255035 84.257935,388.426331 82.127731,370.608459 
	C81.555595,365.822937 80.896957,360.994812 80.971687,356.197052 
	C81.090523,348.567963 83.746262,341.957611 90.018982,337.024811 
	C96.954453,331.570862 105.024391,328.477570 113.084862,325.302063 
	C118.660858,323.105377 124.342110,321.110138 129.269836,317.568726 
	C143.313019,307.476318 141.751511,287.090912 126.408920,279.196259 
	C117.235672,274.476105 106.997208,273.422607 97.298164,270.522064 
	C82.929276,266.225006 72.214615,258.172913 68.267311,243.109207 
	C66.079559,234.760254 64.514397,226.247391 62.698067,217.802063 
	C59.487255,202.872925 58.858185,187.703171 59.788139,172.575409 
	C62.481861,128.756210 85.687698,91.260658 131.400955,78.440948 
	C154.491989,71.965370 177.604141,73.707344 200.291290,80.692253 
	C247.793777,95.317284 278.988373,126.553200 293.533142,174.053802 
	C300.742981,197.599884 301.225891,221.517395 295.173340,245.886002 
M274.517731,192.974014 
	C271.611694,178.703064 267.811676,164.635666 259.489471,152.514023 
	C234.380905,115.942390 200.041840,96.423279 155.056732,98.468246 
	C134.414871,99.406593 116.190079,106.857239 102.064789,122.778564 
	C88.075569,138.546524 84.394073,157.664490 83.283058,177.842850 
	C82.236603,196.848679 85.736496,215.242264 89.538788,233.674942 
	C91.089584,241.192810 95.154999,245.811844 102.499390,247.787537 
	C110.851959,250.034439 119.188232,252.345352 127.503319,254.727142 
	C135.112518,256.906738 142.271591,260.109955 147.979355,265.726166 
	C168.999847,286.409515 166.436005,327.317261 134.984665,341.311371 
	C126.611000,345.037201 118.182465,348.587006 109.662354,351.934418 
	C106.555969,353.154877 104.537140,354.922516 104.757599,358.539948 
	C105.020950,362.861176 104.952690,367.217590 105.467705,371.505981 
	C108.041985,392.941406 110.698235,414.367554 113.462563,435.779297 
	C114.400887,443.047333 115.633324,450.239716 120.399330,456.320557 
	C130.675003,469.430939 148.450668,467.306610 155.012939,452.034698 
	C156.124100,449.448822 156.934937,446.721313 157.726822,444.013123 
	C160.491135,434.559204 160.787781,424.679047 162.655350,415.064423 
	C170.199539,376.225800 186.871445,341.850922 213.620895,312.681702 
	C224.754730,300.540680 237.159409,289.575104 248.630783,277.730804 
	C260.572235,265.401184 270.551300,251.755814 274.186035,234.444489 
	C277.022125,220.936859 276.509644,207.396057 274.517731,192.974014 
z"/>
</svg>