<svg version="1.1" id="Layer_1" xmlns="http://www.w3.org/2000/svg" xmlns:xlink="http://www.w3.org/1999/xlink" x="0px" y="0px"
	 width="100%" viewBox="0 0 928 1024" enable-background="new 0 0 928 1024" xml:space="preserve">
<path  opacity="1.000000" stroke="none" 
	d="
M1.000006,905.463196 
	C1.485107,904.548950 2.051759,904.159119 2.443242,903.637817 
	C10.342795,893.117310 18.918907,890.852295 30.841011,896.163269 
	C39.268002,899.917175 39.283207,899.932068 45.711685,893.381226 
	C56.214977,882.677917 66.702438,871.959045 77.178123,861.228760 
	C78.326584,860.052368 79.711464,859.034973 80.280273,857.167480 
	C79.288910,854.628967 76.652657,853.532227 74.803062,851.718872 
	C69.026215,846.055603 64.126549,839.889160 61.360821,832.131531 
	C55.679569,816.196106 64.914566,804.536255 83.281723,805.981873 
	C88.014709,806.354492 92.176956,808.254883 95.694054,811.748474 
	C100.460625,816.483276 100.730164,816.396545 105.666321,811.432983 
	C139.625412,777.285522 173.554733,743.108398 207.498825,708.946045 
	C216.542862,699.843811 225.543747,690.697205 234.699005,681.708008 
	C237.253632,679.199707 237.887680,676.814331 236.997681,673.257507 
	C235.065048,665.533997 230.355591,659.963806 224.462936,655.099548 
	C200.208771,635.078613 178.281494,612.710144 159.042145,587.891479 
	C123.241226,541.708618 100.945419,489.539276 91.507690,431.844879 
	C86.997726,404.274780 85.469551,376.567657 87.841850,348.753235 
	C94.098579,275.395172 120.527596,210.303513 168.249252,153.996201 
	C217.879578,95.436882 279.185242,53.830956 351.138580,27.620274 
	C373.373566,19.520664 395.932831,12.496709 419.299805,8.453735 
	C431.041412,6.422192 441.334381,13.199596 444.521423,24.568165 
	C447.369995,34.729424 442.283569,44.268406 431.291779,48.873974 
	C420.951904,53.206406 409.943695,55.183109 399.078064,57.677605 
	C365.356384,65.419273 333.968536,78.982346 304.031708,96.108574 
	C249.040268,127.568039 203.754440,169.127335 171.191345,223.893738 
	C150.628128,258.478088 136.620407,295.526703 130.509140,335.336334 
	C123.044403,383.962769 129.713898,431.203949 145.986313,477.264679 
	C159.002884,514.109436 179.156387,546.937256 203.548737,577.270203 
	C205.941788,580.246033 208.734253,582.905884 211.410339,585.645081 
	C212.072678,586.322998 213.005157,586.737000 213.974182,587.378784 
	C216.315170,585.501099 215.759308,583.008545 215.619888,580.841675 
	C213.683655,550.747314 213.829163,520.591675 212.936508,490.467590 
	C212.452988,474.150238 212.355438,457.798828 213.811432,441.524109 
	C214.713501,431.441132 216.287491,421.408539 217.835480,411.395966 
	C219.231537,402.366180 216.430725,394.726715 211.081772,387.657684 
	C200.065796,373.099304 190.793472,357.547455 184.717896,340.241302 
	C182.614609,334.250153 181.020950,328.082611 181.226334,321.697021 
	C181.556580,311.430084 188.103043,303.856903 197.858063,301.968201 
	C207.303955,300.139343 216.963974,304.760040 220.921356,313.843292 
	C224.371719,321.762787 226.901443,330.079834 229.959793,338.175201 
	C231.351883,341.860016 232.577301,345.815613 236.855621,347.009552 
	C238.071960,346.654785 238.455841,345.938232 238.729843,345.130981 
	C242.997162,332.559418 250.678421,322.135315 259.454865,312.438019 
	C275.271484,294.961884 292.164551,278.702972 312.346680,266.210724 
	C316.466675,263.660583 320.645294,261.148102 325.286560,259.767365 
	C329.076172,258.639984 329.773773,256.805603 328.492981,253.203354 
	C324.757019,242.695602 321.205048,232.120346 317.724701,221.524353 
	C314.183197,210.742325 311.872345,199.684128 310.970428,188.359467 
	C310.556671,183.164490 311.137878,178.010696 312.755188,173.079697 
	C315.603607,164.395248 323.552429,159.099152 333.620880,158.855057 
	C341.386627,158.666763 347.705841,163.493973 351.192047,172.049164 
	C353.290131,177.197891 354.741211,182.585251 354.797272,188.037857 
	C354.952209,203.112518 360.777618,216.568588 365.951385,230.252579 
	C367.052765,233.165558 367.985809,236.142181 369.183868,239.636337 
	C375.862000,237.528244 382.213135,235.664719 388.469482,233.524185 
	C417.290649,223.663361 447.001495,218.261719 477.271698,215.604568 
	C480.585144,215.313690 483.888824,214.807739 487.206726,214.700150 
	C490.643646,214.588730 491.867004,212.999741 491.753815,209.667145 
	C491.369263,198.347321 491.070221,187.023773 490.846985,175.699509 
	C490.626892,164.534927 491.224274,153.405029 492.707123,142.331863 
	C494.540192,128.643295 505.681793,119.853943 517.608154,122.690918 
	C524.802734,124.402328 528.807861,129.535156 531.472961,135.956726 
	C534.394043,142.995117 535.145020,150.467010 535.197754,157.975510 
	C535.317078,174.973328 535.292480,191.972961 535.183105,208.970947 
	C535.160095,212.545456 535.985107,214.368759 540.067810,214.724136 
	C579.288757,218.138275 618.169006,223.267075 654.776428,239.050568 
	C655.059570,239.172623 655.420837,239.113510 656.252319,239.178802 
	C661.562988,230.485840 664.837219,220.759781 667.570374,210.844666 
	C670.226379,201.209335 671.430298,191.293869 672.693420,181.403381 
	C674.522156,167.084213 682.882263,158.155426 693.967651,158.741638 
	C705.824951,159.368668 715.200317,170.411102 715.296326,184.145660 
	C715.417969,201.537674 711.276062,218.123657 705.145752,234.244736 
	C702.371887,241.539139 699.065491,248.631042 695.919006,256.006378 
	C735.742126,277.798218 769.767700,305.747406 790.163574,347.635986 
	C792.859680,346.576569 793.147461,344.260651 793.883484,342.303833 
	C797.578979,332.479462 801.349670,322.683563 806.030029,313.277893 
	C811.126648,303.035645 820.794312,299.119507 831.508240,302.803223 
	C841.401855,306.204895 846.974792,315.992523 844.895630,326.735382 
	C841.255432,345.544037 832.451355,362.142151 822.429138,378.167938 
	C818.541138,384.384827 814.285095,390.368774 809.040955,395.557434 
	C807.732788,396.851746 807.361267,398.177490 807.690735,400.038940 
	C811.475525,421.426453 811.960510,443.057312 812.286438,464.694000 
	C812.856140,502.522491 811.486633,540.334412 811.299927,578.156494 
	C811.288635,580.438110 810.785645,582.803040 811.966797,585.241272 
	C814.527771,585.655457 815.767578,583.593018 817.189636,582.182495 
	C826.937683,572.514038 835.596497,561.822388 842.535645,550.082642 
	C856.501465,526.454773 871.313171,503.208862 880.770264,477.195618 
	C888.303894,456.473145 893.386108,435.168579 895.737793,413.236237 
	C905.566162,321.574097 877.263306,242.092636 818.013794,172.905670 
	C770.790405,117.761787 710.442871,82.860146 641.853149,61.135452 
	C629.620483,57.260967 617.119812,54.478519 604.698120,51.362389 
	C598.842346,49.893394 593.157898,48.069508 588.497620,43.979153 
	C581.668091,37.984879 579.932129,28.975138 583.950989,20.320189 
	C587.861084,11.899491 596.336304,6.888348 604.953430,8.395232 
	C641.911072,14.858014 677.119751,26.812733 711.222107,42.296421 
	C750.703369,60.222355 785.878479,84.411652 818.456421,112.987244 
	C867.760925,156.234619 902.508057,208.859589 923.816650,270.630981 
	C925.605713,275.817291 927.047546,281.123352 928.825317,286.686890 
	C929.000000,346.354218 929.000000,405.708466 928.805908,465.829773 
	C927.034790,471.498260 925.579773,476.442841 923.862183,481.294495 
	C898.966064,551.622009 857.671814,610.358521 799.373291,657.009949 
	C795.433411,660.162598 792.851196,663.813965 791.268433,668.613037 
	C785.408875,686.380676 777.750671,703.411377 768.139832,719.437378 
	C746.288025,755.874695 719.637451,788.226562 685.994629,814.555115 
	C674.997253,823.161499 664.981506,833.114929 651.680847,838.371643 
	C649.041870,839.414612 649.272217,841.655090 649.279297,843.826416 
	C649.320984,856.506531 650.667847,869.055481 653.391907,881.430908 
	C660.658508,914.442078 676.335022,942.247986 703.768860,962.830505 
	C717.399414,973.057007 732.717468,979.773743 748.612549,985.503418 
	C757.269531,988.624023 760.942139,994.637451 761.374329,1003.846924 
	C761.837036,1013.703674 756.884094,1020.150024 749.000000,1025.000000 
	C743.311951,1025.000000 737.623962,1025.000000 731.179199,1024.787842 
	C656.028198,995.820312 615.252441,941.473755 606.698364,862.303833 
	C604.687195,862.042786 602.743408,863.113892 600.792969,863.968384 
	C590.404907,868.519104 579.716492,872.218994 568.922729,875.680847 
	C537.511841,885.755249 505.981934,889.019775 473.670715,879.531250 
	C457.381165,874.747620 440.926056,870.558167 425.102966,864.328064 
	C421.390503,862.866333 419.411163,863.420837 419.162811,867.783569 
	C418.917114,872.099609 418.643127,876.443054 417.932220,880.699402 
	C406.699829,947.948975 369.013641,994.086426 306.265137,1020.004822 
	C298.071167,1023.389282 289.386475,1025.312622 280.367828,1023.869934 
	C271.748840,1022.491089 267.127075,1017.930603 265.449768,1009.398193 
	C263.660797,1000.297729 266.907196,992.149719 275.034149,987.801941 
	C285.748444,982.069885 296.885132,977.132751 307.675232,971.535828 
	C364.137512,942.248474 377.431580,889.421204 377.706238,842.319458 
	C377.718750,840.172546 376.706512,839.000183 374.803467,838.180725 
	C366.929962,834.790588 360.053802,829.789612 353.300232,824.615356 
	C346.290009,819.244385 339.276947,813.875427 332.351440,808.396423 
	C330.139709,806.646729 328.333740,806.381653 326.377411,808.659180 
	C325.296448,809.917419 323.979919,810.970703 322.799225,812.146240 
	C286.777771,848.011047 250.759949,883.879517 214.741531,919.747375 
	C209.425812,925.040894 209.394196,925.069641 214.559357,930.753113 
	C219.252228,935.916809 222.322937,941.683289 220.815445,948.875854 
	C217.567749,964.371460 200.611313,971.272095 187.239777,962.671570 
	C181.693909,959.104370 177.608124,953.974060 173.008713,949.409546 
	C169.754898,946.180420 167.213470,946.033020 163.841980,949.419922 
	C153.026672,960.284241 142.094040,971.040161 130.931854,981.545898 
	C127.111496,985.141541 126.177765,987.963135 128.756653,993.048462 
	C135.738800,1006.816589 133.078735,1016.458191 121.000000,1025.000000 
	C115.977905,1025.000000 110.955818,1025.000000 105.273041,1024.728271 
	C99.541458,1021.510437 95.184654,1017.728088 91.065025,1013.552185 
	C70.950546,993.163147 51.065586,972.547729 29.687803,953.431824 
	C18.261147,943.214172 7.259052,932.481384 1.000000,918.000000 
	C1.000000,913.975464 1.000000,909.950928 1.000006,905.463196 
M339.384277,299.932465 
	C321.159515,309.898102 305.606689,323.078339 292.640198,339.256165 
	C271.740784,365.331543 258.582581,394.997528 257.656952,428.417053 
	C256.476898,471.023499 254.944321,513.679810 257.122986,556.341553 
	C258.510742,583.515625 261.425293,610.365112 269.459076,636.486694 
	C271.642914,643.587341 272.901215,644.184265 278.644348,639.339966 
	C281.555054,636.884766 284.077789,633.951538 286.656738,631.125610 
	C289.912720,627.557800 292.879913,623.714294 296.263580,620.277161 
	C309.403503,606.929749 319.710663,606.706177 333.330536,619.523560 
	C339.153503,625.003418 344.764954,630.715088 350.326172,636.463013 
	C353.185883,639.418823 355.609955,639.751709 358.742950,636.745850 
	C363.189697,632.479431 367.816162,628.413269 371.988098,623.851440 
	C381.094940,613.893372 389.886749,603.629272 399.912689,594.547302 
	C404.255585,590.613220 408.941956,587.171814 414.314362,584.737427 
	C419.025574,582.602600 423.907684,581.905396 428.921051,583.301208 
	C440.864227,586.626343 446.373260,598.408630 441.273773,609.695984 
	C438.141663,616.628662 433.281281,622.330627 428.087311,627.781982 
	C415.781586,640.697632 401.689606,651.779419 389.772278,665.089417 
	C384.951538,670.473572 384.994141,670.929138 389.934967,676.039795 
	C396.182281,682.501831 403.266937,688.078125 409.087616,695.028015 
	C416.096130,703.396118 416.765198,711.985413 411.661041,721.349976 
	C407.285187,729.378540 400.977234,735.768799 394.326416,741.869446 
	C383.652405,751.660278 372.258667,760.693298 362.928986,771.897949 
	C360.790070,774.466797 359.403839,776.446167 363.057892,779.188416 
	C390.788025,799.999146 419.996216,818.079590 453.091461,829.244324 
	C470.153259,835.000183 487.316895,840.333923 505.391815,841.668030 
	C529.394226,843.439514 551.939514,836.850708 574.023621,828.648254 
	C614.123291,813.754395 650.941406,793.215027 681.294067,762.584229 
	C739.062683,704.286133 769.295044,634.269592 769.757263,551.830505 
	C769.823608,539.998901 769.914978,528.165771 770.168396,516.337097 
	C770.895874,482.380890 772.029602,448.441193 766.830994,414.653168 
	C759.806885,369.000336 737.513306,333.108856 699.279724,307.139954 
	C676.988403,291.999298 652.205505,282.351349 626.742310,274.220276 
	C598.248779,265.121552 569.127747,258.830688 539.230652,257.496552 
	C512.587646,256.307648 485.977966,257.990448 459.454681,261.120453 
	C417.093475,266.119476 377.138885,278.387390 339.384277,299.932465 
M363.234680,710.416626 
	C363.047607,708.717407 361.576141,707.992126 360.543884,706.970581 
	C346.923553,693.492249 333.288147,680.029053 319.620972,666.598328 
	C318.223419,665.224915 317.062622,663.514221 315.074158,662.794861 
	C313.142242,663.299500 312.099548,664.914429 310.843658,666.180908 
	C301.341125,675.763245 291.927460,685.433777 282.416504,695.007751 
	C233.682785,744.064331 184.927811,793.099731 136.181046,842.143372 
	C131.327026,847.026978 131.272339,847.414429 136.244904,852.523804 
	C148.911285,865.538757 161.621643,878.511047 174.343185,891.472107 
	C178.980362,896.196594 179.077194,896.152710 183.724991,891.478455 
	C222.374496,852.609070 261.037140,813.752686 299.674286,774.871033 
	C320.809235,753.602417 341.902771,732.292542 363.234680,710.416626 
M78.720787,921.222107 
	C78.368332,921.575500 78.007866,921.921265 77.664597,922.283447 
	C66.998589,933.533752 68.966934,930.757568 77.821838,940.271606 
	C83.324745,946.183960 88.541061,952.440247 95.332283,957.909607 
	C109.544357,943.337524 123.524612,929.003113 137.026688,915.159058 
	C129.418701,907.166626 122.261002,899.779114 115.267097,892.239685 
	C112.163307,888.893982 109.765594,889.122803 106.662827,892.414734 
	C97.650330,901.976624 88.382484,911.297852 78.720787,921.222107 
z"/>
<path  opacity="1.000000" stroke="none" 
	d="
M520.533875,1.000000 
	C527.549377,4.316440 533.118713,8.272584 534.618713,16.325768 
	C536.708374,27.545618 530.599121,37.351967 519.331665,39.962650 
	C506.107117,43.026791 494.232483,35.845783 492.048157,23.463348 
	C490.455750,14.436170 494.848022,7.240201 505.744385,1.221695 
	C510.689240,1.000000 515.378479,1.000000 520.533875,1.000000 
z"/>
<path  opacity="1.000000" stroke="none" 
	d="
M499.299988,744.059204 
	C482.730530,740.591553 469.250916,732.473877 457.761871,720.814087 
	C455.052338,718.064209 452.809235,714.983887 451.078705,711.534851 
	C445.575867,700.567200 446.814392,693.002930 455.737457,684.614563 
	C462.312805,678.433228 469.779510,673.389038 477.485291,668.764343 
	C482.239441,665.911133 487.531982,664.567200 493.205444,664.615784 
	C506.520203,664.729736 519.836853,664.667847 533.152466,664.614624 
	C537.725891,664.596313 542.127441,665.398682 546.214050,667.386719 
	C556.767761,672.520935 566.352722,679.063293 574.504517,687.573608 
	C578.447083,691.689636 579.777100,696.375122 578.741150,702.204651 
	C577.112671,711.367737 572.725708,718.753662 565.791565,724.621399 
	C546.665588,740.805969 524.978149,748.593323 499.299988,744.059204 
z"/>
<path  opacity="1.000000" stroke="none" 
	d="
M628.957947,539.282288 
	C605.634888,540.523438 585.662598,532.933228 567.582153,519.538269 
	C563.660095,516.632568 560.444824,513.043701 557.844116,508.922455 
	C551.666016,499.132141 553.011230,488.815094 561.382263,481.502899 
	C569.802002,474.148193 580.950928,474.029114 589.432922,481.888641 
	C597.229736,489.113281 606.211304,493.905090 616.338257,496.494415 
	C629.442810,499.845093 641.768250,497.522949 653.083252,490.131012 
	C658.098633,486.854553 662.887268,483.224304 667.960693,480.044922 
	C677.793640,473.882904 689.013855,475.573700 695.629211,483.991180 
	C702.606201,492.868805 701.839539,504.105927 693.456543,512.443298 
	C675.770325,530.033264 654.647400,539.543518 628.957947,539.282288 
z"/>
<path  opacity="1.000000" stroke="none" 
	d="
M394.672546,498.252014 
	C405.454895,499.345062 414.844177,496.212921 423.664703,491.236053 
	C430.325775,487.477539 436.754974,483.303467 443.241486,479.241180 
	C452.686279,473.326324 461.001862,476.708618 466.250763,481.318939 
	C472.958710,487.210785 474.827576,496.469604 471.221100,505.017120 
	C467.993591,512.666443 462.327881,518.305664 455.534943,522.691467 
	C420.348572,545.409180 372.991730,547.370789 336.022736,515.512634 
	C328.143494,508.722687 326.323944,499.784882 328.716339,490.101440 
	C330.861267,481.419617 337.613922,477.685028 345.873413,476.248047 
	C350.724548,475.404083 355.142090,476.945068 359.147949,479.466675 
	C361.948212,481.229370 364.539185,483.371918 367.038452,485.556641 
	C374.893433,492.422943 383.883209,496.756104 394.672546,498.252014 
z"/>
</svg>