<svg version="1.1" id="Layer_1" xmlns="http://www.w3.org/2000/svg" xmlns:xlink="http://www.w3.org/1999/xlink" x="0px" y="0px"
	 width="100%" viewBox="0 0 544 640" enable-background="new 0 0 544 640" xml:space="preserve">
<path  opacity="1.000000" stroke="none" 
	d="
M1.000000,331.000000 
	C1.000000,327.307098 1.000000,323.614166 1.204334,319.192261 
	C3.964777,313.561249 7.333947,309.298309 11.024203,305.169800 
	C21.124908,293.869598 30.878445,282.264648 39.663727,269.889404 
	C45.224636,262.056122 49.305241,253.604401 50.631165,243.941711 
	C52.241913,232.203400 51.668640,220.362701 52.460869,208.576508 
	C54.014664,185.460327 56.385208,162.501984 62.793575,140.192993 
	C83.197212,69.163269 129.392654,24.764814 201.134384,6.959991 
	C212.611221,4.111680 224.352478,2.836079 236.000000,1.000000 
	C250.020889,1.000000 264.041779,1.000000 278.915649,1.109614 
	C298.349030,3.028659 316.697815,6.118522 334.535828,11.723365 
	C407.615326,34.685532 458.944458,81.030006 486.108124,153.179398 
	C487.229645,156.158218 488.827820,156.939667 491.672668,156.787872 
	C495.823425,156.566422 499.966431,156.471878 504.127106,157.136429 
	C520.568909,159.762527 534.365173,167.034058 545.000000,180.000000 
	C545.000000,201.687561 545.000000,223.375122 544.826111,245.815735 
	C544.152283,247.233948 543.660156,247.905106 543.151245,248.563293 
	C530.465515,264.971802 513.890808,272.636292 493.115631,270.633240 
	C489.860779,270.319427 488.429321,271.429779 488.344757,274.647430 
	C488.301300,276.299713 488.027924,277.953522 487.763428,279.591278 
	C484.691528,298.612885 478.204010,316.628265 471.053406,334.376892 
	C455.849548,372.114624 436.184448,406.710052 401.094055,429.914581 
	C394.573700,434.226288 393.508942,440.148102 394.713562,447.307922 
	C397.320068,462.799744 401.994293,477.688843 407.377472,492.378845 
	C421.104065,529.836914 437.174133,566.101257 460.082123,599.078918 
	C468.511414,611.213379 478.809296,621.563599 488.593445,632.442688 
	C490.782837,634.877075 493.470856,637.152710 493.000000,641.000000 
	C391.645782,641.000000 290.291534,641.000000 188.559662,640.649170 
	C188.538040,636.111694 191.245483,633.469177 194.203430,630.926086 
	C198.481079,627.248413 203.079376,623.957642 206.348923,619.155945 
	C214.075363,607.808838 213.407928,595.090332 212.093933,582.514954 
	C210.217850,564.559814 203.218628,548.109558 195.247192,532.129211 
	C188.840073,519.284851 181.446121,507.029114 171.068161,496.865784 
	C166.956650,492.839294 162.281525,490.891327 156.270554,491.074432 
	C141.612045,491.520874 127.144089,493.864197 112.546112,494.868042 
	C96.886299,495.944824 81.586647,494.760345 66.995079,488.639557 
	C52.419491,482.525452 43.158867,472.214264 41.348774,455.859528 
	C40.486149,448.065430 41.626316,440.627869 43.440125,433.180847 
	C44.477543,428.921478 44.262405,426.176239 39.156963,424.043060 
	C27.978981,419.372589 25.743414,406.907684 33.681995,397.568878 
	C35.052090,395.957123 36.861828,394.583374 36.950237,392.297913 
	C36.490147,391.133484 35.575886,390.720123 34.650055,390.338013 
	C27.674194,387.459229 25.067148,382.100220 25.613512,374.796448 
	C26.007311,369.532135 27.990463,364.809998 30.104158,360.092041 
	C33.301872,352.954559 33.289219,352.913055 26.145304,350.179504 
	C15.875459,346.249908 6.359190,341.356659 1.000000,331.000000 
M209.979721,523.621094 
	C217.415298,538.384827 223.731934,553.592285 227.122498,569.826294 
	C231.327957,589.962158 231.674515,609.798401 221.176605,628.496277 
	C220.986633,628.834595 221.218781,629.409851 221.245865,629.767639 
	C301.236603,629.767639 381.077576,629.767639 461.070618,629.767639 
	C460.812561,627.421875 459.423248,626.373291 458.425171,625.082031 
	C454.352356,619.812744 450.091248,614.674744 446.265778,609.230957 
	C432.140930,589.130554 420.462250,567.626404 410.235779,545.324402 
	C396.322479,514.982117 384.515045,483.891632 378.220886,450.984528 
	C375.490967,436.711731 378.019226,424.210266 391.735596,415.892334 
	C399.142853,411.400391 405.921906,405.913727 411.728882,399.397003 
	C414.756042,395.999817 418.052460,392.737946 419.860657,388.601257 
	C373.784546,376.958069 334.708191,356.831055 315.286438,310.117065 
	C303.688660,316.357239 293.447479,323.541199 285.900055,334.130096 
	C282.357849,339.099731 276.489075,340.499817 272.531494,337.625854 
	C268.563751,334.744507 268.212616,328.565430 272.109070,323.785889 
	C280.570465,313.406799 289.621887,303.672546 302.067230,297.845032 
	C310.210632,294.031891 315.329620,287.501343 318.487946,279.216431 
	C321.055695,272.480835 322.720459,265.566345 323.225922,258.373535 
	C324.006195,247.270782 317.491913,236.958359 307.942902,234.762497 
	C302.337372,233.473480 296.729218,234.154053 291.180664,235.798416 
	C285.317993,237.535889 280.462769,241.077805 275.233459,243.980850 
	C270.373901,246.678650 269.172089,245.969345 267.439911,240.854919 
	C266.431519,237.877625 265.070953,234.985168 263.573853,232.213928 
	C257.575867,221.111023 249.423203,211.643738 240.594269,202.754822 
	C214.645218,176.629471 184.736969,155.375961 155.259521,133.593140 
	C139.464447,121.921120 122.990425,111.073936 109.401077,96.673973 
	C103.834999,90.775871 103.220009,90.704300 98.742111,97.805832 
	C92.207153,108.169662 88.164673,119.642067 84.113884,131.114960 
	C72.269165,164.662277 68.774063,199.476501 68.402351,234.745377 
	C68.222931,251.768906 63.509396,267.164551 53.275265,280.876434 
	C43.696678,293.710022 32.495777,305.186340 22.693428,317.828339 
	C17.190062,324.926025 17.483152,326.873657 25.512283,331.359589 
	C28.107277,332.809448 30.981005,333.789490 33.786404,334.823944 
	C35.811314,335.570679 37.958900,335.977905 40.009048,336.664154 
	C50.617775,340.215454 53.907440,346.579865 50.412209,357.160126 
	C49.109745,361.102753 47.384071,364.908234 45.795902,368.753296 
	C42.987728,375.552185 43.015240,375.912750 50.347862,377.874908 
	C56.442741,379.505890 62.694637,380.541840 68.823395,382.057983 
	C71.720001,382.774536 74.767700,383.744934 75.258881,387.424622 
	C75.805359,391.518555 74.857666,395.124786 71.045944,397.330292 
	C69.188332,398.405151 67.150139,399.202911 65.129768,399.954193 
	C61.080593,401.459869 56.944237,402.738495 52.931889,404.332397 
	C51.102112,405.059296 49.015675,406.156677 49.046524,408.458740 
	C49.078445,410.840912 51.599316,410.763062 53.156666,411.457367 
	C61.654911,415.246002 64.089409,419.533264 62.370129,428.868927 
	C61.438389,433.928284 59.945076,438.881775 58.801769,443.905029 
	C55.766827,457.239349 61.360531,468.052277 74.039917,473.311157 
	C79.003220,475.369720 84.243042,476.447296 89.586098,476.636292 
	C108.913002,477.319733 128.189072,476.918701 147.372528,474.024902 
	C160.583603,472.031982 172.116577,475.045227 182.333435,484.479828 
	C194.243759,495.478241 202.354050,508.847321 209.979721,523.621094 
M371.560272,350.935974 
	C389.084229,361.964508 407.568542,370.317657 428.586914,371.945862 
	C431.655273,372.183594 433.479736,371.529297 435.132172,368.858124 
	C449.638794,345.408600 458.999939,319.757629 466.452423,293.466125 
	C472.808411,271.042969 475.838776,247.942688 477.217621,224.633698 
	C478.525330,202.527466 477.620361,180.620972 470.528625,159.505020 
	C456.101471,116.547531 428.480865,83.219612 391.834808,57.725204 
	C359.216980,35.033234 322.828644,21.431894 282.622223,19.056591 
	C252.368484,17.269268 222.467545,17.485455 193.214020,27.073032 
	C165.058685,36.300690 139.856369,50.141956 118.917061,71.402328 
	C115.077408,75.300858 115.580360,78.049934 118.778236,81.946228 
	C124.875679,89.375374 132.252029,95.279060 139.774673,101.082275 
	C169.175568,123.763138 200.277100,144.190369 228.682846,168.190125 
	C246.539398,183.276978 263.982758,198.745209 275.675690,219.469009 
	C277.119690,222.028229 278.871552,222.446503 281.453400,221.241348 
	C286.162781,219.043076 291.211426,217.948029 296.305542,217.060669 
	C315.963654,213.636368 334.558563,225.238342 338.389008,244.817337 
	C341.191010,259.139679 340.553436,273.801758 333.484741,287.182098 
	C330.154755,293.485413 329.900848,299.498138 332.483124,305.848694 
	C333.735321,308.928253 335.057892,312.003174 336.645966,314.918213 
	C344.817841,329.918488 356.906372,341.180939 371.560272,350.935974 
M513.019165,250.566330 
	C530.928040,242.749786 540.861816,223.937012 536.842712,205.448746 
	C532.651184,186.167221 516.862183,173.957031 496.797028,174.251251 
	C493.183044,174.304260 491.718903,175.206696 492.143616,179.144043 
	C492.978729,186.885788 494.480621,194.521622 494.481689,202.407471 
	C494.483826,217.732346 493.084534,232.946045 491.760162,248.168121 
	C491.402161,252.282852 492.795715,253.821091 496.630798,253.522110 
	C501.926971,253.109207 507.276672,252.944885 513.019165,250.566330 
z"/>
<path  opacity="1.000000" stroke="none" 
	d="
M116.194168,367.539307 
	C113.151443,361.461334 116.570290,357.249054 119.739937,353.220062 
	C129.239670,341.144775 135.822388,327.585999 140.523438,313.068420 
	C142.388123,307.309937 142.184937,307.244141 136.147690,306.404114 
	C130.452744,305.611664 127.379883,298.719299 131.108536,294.314819 
	C137.750702,286.468781 145.980667,280.526093 155.130844,275.867737 
	C157.397705,274.713684 159.135757,275.279327 160.760483,277.315460 
	C166.961517,285.086884 171.010773,294.060150 175.096527,302.981415 
	C176.742264,306.574860 176.101395,310.398865 172.719162,312.891937 
	C169.441116,315.308167 165.871567,315.030090 162.514923,312.654907 
	C161.727966,312.098053 160.890717,311.612244 159.897995,310.980011 
	C159.356018,311.674316 158.749329,312.114594 158.619400,312.667023 
	C154.942566,328.298462 146.874603,341.961548 139.294556,355.838440 
	C136.794617,360.415100 133.277939,364.236572 129.611771,367.869476 
	C124.619904,372.816040 121.710541,372.726379 116.194168,367.539307 
z"/>
<path  opacity="1.000000" stroke="none" 
	d="
M106.935478,191.560852 
	C119.513039,195.900131 128.335831,205.505127 129.797195,216.362045 
	C126.062798,217.868179 122.757362,216.102539 119.509117,214.762375 
	C114.893906,212.858231 110.471962,210.473480 105.822159,208.668320 
	C99.714653,206.297241 93.789818,206.856430 88.161621,210.488937 
	C86.153564,211.784973 84.219299,213.659180 81.440079,213.135132 
	C79.422401,201.341599 87.884422,186.418427 106.935478,191.560852 
z"/>
<path  opacity="1.000000" stroke="none" 
	d="
M82.388847,242.317383 
	C80.440079,237.362930 83.453957,231.487747 88.964653,228.688324 
	C99.105309,223.536880 114.557701,226.700119 123.973145,235.837418 
	C128.407822,240.141068 131.547287,245.045654 131.554626,251.431076 
	C129.725845,253.150955 128.020767,252.016525 126.326385,251.550339 
	C119.891159,249.779739 113.728287,247.234802 107.719536,244.410950 
	C99.578865,240.585190 91.194397,241.607513 82.388847,242.317383 
z"/>
<path  opacity="1.000000" stroke="none" 
	d="
M223.803314,285.529388 
	C225.958862,291.241516 225.589294,296.375092 222.138107,300.980499 
	C218.958282,305.223724 212.533310,305.437256 209.039261,301.636383 
	C204.218521,296.392303 207.323654,283.354279 214.050797,281.148071 
	C218.221771,279.780151 221.533997,281.202118 223.803314,285.529388 
z"/>
<path  opacity="1.000000" stroke="none" 
	d="
M193.680634,349.633881 
	C195.698639,348.010773 197.587357,347.004303 199.810272,346.739685 
	C206.234055,345.974945 210.064072,349.829315 209.215042,356.205994 
	C208.353027,362.680206 204.951401,367.114502 199.809250,368.467194 
	C193.986847,369.998901 189.859482,366.987274 189.684982,360.959473 
	C189.566055,356.851715 190.477509,353.024506 193.680634,349.633881 
z"/>
<path  opacity="1.000000" stroke="none" 
	d="
M203.995407,317.102417 
	C207.783829,312.934479 211.909103,313.258881 216.045334,315.482758 
	C220.345078,317.794464 219.576263,321.874756 218.940887,325.659546 
	C218.615005,327.600769 217.889389,329.527100 217.044693,331.318878 
	C214.815018,336.048462 210.586075,338.408691 206.661179,337.016266 
	C201.927612,335.336975 200.877136,331.236725 201.095566,326.906403 
	C201.260605,323.634735 201.722687,320.253662 203.995407,317.102417 
z"/>
<path  opacity="1.000000" stroke="none" 
	d="
M192.489594,388.930511 
	C189.623734,394.441864 185.437866,397.234650 179.563217,397.346008 
	C175.006927,397.432312 172.909683,394.989410 172.676727,390.634125 
	C172.369904,384.897491 177.880981,377.253021 183.380234,375.791138 
	C188.981857,374.302002 194.219879,381.514954 192.489594,388.930511 
z"/>
<path  opacity="1.000000" stroke="none" 
	d="
M227.960663,257.220886 
	C227.544418,260.867706 227.507843,264.213470 225.230789,266.955017 
	C221.134567,271.886780 214.802032,271.415161 211.754959,265.803284 
	C210.978027,264.372375 210.452713,262.755737 210.082733,261.161530 
	C208.518661,254.422028 211.370789,248.853500 216.838852,247.768539 
	C222.618637,246.621719 226.178757,249.535583 227.960663,257.220886 
z"/>
<path  opacity="1.000000" stroke="none" 
	d="
M162.333649,401.302856 
	C170.136429,402.558502 172.932327,409.348541 168.350861,415.190796 
	C166.190018,417.946320 163.631012,420.497742 160.298569,421.693512 
	C156.997543,422.878113 153.313171,422.270508 151.205002,419.594482 
	C148.856583,416.613586 148.759247,412.681458 150.869659,409.261444 
	C153.420410,405.127808 157.276596,402.624176 162.333649,401.302856 
z"/>
<path  opacity="1.000000" stroke="none" 
	d="
M211.536194,232.164886 
	C209.361160,228.384689 209.069565,224.993317 211.370224,221.507309 
	C213.739822,217.916855 216.492691,215.238510 221.210907,216.792557 
	C225.577652,218.230835 228.449646,222.857773 227.745987,227.395615 
	C227.136337,231.327148 225.563049,235.214859 221.715363,236.550339 
	C217.766846,237.920792 214.402573,235.536362 211.536194,232.164886 
z"/>
<path  opacity="1.000000" stroke="none" 
	d="
M140.494385,421.541504 
	C143.988159,425.704834 144.131424,429.675873 141.236649,433.454590 
	C138.362549,437.206299 132.594772,439.215546 128.829208,437.679230 
	C124.639732,435.969940 123.385017,432.470551 123.769997,428.361053 
	C124.346878,422.203186 132.538437,418.754486 140.494385,421.541504 
z"/>
</svg>